%FSLAX45Y45*%
G04 Gerber Fmt 4.5, Leading zero omitted, Abs format (unit mm)*
G04 Created by KiCad (PCBNEW 5.1.2) date 2019-06-26 00:59:18*
%MOMM*%
%LPD*%
G04 APERTURE LIST*
%ADD10C,0.050000*%
%ADD11C,0.200000*%
%ADD12C,0.300000*%
G04 APERTURE END LIST*
D10*
X13271500Y-8509000D02*
X14986000Y-8509000D01*
X14986000Y-2794000D02*
X14986000Y-8509000D01*
X5778500Y-2794000D02*
X5778500Y-8509000D01*
X7556500Y-8509000D02*
X5778500Y-8509000D01*
X15621000Y-11938000D02*
X15621000Y-14986000D01*
X13271500Y-11938000D02*
X15621000Y-11938000D01*
X14986000Y-2794000D02*
X5778500Y-2794000D01*
X13271500Y-11938000D02*
X13271500Y-8509000D01*
X5276596Y-14986000D02*
X15621000Y-14986000D01*
X5276596Y-11938000D02*
X5276596Y-14986000D01*
X7556500Y-11938000D02*
X5276596Y-11938000D01*
X7556500Y-8509000D02*
X7556500Y-11938000D01*
D11*
X8295100Y-11292300D02*
X8545100Y-11542300D01*
X8545100Y-11292300D02*
X8295100Y-11542300D01*
X14035500Y-5120100D02*
X14285500Y-5370100D01*
X14285500Y-5120100D02*
X14035500Y-5370100D01*
X6542500Y-5120100D02*
X6792500Y-5370100D01*
X6792500Y-5120100D02*
X6542500Y-5370100D01*
X14789320Y-13214970D02*
X15039320Y-13464970D01*
X15039320Y-13214970D02*
X14789320Y-13464970D01*
D12*
X5560524Y-15454214D02*
X5560524Y-15154214D01*
X5631953Y-15154214D01*
X5674810Y-15168500D01*
X5703382Y-15197071D01*
X5717667Y-15225643D01*
X5731953Y-15282786D01*
X5731953Y-15325643D01*
X5717667Y-15382786D01*
X5703382Y-15411357D01*
X5674810Y-15439929D01*
X5631953Y-15454214D01*
X5560524Y-15454214D01*
X5860524Y-15454214D02*
X5860524Y-15254214D01*
X5860524Y-15311357D02*
X5874810Y-15282786D01*
X5889096Y-15268500D01*
X5917667Y-15254214D01*
X5946239Y-15254214D01*
X6046239Y-15454214D02*
X6046239Y-15254214D01*
X6046239Y-15154214D02*
X6031953Y-15168500D01*
X6046239Y-15182786D01*
X6060524Y-15168500D01*
X6046239Y-15154214D01*
X6046239Y-15182786D01*
X6231953Y-15454214D02*
X6203382Y-15439929D01*
X6189096Y-15411357D01*
X6189096Y-15154214D01*
X6389096Y-15454214D02*
X6360524Y-15439929D01*
X6346239Y-15411357D01*
X6346239Y-15154214D01*
X6731953Y-15454214D02*
X6731953Y-15154214D01*
X6831953Y-15368500D01*
X6931953Y-15154214D01*
X6931953Y-15454214D01*
X7203382Y-15454214D02*
X7203382Y-15297071D01*
X7189096Y-15268500D01*
X7160524Y-15254214D01*
X7103382Y-15254214D01*
X7074810Y-15268500D01*
X7203382Y-15439929D02*
X7174810Y-15454214D01*
X7103382Y-15454214D01*
X7074810Y-15439929D01*
X7060524Y-15411357D01*
X7060524Y-15382786D01*
X7074810Y-15354214D01*
X7103382Y-15339929D01*
X7174810Y-15339929D01*
X7203382Y-15325643D01*
X7346239Y-15254214D02*
X7346239Y-15554214D01*
X7346239Y-15268500D02*
X7374810Y-15254214D01*
X7431953Y-15254214D01*
X7460524Y-15268500D01*
X7474810Y-15282786D01*
X7489096Y-15311357D01*
X7489096Y-15397071D01*
X7474810Y-15425643D01*
X7460524Y-15439929D01*
X7431953Y-15454214D01*
X7374810Y-15454214D01*
X7346239Y-15439929D01*
X7617667Y-15425643D02*
X7631953Y-15439929D01*
X7617667Y-15454214D01*
X7603382Y-15439929D01*
X7617667Y-15425643D01*
X7617667Y-15454214D01*
X7617667Y-15268500D02*
X7631953Y-15282786D01*
X7617667Y-15297071D01*
X7603382Y-15282786D01*
X7617667Y-15268500D01*
X7617667Y-15297071D01*
X5024096Y-15823500D02*
X5274096Y-16073500D01*
X5274096Y-15823500D02*
X5024096Y-16073500D01*
X5546239Y-15812786D02*
X5560524Y-15798500D01*
X5589096Y-15784214D01*
X5660524Y-15784214D01*
X5689096Y-15798500D01*
X5703382Y-15812786D01*
X5717667Y-15841357D01*
X5717667Y-15869929D01*
X5703382Y-15912786D01*
X5531953Y-16084214D01*
X5717667Y-16084214D01*
X5846239Y-16055643D02*
X5860524Y-16069929D01*
X5846239Y-16084214D01*
X5831953Y-16069929D01*
X5846239Y-16055643D01*
X5846239Y-16084214D01*
X6131953Y-15784214D02*
X5989096Y-15784214D01*
X5974810Y-15927071D01*
X5989096Y-15912786D01*
X6017667Y-15898500D01*
X6089096Y-15898500D01*
X6117667Y-15912786D01*
X6131953Y-15927071D01*
X6146239Y-15955643D01*
X6146239Y-16027071D01*
X6131953Y-16055643D01*
X6117667Y-16069929D01*
X6089096Y-16084214D01*
X6017667Y-16084214D01*
X5989096Y-16069929D01*
X5974810Y-16055643D01*
X6331953Y-15784214D02*
X6360524Y-15784214D01*
X6389096Y-15798500D01*
X6403382Y-15812786D01*
X6417667Y-15841357D01*
X6431953Y-15898500D01*
X6431953Y-15969929D01*
X6417667Y-16027071D01*
X6403382Y-16055643D01*
X6389096Y-16069929D01*
X6360524Y-16084214D01*
X6331953Y-16084214D01*
X6303382Y-16069929D01*
X6289096Y-16055643D01*
X6274810Y-16027071D01*
X6260524Y-15969929D01*
X6260524Y-15898500D01*
X6274810Y-15841357D01*
X6289096Y-15812786D01*
X6303382Y-15798500D01*
X6331953Y-15784214D01*
X6560524Y-16084214D02*
X6560524Y-15884214D01*
X6560524Y-15912786D02*
X6574810Y-15898500D01*
X6603382Y-15884214D01*
X6646239Y-15884214D01*
X6674810Y-15898500D01*
X6689096Y-15927071D01*
X6689096Y-16084214D01*
X6689096Y-15927071D02*
X6703382Y-15898500D01*
X6731953Y-15884214D01*
X6774810Y-15884214D01*
X6803382Y-15898500D01*
X6817667Y-15927071D01*
X6817667Y-16084214D01*
X6960524Y-16084214D02*
X6960524Y-15884214D01*
X6960524Y-15912786D02*
X6974810Y-15898500D01*
X7003382Y-15884214D01*
X7046239Y-15884214D01*
X7074810Y-15898500D01*
X7089096Y-15927071D01*
X7089096Y-16084214D01*
X7089096Y-15927071D02*
X7103382Y-15898500D01*
X7131953Y-15884214D01*
X7174810Y-15884214D01*
X7203382Y-15898500D01*
X7217667Y-15927071D01*
X7217667Y-16084214D01*
X7803382Y-15769929D02*
X7546239Y-16155643D01*
X8189096Y-15784214D02*
X8217667Y-15784214D01*
X8246239Y-15798500D01*
X8260524Y-15812786D01*
X8274810Y-15841357D01*
X8289096Y-15898500D01*
X8289096Y-15969929D01*
X8274810Y-16027071D01*
X8260524Y-16055643D01*
X8246239Y-16069929D01*
X8217667Y-16084214D01*
X8189096Y-16084214D01*
X8160524Y-16069929D01*
X8146239Y-16055643D01*
X8131953Y-16027071D01*
X8117667Y-15969929D01*
X8117667Y-15898500D01*
X8131953Y-15841357D01*
X8146239Y-15812786D01*
X8160524Y-15798500D01*
X8189096Y-15784214D01*
X8417667Y-16055643D02*
X8431953Y-16069929D01*
X8417667Y-16084214D01*
X8403382Y-16069929D01*
X8417667Y-16055643D01*
X8417667Y-16084214D01*
X8617667Y-15784214D02*
X8646239Y-15784214D01*
X8674810Y-15798500D01*
X8689096Y-15812786D01*
X8703382Y-15841357D01*
X8717667Y-15898500D01*
X8717667Y-15969929D01*
X8703382Y-16027071D01*
X8689096Y-16055643D01*
X8674810Y-16069929D01*
X8646239Y-16084214D01*
X8617667Y-16084214D01*
X8589096Y-16069929D01*
X8574810Y-16055643D01*
X8560524Y-16027071D01*
X8546239Y-15969929D01*
X8546239Y-15898500D01*
X8560524Y-15841357D01*
X8574810Y-15812786D01*
X8589096Y-15798500D01*
X8617667Y-15784214D01*
X8860524Y-16084214D02*
X8917667Y-16084214D01*
X8946239Y-16069929D01*
X8960524Y-16055643D01*
X8989096Y-16012786D01*
X9003382Y-15955643D01*
X9003382Y-15841357D01*
X8989096Y-15812786D01*
X8974810Y-15798500D01*
X8946239Y-15784214D01*
X8889096Y-15784214D01*
X8860524Y-15798500D01*
X8846239Y-15812786D01*
X8831953Y-15841357D01*
X8831953Y-15912786D01*
X8846239Y-15941357D01*
X8860524Y-15955643D01*
X8889096Y-15969929D01*
X8946239Y-15969929D01*
X8974810Y-15955643D01*
X8989096Y-15941357D01*
X9003382Y-15912786D01*
X9174810Y-15912786D02*
X9146239Y-15898500D01*
X9131953Y-15884214D01*
X9117667Y-15855643D01*
X9117667Y-15841357D01*
X9131953Y-15812786D01*
X9146239Y-15798500D01*
X9174810Y-15784214D01*
X9231953Y-15784214D01*
X9260524Y-15798500D01*
X9274810Y-15812786D01*
X9289096Y-15841357D01*
X9289096Y-15855643D01*
X9274810Y-15884214D01*
X9260524Y-15898500D01*
X9231953Y-15912786D01*
X9174810Y-15912786D01*
X9146239Y-15927071D01*
X9131953Y-15941357D01*
X9117667Y-15969929D01*
X9117667Y-16027071D01*
X9131953Y-16055643D01*
X9146239Y-16069929D01*
X9174810Y-16084214D01*
X9231953Y-16084214D01*
X9260524Y-16069929D01*
X9274810Y-16055643D01*
X9289096Y-16027071D01*
X9289096Y-15969929D01*
X9274810Y-15941357D01*
X9260524Y-15927071D01*
X9231953Y-15912786D01*
X9403382Y-15784214D02*
X9403382Y-15841357D01*
X9517667Y-15784214D02*
X9517667Y-15841357D01*
X9960524Y-16198500D02*
X9946239Y-16184214D01*
X9917667Y-16141357D01*
X9903382Y-16112786D01*
X9889096Y-16069929D01*
X9874810Y-15998500D01*
X9874810Y-15941357D01*
X9889096Y-15869929D01*
X9903382Y-15827071D01*
X9917667Y-15798500D01*
X9946239Y-15755643D01*
X9960524Y-15741357D01*
X10203382Y-15884214D02*
X10203382Y-16084214D01*
X10131953Y-15769929D02*
X10060524Y-15984214D01*
X10246239Y-15984214D01*
X10589096Y-16084214D02*
X10589096Y-15784214D01*
X10717667Y-16084214D02*
X10717667Y-15927071D01*
X10703382Y-15898500D01*
X10674810Y-15884214D01*
X10631953Y-15884214D01*
X10603382Y-15898500D01*
X10589096Y-15912786D01*
X10903382Y-16084214D02*
X10874810Y-16069929D01*
X10860524Y-16055643D01*
X10846239Y-16027071D01*
X10846239Y-15941357D01*
X10860524Y-15912786D01*
X10874810Y-15898500D01*
X10903382Y-15884214D01*
X10946239Y-15884214D01*
X10974810Y-15898500D01*
X10989096Y-15912786D01*
X11003382Y-15941357D01*
X11003382Y-16027071D01*
X10989096Y-16055643D01*
X10974810Y-16069929D01*
X10946239Y-16084214D01*
X10903382Y-16084214D01*
X11174810Y-16084214D02*
X11146239Y-16069929D01*
X11131953Y-16041357D01*
X11131953Y-15784214D01*
X11403382Y-16069929D02*
X11374810Y-16084214D01*
X11317667Y-16084214D01*
X11289096Y-16069929D01*
X11274810Y-16041357D01*
X11274810Y-15927071D01*
X11289096Y-15898500D01*
X11317667Y-15884214D01*
X11374810Y-15884214D01*
X11403382Y-15898500D01*
X11417667Y-15927071D01*
X11417667Y-15955643D01*
X11274810Y-15984214D01*
X11531953Y-16069929D02*
X11560524Y-16084214D01*
X11617667Y-16084214D01*
X11646239Y-16069929D01*
X11660524Y-16041357D01*
X11660524Y-16027071D01*
X11646239Y-15998500D01*
X11617667Y-15984214D01*
X11574810Y-15984214D01*
X11546239Y-15969929D01*
X11531953Y-15941357D01*
X11531953Y-15927071D01*
X11546239Y-15898500D01*
X11574810Y-15884214D01*
X11617667Y-15884214D01*
X11646239Y-15898500D01*
X11760524Y-16198500D02*
X11774810Y-16184214D01*
X11803382Y-16141357D01*
X11817667Y-16112786D01*
X11831953Y-16069929D01*
X11846239Y-15998500D01*
X11846239Y-15941357D01*
X11831953Y-15869929D01*
X11817667Y-15827071D01*
X11803382Y-15798500D01*
X11774810Y-15755643D01*
X11760524Y-15741357D01*
X12303382Y-16198500D02*
X12289096Y-16184214D01*
X12260524Y-16141357D01*
X12246239Y-16112786D01*
X12231953Y-16069929D01*
X12217667Y-15998500D01*
X12217667Y-15941357D01*
X12231953Y-15869929D01*
X12246239Y-15827071D01*
X12260524Y-15798500D01*
X12289096Y-15755643D01*
X12303382Y-15741357D01*
X12417667Y-15884214D02*
X12417667Y-16084214D01*
X12417667Y-15912786D02*
X12431953Y-15898500D01*
X12460524Y-15884214D01*
X12503382Y-15884214D01*
X12531953Y-15898500D01*
X12546239Y-15927071D01*
X12546239Y-16084214D01*
X12731953Y-16084214D02*
X12703382Y-16069929D01*
X12689096Y-16055643D01*
X12674810Y-16027071D01*
X12674810Y-15941357D01*
X12689096Y-15912786D01*
X12703382Y-15898500D01*
X12731953Y-15884214D01*
X12774810Y-15884214D01*
X12803382Y-15898500D01*
X12817667Y-15912786D01*
X12831953Y-15941357D01*
X12831953Y-16027071D01*
X12817667Y-16055643D01*
X12803382Y-16069929D01*
X12774810Y-16084214D01*
X12731953Y-16084214D01*
X12917667Y-15884214D02*
X13031953Y-15884214D01*
X12960524Y-15784214D02*
X12960524Y-16041357D01*
X12974810Y-16069929D01*
X13003382Y-16084214D01*
X13031953Y-16084214D01*
X13360524Y-15884214D02*
X13360524Y-16184214D01*
X13360524Y-15898500D02*
X13389096Y-15884214D01*
X13446239Y-15884214D01*
X13474810Y-15898500D01*
X13489096Y-15912786D01*
X13503382Y-15941357D01*
X13503382Y-16027071D01*
X13489096Y-16055643D01*
X13474810Y-16069929D01*
X13446239Y-16084214D01*
X13389096Y-16084214D01*
X13360524Y-16069929D01*
X13674810Y-16084214D02*
X13646239Y-16069929D01*
X13631953Y-16041357D01*
X13631953Y-15784214D01*
X13917667Y-16084214D02*
X13917667Y-15927071D01*
X13903382Y-15898500D01*
X13874810Y-15884214D01*
X13817667Y-15884214D01*
X13789096Y-15898500D01*
X13917667Y-16069929D02*
X13889096Y-16084214D01*
X13817667Y-16084214D01*
X13789096Y-16069929D01*
X13774810Y-16041357D01*
X13774810Y-16012786D01*
X13789096Y-15984214D01*
X13817667Y-15969929D01*
X13889096Y-15969929D01*
X13917667Y-15955643D01*
X14017667Y-15884214D02*
X14131953Y-15884214D01*
X14060524Y-15784214D02*
X14060524Y-16041357D01*
X14074810Y-16069929D01*
X14103382Y-16084214D01*
X14131953Y-16084214D01*
X14346239Y-16069929D02*
X14317667Y-16084214D01*
X14260524Y-16084214D01*
X14231953Y-16069929D01*
X14217667Y-16041357D01*
X14217667Y-15927071D01*
X14231953Y-15898500D01*
X14260524Y-15884214D01*
X14317667Y-15884214D01*
X14346239Y-15898500D01*
X14360524Y-15927071D01*
X14360524Y-15955643D01*
X14217667Y-15984214D01*
X14617667Y-16084214D02*
X14617667Y-15784214D01*
X14617667Y-16069929D02*
X14589096Y-16084214D01*
X14531953Y-16084214D01*
X14503382Y-16069929D01*
X14489096Y-16055643D01*
X14474810Y-16027071D01*
X14474810Y-15941357D01*
X14489096Y-15912786D01*
X14503382Y-15898500D01*
X14531953Y-15884214D01*
X14589096Y-15884214D01*
X14617667Y-15898500D01*
X14731953Y-16198500D02*
X14746239Y-16184214D01*
X14774810Y-16141357D01*
X14789096Y-16112786D01*
X14803382Y-16069929D01*
X14817667Y-15998500D01*
X14817667Y-15941357D01*
X14803382Y-15869929D01*
X14789096Y-15827071D01*
X14774810Y-15798500D01*
X14746239Y-15755643D01*
X14731953Y-15741357D01*
M02*
