G04 #@! TF.GenerationSoftware,KiCad,Pcbnew,5.1.2*
G04 #@! TF.CreationDate,2019-06-14T00:31:34-07:00*
G04 #@! TF.ProjectId,tinyfpga-raspi-romi-board,74696e79-6670-4676-912d-72617370692d,rev?*
G04 #@! TF.SameCoordinates,Original*
G04 #@! TF.FileFunction,Legend,Bot*
G04 #@! TF.FilePolarity,Positive*
%FSLAX46Y46*%
G04 Gerber Fmt 4.6, Leading zero omitted, Abs format (unit mm)*
G04 Created by KiCad (PCBNEW 5.1.2) date 2019-06-14 00:31:34*
%MOMM*%
%LPD*%
G04 APERTURE LIST*
%ADD10C,0.120000*%
%ADD11C,0.150000*%
G04 APERTURE END LIST*
D10*
X93838300Y-129064060D02*
X94858300Y-129064060D01*
X93838300Y-123864060D02*
X94858300Y-123864060D01*
X91298300Y-129064060D02*
X92318300Y-129064060D01*
X91298300Y-123864060D02*
X92318300Y-123864060D01*
X88758300Y-129064060D02*
X89778300Y-129064060D01*
X88758300Y-123864060D02*
X89778300Y-123864060D01*
X86218300Y-129064060D02*
X87238300Y-129064060D01*
X86218300Y-123864060D02*
X87238300Y-123864060D01*
X96378300Y-129064060D02*
X96948300Y-129064060D01*
X96378300Y-123864060D02*
X96948300Y-123864060D01*
X84128300Y-129064060D02*
X84698300Y-129064060D01*
X84128300Y-123864060D02*
X84698300Y-123864060D01*
X84698300Y-122424060D02*
X84698300Y-123864060D01*
X96948300Y-123864060D02*
X96948300Y-129064060D01*
X84128300Y-123864060D02*
X84128300Y-129064060D01*
X94288300Y-106264400D02*
X94288300Y-108924400D01*
X109648300Y-106264400D02*
X109648300Y-108924400D01*
X94288300Y-108924400D02*
X97398300Y-108924400D01*
X94858300Y-106264400D02*
X94858300Y-104744400D01*
X94288300Y-106264400D02*
X94858300Y-106264400D01*
X109078300Y-108924400D02*
X109648300Y-108924400D01*
X98918300Y-108924400D02*
X102478300Y-108924400D01*
X103998300Y-108924400D02*
X107558300Y-108924400D01*
X96378300Y-106264400D02*
X99938300Y-106264400D01*
X101458300Y-106264400D02*
X105018300Y-106264400D01*
X106538300Y-106264400D02*
X109648300Y-106264400D01*
X81708300Y-129064060D02*
X81708300Y-123864060D01*
X73968300Y-129064060D02*
X73968300Y-123864060D01*
X81138300Y-130504060D02*
X81138300Y-129064060D01*
X81708300Y-129064060D02*
X81138300Y-129064060D01*
X81708300Y-123864060D02*
X81138300Y-123864060D01*
X74538300Y-129064060D02*
X73968300Y-129064060D01*
X74538300Y-123864060D02*
X73968300Y-123864060D01*
X79618300Y-129064060D02*
X78598300Y-129064060D01*
X79618300Y-123864060D02*
X78598300Y-123864060D01*
X77078300Y-129064060D02*
X76058300Y-129064060D01*
X77078300Y-123864060D02*
X76058300Y-123864060D01*
D11*
X82580680Y-125654536D02*
X83294966Y-125654536D01*
X83437823Y-125606917D01*
X83533061Y-125511679D01*
X83580680Y-125368821D01*
X83580680Y-125273583D01*
X82675919Y-126083107D02*
X82628300Y-126130726D01*
X82580680Y-126225964D01*
X82580680Y-126464060D01*
X82628300Y-126559298D01*
X82675919Y-126606917D01*
X82771157Y-126654536D01*
X82866395Y-126654536D01*
X83009252Y-126606917D01*
X83580680Y-126035488D01*
X83580680Y-126654536D01*
X82580680Y-127273583D02*
X82580680Y-127368821D01*
X82628300Y-127464060D01*
X82675919Y-127511679D01*
X82771157Y-127559298D01*
X82961633Y-127606917D01*
X83199728Y-127606917D01*
X83390204Y-127559298D01*
X83485442Y-127511679D01*
X83533061Y-127464060D01*
X83580680Y-127368821D01*
X83580680Y-127273583D01*
X83533061Y-127178345D01*
X83485442Y-127130726D01*
X83390204Y-127083107D01*
X83199728Y-127035488D01*
X82961633Y-127035488D01*
X82771157Y-127083107D01*
X82675919Y-127130726D01*
X82628300Y-127178345D01*
X82580680Y-127273583D01*
X92740680Y-107261066D02*
X93454966Y-107261066D01*
X93597823Y-107213447D01*
X93693061Y-107118209D01*
X93740680Y-106975352D01*
X93740680Y-106880114D01*
X93740680Y-107784876D02*
X93740680Y-107975352D01*
X93693061Y-108070590D01*
X93645442Y-108118209D01*
X93502585Y-108213447D01*
X93312109Y-108261066D01*
X92931157Y-108261066D01*
X92835919Y-108213447D01*
X92788300Y-108165828D01*
X92740680Y-108070590D01*
X92740680Y-107880114D01*
X92788300Y-107784876D01*
X92835919Y-107737257D01*
X92931157Y-107689638D01*
X93169252Y-107689638D01*
X93264490Y-107737257D01*
X93312109Y-107784876D01*
X93359728Y-107880114D01*
X93359728Y-108070590D01*
X93312109Y-108165828D01*
X93264490Y-108213447D01*
X93169252Y-108261066D01*
X82160680Y-126130726D02*
X82874966Y-126130726D01*
X83017823Y-126083107D01*
X83113061Y-125987869D01*
X83160680Y-125845012D01*
X83160680Y-125749774D01*
X82160680Y-126511679D02*
X82160680Y-127178345D01*
X83160680Y-126749774D01*
M02*
