M48
; DRILL file {KiCad 5.1.2} date Fri 14 Jun 2019 12:32:26 AM PDT
; FORMAT={-:-/ absolute / inch / decimal}
; #@! TF.CreationDate,2019-06-14T00:32:26-07:00
; #@! TF.GenerationSoftware,Kicad,Pcbnew,5.1.2
FMAT,2
INCH
T1C0.0276
T2C0.0295
T3C0.0315
T4C0.0354
T5C0.0394
T6C0.0433
T7C0.0469
%
G90
G05
T1
X5.85Y-5.025
X5.95Y-5.025
X4.4647Y-2.7317
X4.5647Y-2.7317
X3.9147Y-2.7317
X4.0147Y-2.7317
X5.85Y-5.2
X5.95Y-5.2
X3.0897Y-2.9567
X3.1897Y-2.9567
X4.8Y-4.475
X4.9Y-4.475
X5.0147Y-2.7317
X5.1147Y-2.7317
X3.6397Y-2.9567
X3.7397Y-2.9567
X3.3353Y-5.25
X3.4353Y-5.25
X3.375Y-1.725
X3.4457Y-1.7957
X5.85Y-4.85
X5.95Y-4.85
X2.8103Y-5.25
X2.9103Y-5.25
X3.9147Y-2.9567
X4.0147Y-2.9567
X2.2853Y-5.25
X2.3853Y-5.25
X4.7397Y-2.9567
X4.8397Y-2.9567
X4.1897Y-2.7317
X4.2897Y-2.7317
X4.1897Y-2.9567
X4.2897Y-2.9567
X3.6397Y-2.7317
X3.7397Y-2.7317
X4.4647Y-2.9567
X4.5647Y-2.9567
X3.4543Y-1.65
X3.525Y-1.7207
X5.0147Y-2.9567
X5.1147Y-2.9567
X4.7293Y-1.7957
X4.8Y-1.725
X4.7423Y-2.7317
X4.8423Y-2.7317
X3.3647Y-2.9567
X3.4647Y-2.9567
X3.0897Y-2.7317
X3.1897Y-2.7317
X3.3647Y-2.7317
X3.4647Y-2.7317
X4.6543Y-1.7207
X4.725Y-1.65
T2
X3.6397Y-2.4817
X3.6897Y-2.4817
X3.7397Y-2.4817
X4.4647Y-2.4817
X4.5147Y-2.4817
X4.5647Y-2.4817
X5.0147Y-2.4817
X5.0647Y-2.4817
X5.1147Y-2.4817
X3.3647Y-2.4817
X3.4147Y-2.4817
X3.4647Y-2.4817
X4.1897Y-2.4817
X4.2397Y-2.4817
X4.2897Y-2.4817
X4.7397Y-2.4817
X4.7897Y-2.4817
X4.8397Y-2.4817
X3.0897Y-2.4817
X3.1397Y-2.4817
X3.1897Y-2.4817
X3.9147Y-2.4817
X3.9647Y-2.4817
X4.0147Y-2.4817
T3
X4.975Y-4.7463
X4.975Y-4.825
X4.7Y-5.0516
X4.7Y-5.15
T4
X4.7397Y-2.2317
X4.8397Y-2.2317
X3.9147Y-2.2317
X4.0147Y-2.2317
X3.6397Y-2.2317
X3.7397Y-2.2317
X3.0897Y-2.2317
X3.1897Y-2.2317
X4.1897Y-2.2317
X4.2897Y-2.2317
X5.0147Y-2.2317
X5.1147Y-2.2317
X4.4647Y-2.2317
X4.5647Y-2.2317
X3.3647Y-2.2317
X3.4647Y-2.2317
T5
X4.475Y-4.475
X4.575Y-4.475
X4.025Y-5.7
X4.025Y-5.8
X4.125Y-5.7
X4.125Y-5.8
X4.225Y-5.7
X4.225Y-5.8
X4.325Y-5.7
X4.325Y-5.8
X4.425Y-5.7
X4.425Y-5.8
X4.525Y-5.7
X4.525Y-5.8
X4.625Y-5.7
X4.625Y-5.8
X4.725Y-5.7
X4.725Y-5.8
X4.825Y-5.7
X4.825Y-5.8
X4.925Y-5.7
X4.925Y-5.8
X5.025Y-5.7
X5.025Y-5.8
X5.125Y-5.7
X5.125Y-5.8
X5.225Y-5.7
X5.225Y-5.8
X5.325Y-5.7
X5.325Y-5.8
X5.425Y-5.7
X5.425Y-5.8
X5.525Y-5.7
X5.525Y-5.8
X5.625Y-5.7
X5.625Y-5.8
X5.725Y-5.7
X5.725Y-5.8
X5.825Y-5.7
X5.825Y-5.8
X5.925Y-5.7
X5.925Y-5.8
X3.05Y-1.175
X3.05Y-1.275
X3.15Y-1.175
X3.15Y-1.275
X3.2629Y-1.5871
X3.3336Y-1.5164
X3.4043Y-1.4457
X3.475Y-1.375
X4.05Y-5.05
X4.05Y-5.15
X4.125Y-5.45
X4.225Y-5.45
X4.325Y-5.45
X4.425Y-5.45
X4.525Y-5.45
X4.625Y-5.45
X4.725Y-5.45
X4.825Y-5.45
X4.925Y-5.45
X5.025Y-5.45
X5.125Y-5.45
X5.225Y-5.45
X5.325Y-5.45
X5.425Y-5.45
X5.525Y-5.45
X5.625Y-5.45
X5.725Y-5.45
X5.825Y-5.45
X3.45Y-3.275
X3.55Y-3.275
X3.65Y-3.275
X3.75Y-3.275
X3.85Y-3.275
X3.95Y-3.275
X4.05Y-3.275
X4.15Y-3.275
X4.25Y-3.275
X4.35Y-3.275
X4.45Y-3.275
X4.55Y-3.275
X4.65Y-3.275
X4.75Y-3.275
X3.1Y-4.0
X3.1Y-4.1
X3.1Y-4.2
X3.65Y-4.45
X3.75Y-4.45
X3.85Y-4.45
X5.1Y-4.0
X5.1Y-4.1
X5.1Y-4.2
X5.525Y-4.825
X5.625Y-4.825
X3.45Y-3.875
X3.55Y-3.875
X3.65Y-3.875
X3.75Y-3.875
X3.85Y-3.875
X3.95Y-3.875
X4.05Y-3.875
X4.15Y-3.875
X4.25Y-3.875
X4.35Y-3.875
X4.45Y-3.875
X4.55Y-3.875
X4.65Y-3.875
X4.75Y-3.875
X3.55Y-4.675
X3.65Y-4.675
X3.75Y-4.675
X4.725Y-1.375
X4.7957Y-1.4457
X4.8664Y-1.5164
X4.9371Y-1.5871
X5.05Y-1.175
X5.05Y-1.275
X5.15Y-1.175
X5.15Y-1.275
T6
X2.7353Y-5.4683
X2.7353Y-5.6455
X2.9912Y-5.4683
X2.9912Y-5.6455
X2.2103Y-5.4683
X2.2103Y-5.6455
X2.4662Y-5.4683
X2.4662Y-5.6455
X3.2603Y-5.4683
X3.2603Y-5.6455
X3.5162Y-5.4683
X3.5162Y-5.6455
T7
X4.2581Y-4.725
X4.325Y-4.725
X4.3919Y-4.725
X4.4589Y-4.725
X4.5258Y-4.725
T0
M30
