%TF.GenerationSoftware,KiCad,Pcbnew,5.1.2*%
%TF.CreationDate,2019-06-26T00:58:13-07:00*%
%TF.ProjectId,tinyfpga-raspi-romi-board,74696e79-6670-4676-912d-72617370692d,rev?*%
%TF.SameCoordinates,Original*%
%TF.FileFunction,Legend,Top*%
%TF.FilePolarity,Positive*%
%FSLAX46Y46*%
G04 Gerber Fmt 4.6, Leading zero omitted, Abs format (unit mm)*
G04 Created by KiCad (PCBNEW 5.1.2) date 2019-06-26 00:58:13*
%MOMM*%
%LPD*%
G04 APERTURE LIST*
%ADD10C,0.150000*%
%ADD11C,0.254000*%
%ADD12C,0.120000*%
%ADD13C,0.240000*%
%ADD14C,0.127000*%
G04 APERTURE END LIST*
D10*
X121007761Y-142184380D02*
X120674428Y-141708190D01*
X120436333Y-142184380D02*
X120436333Y-141184380D01*
X120817285Y-141184380D01*
X120912523Y-141232000D01*
X120960142Y-141279619D01*
X121007761Y-141374857D01*
X121007761Y-141517714D01*
X120960142Y-141612952D01*
X120912523Y-141660571D01*
X120817285Y-141708190D01*
X120436333Y-141708190D01*
X121388714Y-141898666D02*
X121864904Y-141898666D01*
X121293476Y-142184380D02*
X121626809Y-141184380D01*
X121960142Y-142184380D01*
X122245857Y-142136761D02*
X122388714Y-142184380D01*
X122626809Y-142184380D01*
X122722047Y-142136761D01*
X122769666Y-142089142D01*
X122817285Y-141993904D01*
X122817285Y-141898666D01*
X122769666Y-141803428D01*
X122722047Y-141755809D01*
X122626809Y-141708190D01*
X122436333Y-141660571D01*
X122341095Y-141612952D01*
X122293476Y-141565333D01*
X122245857Y-141470095D01*
X122245857Y-141374857D01*
X122293476Y-141279619D01*
X122341095Y-141232000D01*
X122436333Y-141184380D01*
X122674428Y-141184380D01*
X122817285Y-141232000D01*
X123245857Y-142184380D02*
X123245857Y-141184380D01*
X123626809Y-141184380D01*
X123722047Y-141232000D01*
X123769666Y-141279619D01*
X123817285Y-141374857D01*
X123817285Y-141517714D01*
X123769666Y-141612952D01*
X123722047Y-141660571D01*
X123626809Y-141708190D01*
X123245857Y-141708190D01*
X124579190Y-141660571D02*
X124722047Y-141708190D01*
X124769666Y-141755809D01*
X124817285Y-141851047D01*
X124817285Y-141993904D01*
X124769666Y-142089142D01*
X124722047Y-142136761D01*
X124626809Y-142184380D01*
X124245857Y-142184380D01*
X124245857Y-141184380D01*
X124579190Y-141184380D01*
X124674428Y-141232000D01*
X124722047Y-141279619D01*
X124769666Y-141374857D01*
X124769666Y-141470095D01*
X124722047Y-141565333D01*
X124674428Y-141612952D01*
X124579190Y-141660571D01*
X124245857Y-141660571D01*
X125245857Y-141660571D02*
X125579190Y-141660571D01*
X125722047Y-142184380D02*
X125245857Y-142184380D01*
X125245857Y-141184380D01*
X125722047Y-141184380D01*
X126722047Y-142184380D02*
X126388714Y-141708190D01*
X126150619Y-142184380D02*
X126150619Y-141184380D01*
X126531571Y-141184380D01*
X126626809Y-141232000D01*
X126674428Y-141279619D01*
X126722047Y-141374857D01*
X126722047Y-141517714D01*
X126674428Y-141612952D01*
X126626809Y-141660571D01*
X126531571Y-141708190D01*
X126150619Y-141708190D01*
X127722047Y-142184380D02*
X127388714Y-141708190D01*
X127150619Y-142184380D02*
X127150619Y-141184380D01*
X127531571Y-141184380D01*
X127626809Y-141232000D01*
X127674428Y-141279619D01*
X127722047Y-141374857D01*
X127722047Y-141517714D01*
X127674428Y-141612952D01*
X127626809Y-141660571D01*
X127531571Y-141708190D01*
X127150619Y-141708190D01*
X128341095Y-141708190D02*
X128341095Y-142184380D01*
X128007761Y-141184380D02*
X128341095Y-141708190D01*
X128674428Y-141184380D01*
X129769666Y-142184380D02*
X129769666Y-141184380D01*
X130150619Y-141184380D01*
X130245857Y-141232000D01*
X130293476Y-141279619D01*
X130341095Y-141374857D01*
X130341095Y-141517714D01*
X130293476Y-141612952D01*
X130245857Y-141660571D01*
X130150619Y-141708190D01*
X129769666Y-141708190D01*
X130769666Y-142184380D02*
X130769666Y-141184380D01*
X147264380Y-48013333D02*
X146788190Y-48346666D01*
X147264380Y-48584761D02*
X146264380Y-48584761D01*
X146264380Y-48203809D01*
X146312000Y-48108571D01*
X146359619Y-48060952D01*
X146454857Y-48013333D01*
X146597714Y-48013333D01*
X146692952Y-48060952D01*
X146740571Y-48108571D01*
X146788190Y-48203809D01*
X146788190Y-48584761D01*
X146740571Y-47584761D02*
X146740571Y-47251428D01*
X147264380Y-47108571D02*
X147264380Y-47584761D01*
X146264380Y-47584761D01*
X146264380Y-47108571D01*
X146740571Y-46346666D02*
X146740571Y-46680000D01*
X147264380Y-46680000D02*
X146264380Y-46680000D01*
X146264380Y-46203809D01*
X147264380Y-45346666D02*
X147264380Y-45822857D01*
X146264380Y-45822857D01*
X146740571Y-45013333D02*
X146740571Y-44680000D01*
X147264380Y-44537142D02*
X147264380Y-45013333D01*
X146264380Y-45013333D01*
X146264380Y-44537142D01*
X147169142Y-43537142D02*
X147216761Y-43584761D01*
X147264380Y-43727619D01*
X147264380Y-43822857D01*
X147216761Y-43965714D01*
X147121523Y-44060952D01*
X147026285Y-44108571D01*
X146835809Y-44156190D01*
X146692952Y-44156190D01*
X146502476Y-44108571D01*
X146407238Y-44060952D01*
X146312000Y-43965714D01*
X146264380Y-43822857D01*
X146264380Y-43727619D01*
X146312000Y-43584761D01*
X146359619Y-43537142D01*
X146264380Y-43251428D02*
X146264380Y-42680000D01*
X147264380Y-42965714D02*
X146264380Y-42965714D01*
X147359619Y-42584761D02*
X147359619Y-41822857D01*
X147264380Y-41013333D02*
X146788190Y-41346666D01*
X147264380Y-41584761D02*
X146264380Y-41584761D01*
X146264380Y-41203809D01*
X146312000Y-41108571D01*
X146359619Y-41060952D01*
X146454857Y-41013333D01*
X146597714Y-41013333D01*
X146692952Y-41060952D01*
X146740571Y-41108571D01*
X146788190Y-41203809D01*
X146788190Y-41584761D01*
X147264380Y-40584761D02*
X146264380Y-40584761D01*
X146312000Y-39584761D02*
X146264380Y-39680000D01*
X146264380Y-39822857D01*
X146312000Y-39965714D01*
X146407238Y-40060952D01*
X146502476Y-40108571D01*
X146692952Y-40156190D01*
X146835809Y-40156190D01*
X147026285Y-40108571D01*
X147121523Y-40060952D01*
X147216761Y-39965714D01*
X147264380Y-39822857D01*
X147264380Y-39727619D01*
X147216761Y-39584761D01*
X147169142Y-39537142D01*
X146835809Y-39537142D01*
X146835809Y-39727619D01*
X147264380Y-39108571D02*
X146264380Y-39108571D01*
X146740571Y-39108571D02*
X146740571Y-38537142D01*
X147264380Y-38537142D02*
X146264380Y-38537142D01*
X146264380Y-38203809D02*
X146264380Y-37632380D01*
X147264380Y-37918095D02*
X146264380Y-37918095D01*
X61793380Y-47156142D02*
X61317190Y-47489476D01*
X61793380Y-47727571D02*
X60793380Y-47727571D01*
X60793380Y-47346619D01*
X60841000Y-47251380D01*
X60888619Y-47203761D01*
X60983857Y-47156142D01*
X61126714Y-47156142D01*
X61221952Y-47203761D01*
X61269571Y-47251380D01*
X61317190Y-47346619D01*
X61317190Y-47727571D01*
X61269571Y-46727571D02*
X61269571Y-46394238D01*
X61793380Y-46251380D02*
X61793380Y-46727571D01*
X60793380Y-46727571D01*
X60793380Y-46251380D01*
X61269571Y-45489476D02*
X61269571Y-45822809D01*
X61793380Y-45822809D02*
X60793380Y-45822809D01*
X60793380Y-45346619D01*
X61793380Y-44489476D02*
X61793380Y-44965666D01*
X60793380Y-44965666D01*
X61269571Y-44156142D02*
X61269571Y-43822809D01*
X61793380Y-43679952D02*
X61793380Y-44156142D01*
X60793380Y-44156142D01*
X60793380Y-43679952D01*
X61698142Y-42679952D02*
X61745761Y-42727571D01*
X61793380Y-42870428D01*
X61793380Y-42965666D01*
X61745761Y-43108523D01*
X61650523Y-43203761D01*
X61555285Y-43251380D01*
X61364809Y-43299000D01*
X61221952Y-43299000D01*
X61031476Y-43251380D01*
X60936238Y-43203761D01*
X60841000Y-43108523D01*
X60793380Y-42965666D01*
X60793380Y-42870428D01*
X60841000Y-42727571D01*
X60888619Y-42679952D01*
X60793380Y-42394238D02*
X60793380Y-41822809D01*
X61793380Y-42108523D02*
X60793380Y-42108523D01*
X61888619Y-41727571D02*
X61888619Y-40965666D01*
X61793380Y-40251380D02*
X61793380Y-40727571D01*
X60793380Y-40727571D01*
X61269571Y-39918047D02*
X61269571Y-39584714D01*
X61793380Y-39441857D02*
X61793380Y-39918047D01*
X60793380Y-39918047D01*
X60793380Y-39441857D01*
X61269571Y-38679952D02*
X61269571Y-39013285D01*
X61793380Y-39013285D02*
X60793380Y-39013285D01*
X60793380Y-38537095D01*
X60793380Y-38299000D02*
X60793380Y-37727571D01*
X61793380Y-38013285D02*
X60793380Y-38013285D01*
X127294285Y-31900761D02*
X127437142Y-31948380D01*
X127675238Y-31948380D01*
X127770476Y-31900761D01*
X127818095Y-31853142D01*
X127865714Y-31757904D01*
X127865714Y-31662666D01*
X127818095Y-31567428D01*
X127770476Y-31519809D01*
X127675238Y-31472190D01*
X127484761Y-31424571D01*
X127389523Y-31376952D01*
X127341904Y-31329333D01*
X127294285Y-31234095D01*
X127294285Y-31138857D01*
X127341904Y-31043619D01*
X127389523Y-30996000D01*
X127484761Y-30948380D01*
X127722857Y-30948380D01*
X127865714Y-30996000D01*
X128484761Y-30948380D02*
X128675238Y-30948380D01*
X128770476Y-30996000D01*
X128865714Y-31091238D01*
X128913333Y-31281714D01*
X128913333Y-31615047D01*
X128865714Y-31805523D01*
X128770476Y-31900761D01*
X128675238Y-31948380D01*
X128484761Y-31948380D01*
X128389523Y-31900761D01*
X128294285Y-31805523D01*
X128246666Y-31615047D01*
X128246666Y-31281714D01*
X128294285Y-31091238D01*
X128389523Y-30996000D01*
X128484761Y-30948380D01*
X129341904Y-31948380D02*
X129341904Y-30948380D01*
X129913333Y-31948380D01*
X129913333Y-30948380D01*
X130341904Y-31662666D02*
X130818095Y-31662666D01*
X130246666Y-31948380D02*
X130580000Y-30948380D01*
X130913333Y-31948380D01*
X131818095Y-31948380D02*
X131484761Y-31472190D01*
X131246666Y-31948380D02*
X131246666Y-30948380D01*
X131627619Y-30948380D01*
X131722857Y-30996000D01*
X131770476Y-31043619D01*
X131818095Y-31138857D01*
X131818095Y-31281714D01*
X131770476Y-31376952D01*
X131722857Y-31424571D01*
X131627619Y-31472190D01*
X131246666Y-31472190D01*
X132008571Y-32043619D02*
X132770476Y-32043619D01*
X133580000Y-31948380D02*
X133246666Y-31472190D01*
X133008571Y-31948380D02*
X133008571Y-30948380D01*
X133389523Y-30948380D01*
X133484761Y-30996000D01*
X133532380Y-31043619D01*
X133580000Y-31138857D01*
X133580000Y-31281714D01*
X133532380Y-31376952D01*
X133484761Y-31424571D01*
X133389523Y-31472190D01*
X133008571Y-31472190D01*
X134008571Y-31948380D02*
X134008571Y-30948380D01*
X135008571Y-30996000D02*
X134913333Y-30948380D01*
X134770476Y-30948380D01*
X134627619Y-30996000D01*
X134532380Y-31091238D01*
X134484761Y-31186476D01*
X134437142Y-31376952D01*
X134437142Y-31519809D01*
X134484761Y-31710285D01*
X134532380Y-31805523D01*
X134627619Y-31900761D01*
X134770476Y-31948380D01*
X134865714Y-31948380D01*
X135008571Y-31900761D01*
X135056190Y-31853142D01*
X135056190Y-31519809D01*
X134865714Y-31519809D01*
X135484761Y-31948380D02*
X135484761Y-30948380D01*
X135484761Y-31424571D02*
X136056190Y-31424571D01*
X136056190Y-31948380D02*
X136056190Y-30948380D01*
X136389523Y-30948380D02*
X136960952Y-30948380D01*
X136675238Y-31948380D02*
X136675238Y-30948380D01*
X71636476Y-31773761D02*
X71779333Y-31821380D01*
X72017428Y-31821380D01*
X72112666Y-31773761D01*
X72160285Y-31726142D01*
X72207904Y-31630904D01*
X72207904Y-31535666D01*
X72160285Y-31440428D01*
X72112666Y-31392809D01*
X72017428Y-31345190D01*
X71826952Y-31297571D01*
X71731714Y-31249952D01*
X71684095Y-31202333D01*
X71636476Y-31107095D01*
X71636476Y-31011857D01*
X71684095Y-30916619D01*
X71731714Y-30869000D01*
X71826952Y-30821380D01*
X72065047Y-30821380D01*
X72207904Y-30869000D01*
X72826952Y-30821380D02*
X73017428Y-30821380D01*
X73112666Y-30869000D01*
X73207904Y-30964238D01*
X73255523Y-31154714D01*
X73255523Y-31488047D01*
X73207904Y-31678523D01*
X73112666Y-31773761D01*
X73017428Y-31821380D01*
X72826952Y-31821380D01*
X72731714Y-31773761D01*
X72636476Y-31678523D01*
X72588857Y-31488047D01*
X72588857Y-31154714D01*
X72636476Y-30964238D01*
X72731714Y-30869000D01*
X72826952Y-30821380D01*
X73684095Y-31821380D02*
X73684095Y-30821380D01*
X74255523Y-31821380D01*
X74255523Y-30821380D01*
X74684095Y-31535666D02*
X75160285Y-31535666D01*
X74588857Y-31821380D02*
X74922190Y-30821380D01*
X75255523Y-31821380D01*
X76160285Y-31821380D02*
X75826952Y-31345190D01*
X75588857Y-31821380D02*
X75588857Y-30821380D01*
X75969809Y-30821380D01*
X76065047Y-30869000D01*
X76112666Y-30916619D01*
X76160285Y-31011857D01*
X76160285Y-31154714D01*
X76112666Y-31249952D01*
X76065047Y-31297571D01*
X75969809Y-31345190D01*
X75588857Y-31345190D01*
X76350761Y-31916619D02*
X77112666Y-31916619D01*
X77826952Y-31821380D02*
X77350761Y-31821380D01*
X77350761Y-30821380D01*
X78160285Y-31297571D02*
X78493619Y-31297571D01*
X78636476Y-31821380D02*
X78160285Y-31821380D01*
X78160285Y-30821380D01*
X78636476Y-30821380D01*
X79398380Y-31297571D02*
X79065047Y-31297571D01*
X79065047Y-31821380D02*
X79065047Y-30821380D01*
X79541238Y-30821380D01*
X79779333Y-30821380D02*
X80350761Y-30821380D01*
X80065047Y-31821380D02*
X80065047Y-30821380D01*
X136842952Y-57777571D02*
X136509619Y-57777571D01*
X136509619Y-58301380D02*
X136509619Y-57301380D01*
X136985809Y-57301380D01*
X137366761Y-58301380D02*
X137366761Y-57301380D01*
X137747714Y-57301380D01*
X137842952Y-57349000D01*
X137890571Y-57396619D01*
X137938190Y-57491857D01*
X137938190Y-57634714D01*
X137890571Y-57729952D01*
X137842952Y-57777571D01*
X137747714Y-57825190D01*
X137366761Y-57825190D01*
X138890571Y-57349000D02*
X138795333Y-57301380D01*
X138652476Y-57301380D01*
X138509619Y-57349000D01*
X138414380Y-57444238D01*
X138366761Y-57539476D01*
X138319142Y-57729952D01*
X138319142Y-57872809D01*
X138366761Y-58063285D01*
X138414380Y-58158523D01*
X138509619Y-58253761D01*
X138652476Y-58301380D01*
X138747714Y-58301380D01*
X138890571Y-58253761D01*
X138938190Y-58206142D01*
X138938190Y-57872809D01*
X138747714Y-57872809D01*
X139319142Y-58015666D02*
X139795333Y-58015666D01*
X139223904Y-58301380D02*
X139557238Y-57301380D01*
X139890571Y-58301380D01*
X140985809Y-57301380D02*
X140985809Y-58110904D01*
X141033428Y-58206142D01*
X141081047Y-58253761D01*
X141176285Y-58301380D01*
X141366761Y-58301380D01*
X141462000Y-58253761D01*
X141509619Y-58206142D01*
X141557238Y-58110904D01*
X141557238Y-57301380D01*
X141985809Y-58253761D02*
X142128666Y-58301380D01*
X142366761Y-58301380D01*
X142462000Y-58253761D01*
X142509619Y-58206142D01*
X142557238Y-58110904D01*
X142557238Y-58015666D01*
X142509619Y-57920428D01*
X142462000Y-57872809D01*
X142366761Y-57825190D01*
X142176285Y-57777571D01*
X142081047Y-57729952D01*
X142033428Y-57682333D01*
X141985809Y-57587095D01*
X141985809Y-57491857D01*
X142033428Y-57396619D01*
X142081047Y-57349000D01*
X142176285Y-57301380D01*
X142414380Y-57301380D01*
X142557238Y-57349000D01*
X142985809Y-57777571D02*
X143319142Y-57777571D01*
X143462000Y-58301380D02*
X142985809Y-58301380D01*
X142985809Y-57301380D01*
X143462000Y-57301380D01*
X144462000Y-58301380D02*
X144128666Y-57825190D01*
X143890571Y-58301380D02*
X143890571Y-57301380D01*
X144271523Y-57301380D01*
X144366761Y-57349000D01*
X144414380Y-57396619D01*
X144462000Y-57491857D01*
X144462000Y-57634714D01*
X144414380Y-57729952D01*
X144366761Y-57777571D01*
X144271523Y-57825190D01*
X143890571Y-57825190D01*
X137342952Y-59427571D02*
X137485809Y-59475190D01*
X137533428Y-59522809D01*
X137581047Y-59618047D01*
X137581047Y-59760904D01*
X137533428Y-59856142D01*
X137485809Y-59903761D01*
X137390571Y-59951380D01*
X137009619Y-59951380D01*
X137009619Y-58951380D01*
X137342952Y-58951380D01*
X137438190Y-58999000D01*
X137485809Y-59046619D01*
X137533428Y-59141857D01*
X137533428Y-59237095D01*
X137485809Y-59332333D01*
X137438190Y-59379952D01*
X137342952Y-59427571D01*
X137009619Y-59427571D01*
X138009619Y-58951380D02*
X138009619Y-59760904D01*
X138057238Y-59856142D01*
X138104857Y-59903761D01*
X138200095Y-59951380D01*
X138390571Y-59951380D01*
X138485809Y-59903761D01*
X138533428Y-59856142D01*
X138581047Y-59760904D01*
X138581047Y-58951380D01*
X138914380Y-58951380D02*
X139485809Y-58951380D01*
X139200095Y-59951380D02*
X139200095Y-58951380D01*
X139676285Y-58951380D02*
X140247714Y-58951380D01*
X139962000Y-59951380D02*
X139962000Y-58951380D01*
X140771523Y-58951380D02*
X140962000Y-58951380D01*
X141057238Y-58999000D01*
X141152476Y-59094238D01*
X141200095Y-59284714D01*
X141200095Y-59618047D01*
X141152476Y-59808523D01*
X141057238Y-59903761D01*
X140962000Y-59951380D01*
X140771523Y-59951380D01*
X140676285Y-59903761D01*
X140581047Y-59808523D01*
X140533428Y-59618047D01*
X140533428Y-59284714D01*
X140581047Y-59094238D01*
X140676285Y-58999000D01*
X140771523Y-58951380D01*
X141628666Y-59951380D02*
X141628666Y-58951380D01*
X142200095Y-59951380D01*
X142200095Y-58951380D01*
X143962000Y-59951380D02*
X143390571Y-59951380D01*
X143676285Y-59951380D02*
X143676285Y-58951380D01*
X143581047Y-59094238D01*
X143485809Y-59189476D01*
X143390571Y-59237095D01*
X136969952Y-79621571D02*
X136636619Y-79621571D01*
X136636619Y-80145380D02*
X136636619Y-79145380D01*
X137112809Y-79145380D01*
X137493761Y-80145380D02*
X137493761Y-79145380D01*
X137874714Y-79145380D01*
X137969952Y-79193000D01*
X138017571Y-79240619D01*
X138065190Y-79335857D01*
X138065190Y-79478714D01*
X138017571Y-79573952D01*
X137969952Y-79621571D01*
X137874714Y-79669190D01*
X137493761Y-79669190D01*
X139017571Y-79193000D02*
X138922333Y-79145380D01*
X138779476Y-79145380D01*
X138636619Y-79193000D01*
X138541380Y-79288238D01*
X138493761Y-79383476D01*
X138446142Y-79573952D01*
X138446142Y-79716809D01*
X138493761Y-79907285D01*
X138541380Y-80002523D01*
X138636619Y-80097761D01*
X138779476Y-80145380D01*
X138874714Y-80145380D01*
X139017571Y-80097761D01*
X139065190Y-80050142D01*
X139065190Y-79716809D01*
X138874714Y-79716809D01*
X139446142Y-79859666D02*
X139922333Y-79859666D01*
X139350904Y-80145380D02*
X139684238Y-79145380D01*
X140017571Y-80145380D01*
X141112809Y-79145380D02*
X141112809Y-79954904D01*
X141160428Y-80050142D01*
X141208047Y-80097761D01*
X141303285Y-80145380D01*
X141493761Y-80145380D01*
X141589000Y-80097761D01*
X141636619Y-80050142D01*
X141684238Y-79954904D01*
X141684238Y-79145380D01*
X142112809Y-80097761D02*
X142255666Y-80145380D01*
X142493761Y-80145380D01*
X142589000Y-80097761D01*
X142636619Y-80050142D01*
X142684238Y-79954904D01*
X142684238Y-79859666D01*
X142636619Y-79764428D01*
X142589000Y-79716809D01*
X142493761Y-79669190D01*
X142303285Y-79621571D01*
X142208047Y-79573952D01*
X142160428Y-79526333D01*
X142112809Y-79431095D01*
X142112809Y-79335857D01*
X142160428Y-79240619D01*
X142208047Y-79193000D01*
X142303285Y-79145380D01*
X142541380Y-79145380D01*
X142684238Y-79193000D01*
X143112809Y-79621571D02*
X143446142Y-79621571D01*
X143589000Y-80145380D02*
X143112809Y-80145380D01*
X143112809Y-79145380D01*
X143589000Y-79145380D01*
X144589000Y-80145380D02*
X144255666Y-79669190D01*
X144017571Y-80145380D02*
X144017571Y-79145380D01*
X144398523Y-79145380D01*
X144493761Y-79193000D01*
X144541380Y-79240619D01*
X144589000Y-79335857D01*
X144589000Y-79478714D01*
X144541380Y-79573952D01*
X144493761Y-79621571D01*
X144398523Y-79669190D01*
X144017571Y-79669190D01*
X137469952Y-81271571D02*
X137612809Y-81319190D01*
X137660428Y-81366809D01*
X137708047Y-81462047D01*
X137708047Y-81604904D01*
X137660428Y-81700142D01*
X137612809Y-81747761D01*
X137517571Y-81795380D01*
X137136619Y-81795380D01*
X137136619Y-80795380D01*
X137469952Y-80795380D01*
X137565190Y-80843000D01*
X137612809Y-80890619D01*
X137660428Y-80985857D01*
X137660428Y-81081095D01*
X137612809Y-81176333D01*
X137565190Y-81223952D01*
X137469952Y-81271571D01*
X137136619Y-81271571D01*
X138136619Y-80795380D02*
X138136619Y-81604904D01*
X138184238Y-81700142D01*
X138231857Y-81747761D01*
X138327095Y-81795380D01*
X138517571Y-81795380D01*
X138612809Y-81747761D01*
X138660428Y-81700142D01*
X138708047Y-81604904D01*
X138708047Y-80795380D01*
X139041380Y-80795380D02*
X139612809Y-80795380D01*
X139327095Y-81795380D02*
X139327095Y-80795380D01*
X139803285Y-80795380D02*
X140374714Y-80795380D01*
X140089000Y-81795380D02*
X140089000Y-80795380D01*
X140898523Y-80795380D02*
X141089000Y-80795380D01*
X141184238Y-80843000D01*
X141279476Y-80938238D01*
X141327095Y-81128714D01*
X141327095Y-81462047D01*
X141279476Y-81652523D01*
X141184238Y-81747761D01*
X141089000Y-81795380D01*
X140898523Y-81795380D01*
X140803285Y-81747761D01*
X140708047Y-81652523D01*
X140660428Y-81462047D01*
X140660428Y-81128714D01*
X140708047Y-80938238D01*
X140803285Y-80843000D01*
X140898523Y-80795380D01*
X141755666Y-81795380D02*
X141755666Y-80795380D01*
X142327095Y-81795380D01*
X142327095Y-80795380D01*
X143755666Y-80795380D02*
X143850904Y-80795380D01*
X143946142Y-80843000D01*
X143993761Y-80890619D01*
X144041380Y-80985857D01*
X144089000Y-81176333D01*
X144089000Y-81414428D01*
X144041380Y-81604904D01*
X143993761Y-81700142D01*
X143946142Y-81747761D01*
X143850904Y-81795380D01*
X143755666Y-81795380D01*
X143660428Y-81747761D01*
X143612809Y-81700142D01*
X143565190Y-81604904D01*
X143517571Y-81414428D01*
X143517571Y-81176333D01*
X143565190Y-80985857D01*
X143612809Y-80890619D01*
X143660428Y-80843000D01*
X143755666Y-80795380D01*
X61650952Y-142073380D02*
X61174761Y-142073380D01*
X61127142Y-142549571D01*
X61174761Y-142501952D01*
X61270000Y-142454333D01*
X61508095Y-142454333D01*
X61603333Y-142501952D01*
X61650952Y-142549571D01*
X61698571Y-142644809D01*
X61698571Y-142882904D01*
X61650952Y-142978142D01*
X61603333Y-143025761D01*
X61508095Y-143073380D01*
X61270000Y-143073380D01*
X61174761Y-143025761D01*
X61127142Y-142978142D01*
X61984285Y-142073380D02*
X62317619Y-143073380D01*
X62650952Y-142073380D01*
X63746190Y-143073380D02*
X63746190Y-142073380D01*
X64127142Y-142073380D01*
X64222380Y-142121000D01*
X64270000Y-142168619D01*
X64317619Y-142263857D01*
X64317619Y-142406714D01*
X64270000Y-142501952D01*
X64222380Y-142549571D01*
X64127142Y-142597190D01*
X63746190Y-142597190D01*
X64936666Y-142073380D02*
X65127142Y-142073380D01*
X65222380Y-142121000D01*
X65317619Y-142216238D01*
X65365238Y-142406714D01*
X65365238Y-142740047D01*
X65317619Y-142930523D01*
X65222380Y-143025761D01*
X65127142Y-143073380D01*
X64936666Y-143073380D01*
X64841428Y-143025761D01*
X64746190Y-142930523D01*
X64698571Y-142740047D01*
X64698571Y-142406714D01*
X64746190Y-142216238D01*
X64841428Y-142121000D01*
X64936666Y-142073380D01*
X65698571Y-142073380D02*
X65936666Y-143073380D01*
X66127142Y-142359095D01*
X66317619Y-143073380D01*
X66555714Y-142073380D01*
X66936666Y-142549571D02*
X67270000Y-142549571D01*
X67412857Y-143073380D02*
X66936666Y-143073380D01*
X66936666Y-142073380D01*
X67412857Y-142073380D01*
X68412857Y-143073380D02*
X68079523Y-142597190D01*
X67841428Y-143073380D02*
X67841428Y-142073380D01*
X68222380Y-142073380D01*
X68317619Y-142121000D01*
X68365238Y-142168619D01*
X68412857Y-142263857D01*
X68412857Y-142406714D01*
X68365238Y-142501952D01*
X68317619Y-142549571D01*
X68222380Y-142597190D01*
X67841428Y-142597190D01*
X142359809Y-130246380D02*
X142026476Y-129770190D01*
X141788380Y-130246380D02*
X141788380Y-129246380D01*
X142169333Y-129246380D01*
X142264571Y-129294000D01*
X142312190Y-129341619D01*
X142359809Y-129436857D01*
X142359809Y-129579714D01*
X142312190Y-129674952D01*
X142264571Y-129722571D01*
X142169333Y-129770190D01*
X141788380Y-129770190D01*
X142788380Y-130246380D02*
X142788380Y-129246380D01*
X143169333Y-129246380D01*
X143264571Y-129294000D01*
X143312190Y-129341619D01*
X143359809Y-129436857D01*
X143359809Y-129579714D01*
X143312190Y-129674952D01*
X143264571Y-129722571D01*
X143169333Y-129770190D01*
X142788380Y-129770190D01*
X143788380Y-130246380D02*
X143788380Y-129246380D01*
X145026476Y-129246380D02*
X145026476Y-130055904D01*
X145074095Y-130151142D01*
X145121714Y-130198761D01*
X145216952Y-130246380D01*
X145407428Y-130246380D01*
X145502666Y-130198761D01*
X145550285Y-130151142D01*
X145597904Y-130055904D01*
X145597904Y-129246380D01*
X146026476Y-130198761D02*
X146169333Y-130246380D01*
X146407428Y-130246380D01*
X146502666Y-130198761D01*
X146550285Y-130151142D01*
X146597904Y-130055904D01*
X146597904Y-129960666D01*
X146550285Y-129865428D01*
X146502666Y-129817809D01*
X146407428Y-129770190D01*
X146216952Y-129722571D01*
X146121714Y-129674952D01*
X146074095Y-129627333D01*
X146026476Y-129532095D01*
X146026476Y-129436857D01*
X146074095Y-129341619D01*
X146121714Y-129294000D01*
X146216952Y-129246380D01*
X146455047Y-129246380D01*
X146597904Y-129294000D01*
X147026476Y-129722571D02*
X147359809Y-129722571D01*
X147502666Y-130246380D02*
X147026476Y-130246380D01*
X147026476Y-129246380D01*
X147502666Y-129246380D01*
X148502666Y-130246380D02*
X148169333Y-129770190D01*
X147931238Y-130246380D02*
X147931238Y-129246380D01*
X148312190Y-129246380D01*
X148407428Y-129294000D01*
X148455047Y-129341619D01*
X148502666Y-129436857D01*
X148502666Y-129579714D01*
X148455047Y-129674952D01*
X148407428Y-129722571D01*
X148312190Y-129770190D01*
X147931238Y-129770190D01*
X150026476Y-129722571D02*
X150169333Y-129770190D01*
X150216952Y-129817809D01*
X150264571Y-129913047D01*
X150264571Y-130055904D01*
X150216952Y-130151142D01*
X150169333Y-130198761D01*
X150074095Y-130246380D01*
X149693142Y-130246380D01*
X149693142Y-129246380D01*
X150026476Y-129246380D01*
X150121714Y-129294000D01*
X150169333Y-129341619D01*
X150216952Y-129436857D01*
X150216952Y-129532095D01*
X150169333Y-129627333D01*
X150121714Y-129674952D01*
X150026476Y-129722571D01*
X149693142Y-129722571D01*
X150693142Y-129246380D02*
X150693142Y-130055904D01*
X150740761Y-130151142D01*
X150788380Y-130198761D01*
X150883619Y-130246380D01*
X151074095Y-130246380D01*
X151169333Y-130198761D01*
X151216952Y-130151142D01*
X151264571Y-130055904D01*
X151264571Y-129246380D01*
X151597904Y-129246380D02*
X152169333Y-129246380D01*
X151883619Y-130246380D02*
X151883619Y-129246380D01*
X152359809Y-129246380D02*
X152931238Y-129246380D01*
X152645523Y-130246380D02*
X152645523Y-129246380D01*
X153455047Y-129246380D02*
X153645523Y-129246380D01*
X153740761Y-129294000D01*
X153836000Y-129389238D01*
X153883619Y-129579714D01*
X153883619Y-129913047D01*
X153836000Y-130103523D01*
X153740761Y-130198761D01*
X153645523Y-130246380D01*
X153455047Y-130246380D01*
X153359809Y-130198761D01*
X153264571Y-130103523D01*
X153216952Y-129913047D01*
X153216952Y-129579714D01*
X153264571Y-129389238D01*
X153359809Y-129294000D01*
X153455047Y-129246380D01*
X154312190Y-130246380D02*
X154312190Y-129246380D01*
X154883619Y-130246380D01*
X154883619Y-129246380D01*
X121738000Y-134247380D02*
X121738000Y-133247380D01*
X121976095Y-133247380D01*
X122118952Y-133295000D01*
X122214190Y-133390238D01*
X122261809Y-133485476D01*
X122309428Y-133675952D01*
X122309428Y-133818809D01*
X122261809Y-134009285D01*
X122214190Y-134104523D01*
X122118952Y-134199761D01*
X121976095Y-134247380D01*
X121738000Y-134247380D01*
X122738000Y-133723571D02*
X123071333Y-133723571D01*
X123214190Y-134247380D02*
X122738000Y-134247380D01*
X122738000Y-133247380D01*
X123214190Y-133247380D01*
X123499904Y-133247380D02*
X123833238Y-134247380D01*
X124166571Y-133247380D01*
X124499904Y-134247380D02*
X124499904Y-133247380D01*
X125547523Y-134152142D02*
X125499904Y-134199761D01*
X125357047Y-134247380D01*
X125261809Y-134247380D01*
X125118952Y-134199761D01*
X125023714Y-134104523D01*
X124976095Y-134009285D01*
X124928476Y-133818809D01*
X124928476Y-133675952D01*
X124976095Y-133485476D01*
X125023714Y-133390238D01*
X125118952Y-133295000D01*
X125261809Y-133247380D01*
X125357047Y-133247380D01*
X125499904Y-133295000D01*
X125547523Y-133342619D01*
X125976095Y-133723571D02*
X126309428Y-133723571D01*
X126452285Y-134247380D02*
X125976095Y-134247380D01*
X125976095Y-133247380D01*
X126452285Y-133247380D01*
X127499904Y-133247380D02*
X128071333Y-133247380D01*
X127785619Y-134247380D02*
X127785619Y-133247380D01*
X128976095Y-134247380D02*
X128642761Y-133771190D01*
X128404666Y-134247380D02*
X128404666Y-133247380D01*
X128785619Y-133247380D01*
X128880857Y-133295000D01*
X128928476Y-133342619D01*
X128976095Y-133437857D01*
X128976095Y-133580714D01*
X128928476Y-133675952D01*
X128880857Y-133723571D01*
X128785619Y-133771190D01*
X128404666Y-133771190D01*
X129404666Y-133723571D02*
X129738000Y-133723571D01*
X129880857Y-134247380D02*
X129404666Y-134247380D01*
X129404666Y-133247380D01*
X129880857Y-133247380D01*
X130309428Y-133723571D02*
X130642761Y-133723571D01*
X130785619Y-134247380D02*
X130309428Y-134247380D01*
X130309428Y-133247380D01*
X130785619Y-133247380D01*
X123476095Y-135373571D02*
X123809428Y-135373571D01*
X123952285Y-135897380D02*
X123476095Y-135897380D01*
X123476095Y-134897380D01*
X123952285Y-134897380D01*
X124380857Y-135373571D02*
X124714190Y-135373571D01*
X124857047Y-135897380D02*
X124380857Y-135897380D01*
X124380857Y-134897380D01*
X124857047Y-134897380D01*
X125285619Y-135897380D02*
X125285619Y-134897380D01*
X125666571Y-134897380D01*
X125761809Y-134945000D01*
X125809428Y-134992619D01*
X125857047Y-135087857D01*
X125857047Y-135230714D01*
X125809428Y-135325952D01*
X125761809Y-135373571D01*
X125666571Y-135421190D01*
X125285619Y-135421190D01*
X126857047Y-135897380D02*
X126523714Y-135421190D01*
X126285619Y-135897380D02*
X126285619Y-134897380D01*
X126666571Y-134897380D01*
X126761809Y-134945000D01*
X126809428Y-134992619D01*
X126857047Y-135087857D01*
X126857047Y-135230714D01*
X126809428Y-135325952D01*
X126761809Y-135373571D01*
X126666571Y-135421190D01*
X126285619Y-135421190D01*
X127476095Y-134897380D02*
X127666571Y-134897380D01*
X127761809Y-134945000D01*
X127857047Y-135040238D01*
X127904666Y-135230714D01*
X127904666Y-135564047D01*
X127857047Y-135754523D01*
X127761809Y-135849761D01*
X127666571Y-135897380D01*
X127476095Y-135897380D01*
X127380857Y-135849761D01*
X127285619Y-135754523D01*
X127238000Y-135564047D01*
X127238000Y-135230714D01*
X127285619Y-135040238D01*
X127380857Y-134945000D01*
X127476095Y-134897380D01*
X128333238Y-135897380D02*
X128333238Y-134897380D01*
X128666571Y-135611666D01*
X128999904Y-134897380D01*
X128999904Y-135897380D01*
D11*
X83451095Y-68713047D02*
X83451095Y-66173047D01*
X83451095Y-67382571D02*
X84902523Y-67382571D01*
X84902523Y-68713047D02*
X84902523Y-66173047D01*
X86474904Y-68713047D02*
X86233000Y-68592095D01*
X86112047Y-68471142D01*
X85991095Y-68229238D01*
X85991095Y-67503523D01*
X86112047Y-67261619D01*
X86233000Y-67140666D01*
X86474904Y-67019714D01*
X86837761Y-67019714D01*
X87079666Y-67140666D01*
X87200619Y-67261619D01*
X87321571Y-67503523D01*
X87321571Y-68229238D01*
X87200619Y-68471142D01*
X87079666Y-68592095D01*
X86837761Y-68713047D01*
X86474904Y-68713047D01*
X88410142Y-68713047D02*
X88410142Y-67019714D01*
X88410142Y-67261619D02*
X88531095Y-67140666D01*
X88773000Y-67019714D01*
X89135857Y-67019714D01*
X89377761Y-67140666D01*
X89498714Y-67382571D01*
X89498714Y-68713047D01*
X89498714Y-67382571D02*
X89619666Y-67140666D01*
X89861571Y-67019714D01*
X90224428Y-67019714D01*
X90466333Y-67140666D01*
X90587285Y-67382571D01*
X90587285Y-68713047D01*
X92764428Y-68592095D02*
X92522523Y-68713047D01*
X92038714Y-68713047D01*
X91796809Y-68592095D01*
X91675857Y-68350190D01*
X91675857Y-67382571D01*
X91796809Y-67140666D01*
X92038714Y-67019714D01*
X92522523Y-67019714D01*
X92764428Y-67140666D01*
X92885380Y-67382571D01*
X92885380Y-67624476D01*
X91675857Y-67866380D01*
X93973952Y-68713047D02*
X93973952Y-66173047D01*
X93973952Y-67140666D02*
X94215857Y-67019714D01*
X94699666Y-67019714D01*
X94941571Y-67140666D01*
X95062523Y-67261619D01*
X95183476Y-67503523D01*
X95183476Y-68229238D01*
X95062523Y-68471142D01*
X94941571Y-68592095D01*
X94699666Y-68713047D01*
X94215857Y-68713047D01*
X93973952Y-68592095D01*
X96272047Y-68713047D02*
X96272047Y-67019714D01*
X96272047Y-67503523D02*
X96393000Y-67261619D01*
X96513952Y-67140666D01*
X96755857Y-67019714D01*
X96997761Y-67019714D01*
X98812047Y-68592095D02*
X98570142Y-68713047D01*
X98086333Y-68713047D01*
X97844428Y-68592095D01*
X97723476Y-68350190D01*
X97723476Y-67382571D01*
X97844428Y-67140666D01*
X98086333Y-67019714D01*
X98570142Y-67019714D01*
X98812047Y-67140666D01*
X98933000Y-67382571D01*
X98933000Y-67624476D01*
X97723476Y-67866380D01*
X99779666Y-67019714D02*
X100263476Y-68713047D01*
X100747285Y-67503523D01*
X101231095Y-68713047D01*
X101714904Y-67019714D01*
X104496809Y-67987333D02*
X105706333Y-67987333D01*
X104254904Y-68713047D02*
X105101571Y-66173047D01*
X105948238Y-68713047D01*
X107883476Y-67019714D02*
X107883476Y-68713047D01*
X106794904Y-67019714D02*
X106794904Y-68350190D01*
X106915857Y-68592095D01*
X107157761Y-68713047D01*
X107520619Y-68713047D01*
X107762523Y-68592095D01*
X107883476Y-68471142D01*
X108730142Y-67019714D02*
X109697761Y-67019714D01*
X109093000Y-66173047D02*
X109093000Y-68350190D01*
X109213952Y-68592095D01*
X109455857Y-68713047D01*
X109697761Y-68713047D01*
X110907285Y-68713047D02*
X110665380Y-68592095D01*
X110544428Y-68471142D01*
X110423476Y-68229238D01*
X110423476Y-67503523D01*
X110544428Y-67261619D01*
X110665380Y-67140666D01*
X110907285Y-67019714D01*
X111270142Y-67019714D01*
X111512047Y-67140666D01*
X111633000Y-67261619D01*
X111753952Y-67503523D01*
X111753952Y-68229238D01*
X111633000Y-68471142D01*
X111512047Y-68592095D01*
X111270142Y-68713047D01*
X110907285Y-68713047D01*
X112842523Y-68713047D02*
X112842523Y-67019714D01*
X112842523Y-67261619D02*
X112963476Y-67140666D01*
X113205380Y-67019714D01*
X113568238Y-67019714D01*
X113810142Y-67140666D01*
X113931095Y-67382571D01*
X113931095Y-68713047D01*
X113931095Y-67382571D02*
X114052047Y-67140666D01*
X114293952Y-67019714D01*
X114656809Y-67019714D01*
X114898714Y-67140666D01*
X115019666Y-67382571D01*
X115019666Y-68713047D01*
X117317761Y-68713047D02*
X117317761Y-67382571D01*
X117196809Y-67140666D01*
X116954904Y-67019714D01*
X116471095Y-67019714D01*
X116229190Y-67140666D01*
X117317761Y-68592095D02*
X117075857Y-68713047D01*
X116471095Y-68713047D01*
X116229190Y-68592095D01*
X116108238Y-68350190D01*
X116108238Y-68108285D01*
X116229190Y-67866380D01*
X116471095Y-67745428D01*
X117075857Y-67745428D01*
X117317761Y-67624476D01*
X118164428Y-67019714D02*
X119132047Y-67019714D01*
X118527285Y-66173047D02*
X118527285Y-68350190D01*
X118648238Y-68592095D01*
X118890142Y-68713047D01*
X119132047Y-68713047D01*
X119978714Y-68713047D02*
X119978714Y-67019714D01*
X119978714Y-66173047D02*
X119857761Y-66294000D01*
X119978714Y-66414952D01*
X120099666Y-66294000D01*
X119978714Y-66173047D01*
X119978714Y-66414952D01*
X121551095Y-68713047D02*
X121309190Y-68592095D01*
X121188238Y-68471142D01*
X121067285Y-68229238D01*
X121067285Y-67503523D01*
X121188238Y-67261619D01*
X121309190Y-67140666D01*
X121551095Y-67019714D01*
X121913952Y-67019714D01*
X122155857Y-67140666D01*
X122276809Y-67261619D01*
X122397761Y-67503523D01*
X122397761Y-68229238D01*
X122276809Y-68471142D01*
X122155857Y-68592095D01*
X121913952Y-68713047D01*
X121551095Y-68713047D01*
X123486333Y-67019714D02*
X123486333Y-68713047D01*
X123486333Y-67261619D02*
X123607285Y-67140666D01*
X123849190Y-67019714D01*
X124212047Y-67019714D01*
X124453952Y-67140666D01*
X124574904Y-67382571D01*
X124574904Y-68713047D01*
X86777285Y-72777047D02*
X85930619Y-71567523D01*
X85325857Y-72777047D02*
X85325857Y-70237047D01*
X86293476Y-70237047D01*
X86535380Y-70358000D01*
X86656333Y-70478952D01*
X86777285Y-70720857D01*
X86777285Y-71083714D01*
X86656333Y-71325619D01*
X86535380Y-71446571D01*
X86293476Y-71567523D01*
X85325857Y-71567523D01*
X88228714Y-72777047D02*
X87986809Y-72656095D01*
X87865857Y-72535142D01*
X87744904Y-72293238D01*
X87744904Y-71567523D01*
X87865857Y-71325619D01*
X87986809Y-71204666D01*
X88228714Y-71083714D01*
X88591571Y-71083714D01*
X88833476Y-71204666D01*
X88954428Y-71325619D01*
X89075380Y-71567523D01*
X89075380Y-72293238D01*
X88954428Y-72535142D01*
X88833476Y-72656095D01*
X88591571Y-72777047D01*
X88228714Y-72777047D01*
X90163952Y-72777047D02*
X90163952Y-71083714D01*
X90163952Y-71325619D02*
X90284904Y-71204666D01*
X90526809Y-71083714D01*
X90889666Y-71083714D01*
X91131571Y-71204666D01*
X91252523Y-71446571D01*
X91252523Y-72777047D01*
X91252523Y-71446571D02*
X91373476Y-71204666D01*
X91615380Y-71083714D01*
X91978238Y-71083714D01*
X92220142Y-71204666D01*
X92341095Y-71446571D01*
X92341095Y-72777047D01*
X93550619Y-72777047D02*
X93550619Y-71083714D01*
X93550619Y-70237047D02*
X93429666Y-70358000D01*
X93550619Y-70478952D01*
X93671571Y-70358000D01*
X93550619Y-70237047D01*
X93550619Y-70478952D01*
X96574428Y-72051333D02*
X97783952Y-72051333D01*
X96332523Y-72777047D02*
X97179190Y-70237047D01*
X98025857Y-72777047D01*
X99961095Y-72777047D02*
X99961095Y-70237047D01*
X99961095Y-72656095D02*
X99719190Y-72777047D01*
X99235380Y-72777047D01*
X98993476Y-72656095D01*
X98872523Y-72535142D01*
X98751571Y-72293238D01*
X98751571Y-71567523D01*
X98872523Y-71325619D01*
X98993476Y-71204666D01*
X99235380Y-71083714D01*
X99719190Y-71083714D01*
X99961095Y-71204666D01*
X102259190Y-72777047D02*
X102259190Y-71446571D01*
X102138238Y-71204666D01*
X101896333Y-71083714D01*
X101412523Y-71083714D01*
X101170619Y-71204666D01*
X102259190Y-72656095D02*
X102017285Y-72777047D01*
X101412523Y-72777047D01*
X101170619Y-72656095D01*
X101049666Y-72414190D01*
X101049666Y-72172285D01*
X101170619Y-71930380D01*
X101412523Y-71809428D01*
X102017285Y-71809428D01*
X102259190Y-71688476D01*
X103468714Y-71083714D02*
X103468714Y-73623714D01*
X103468714Y-71204666D02*
X103710619Y-71083714D01*
X104194428Y-71083714D01*
X104436333Y-71204666D01*
X104557285Y-71325619D01*
X104678238Y-71567523D01*
X104678238Y-72293238D01*
X104557285Y-72535142D01*
X104436333Y-72656095D01*
X104194428Y-72777047D01*
X103710619Y-72777047D01*
X103468714Y-72656095D01*
X105403952Y-71083714D02*
X106371571Y-71083714D01*
X105766809Y-70237047D02*
X105766809Y-72414190D01*
X105887761Y-72656095D01*
X106129666Y-72777047D01*
X106371571Y-72777047D01*
X108185857Y-72656095D02*
X107943952Y-72777047D01*
X107460142Y-72777047D01*
X107218238Y-72656095D01*
X107097285Y-72414190D01*
X107097285Y-71446571D01*
X107218238Y-71204666D01*
X107460142Y-71083714D01*
X107943952Y-71083714D01*
X108185857Y-71204666D01*
X108306809Y-71446571D01*
X108306809Y-71688476D01*
X107097285Y-71930380D01*
X109395380Y-72777047D02*
X109395380Y-71083714D01*
X109395380Y-71567523D02*
X109516333Y-71325619D01*
X109637285Y-71204666D01*
X109879190Y-71083714D01*
X110121095Y-71083714D01*
X113749666Y-71446571D02*
X114112523Y-71567523D01*
X114233476Y-71688476D01*
X114354428Y-71930380D01*
X114354428Y-72293238D01*
X114233476Y-72535142D01*
X114112523Y-72656095D01*
X113870619Y-72777047D01*
X112903000Y-72777047D01*
X112903000Y-70237047D01*
X113749666Y-70237047D01*
X113991571Y-70358000D01*
X114112523Y-70478952D01*
X114233476Y-70720857D01*
X114233476Y-70962761D01*
X114112523Y-71204666D01*
X113991571Y-71325619D01*
X113749666Y-71446571D01*
X112903000Y-71446571D01*
X115805857Y-72777047D02*
X115563952Y-72656095D01*
X115443000Y-72535142D01*
X115322047Y-72293238D01*
X115322047Y-71567523D01*
X115443000Y-71325619D01*
X115563952Y-71204666D01*
X115805857Y-71083714D01*
X116168714Y-71083714D01*
X116410619Y-71204666D01*
X116531571Y-71325619D01*
X116652523Y-71567523D01*
X116652523Y-72293238D01*
X116531571Y-72535142D01*
X116410619Y-72656095D01*
X116168714Y-72777047D01*
X115805857Y-72777047D01*
X118829666Y-72777047D02*
X118829666Y-71446571D01*
X118708714Y-71204666D01*
X118466809Y-71083714D01*
X117983000Y-71083714D01*
X117741095Y-71204666D01*
X118829666Y-72656095D02*
X118587761Y-72777047D01*
X117983000Y-72777047D01*
X117741095Y-72656095D01*
X117620142Y-72414190D01*
X117620142Y-72172285D01*
X117741095Y-71930380D01*
X117983000Y-71809428D01*
X118587761Y-71809428D01*
X118829666Y-71688476D01*
X120039190Y-72777047D02*
X120039190Y-71083714D01*
X120039190Y-71567523D02*
X120160142Y-71325619D01*
X120281095Y-71204666D01*
X120523000Y-71083714D01*
X120764904Y-71083714D01*
X122700142Y-72777047D02*
X122700142Y-70237047D01*
X122700142Y-72656095D02*
X122458238Y-72777047D01*
X121974428Y-72777047D01*
X121732523Y-72656095D01*
X121611571Y-72535142D01*
X121490619Y-72293238D01*
X121490619Y-71567523D01*
X121611571Y-71325619D01*
X121732523Y-71204666D01*
X121974428Y-71083714D01*
X122458238Y-71083714D01*
X122700142Y-71204666D01*
X90163952Y-76841047D02*
X89317285Y-75631523D01*
X88712523Y-76841047D02*
X88712523Y-74301047D01*
X89680142Y-74301047D01*
X89922047Y-74422000D01*
X90043000Y-74542952D01*
X90163952Y-74784857D01*
X90163952Y-75147714D01*
X90043000Y-75389619D01*
X89922047Y-75510571D01*
X89680142Y-75631523D01*
X88712523Y-75631523D01*
X92220142Y-76720095D02*
X91978238Y-76841047D01*
X91494428Y-76841047D01*
X91252523Y-76720095D01*
X91131571Y-76478190D01*
X91131571Y-75510571D01*
X91252523Y-75268666D01*
X91494428Y-75147714D01*
X91978238Y-75147714D01*
X92220142Y-75268666D01*
X92341095Y-75510571D01*
X92341095Y-75752476D01*
X91131571Y-75994380D01*
X93187761Y-75147714D02*
X93792523Y-76841047D01*
X94397285Y-75147714D01*
X95364904Y-76599142D02*
X95485857Y-76720095D01*
X95364904Y-76841047D01*
X95243952Y-76720095D01*
X95364904Y-76599142D01*
X95364904Y-76841047D01*
X98388714Y-76115333D02*
X99598238Y-76115333D01*
X98146809Y-76841047D02*
X98993476Y-74301047D01*
X99840142Y-76841047D01*
X103347761Y-77808666D02*
X103226809Y-77687714D01*
X102984904Y-77324857D01*
X102863952Y-77082952D01*
X102743000Y-76720095D01*
X102622047Y-76115333D01*
X102622047Y-75631523D01*
X102743000Y-75026761D01*
X102863952Y-74663904D01*
X102984904Y-74422000D01*
X103226809Y-74059142D01*
X103347761Y-73938190D01*
X105645857Y-76841047D02*
X104194428Y-76841047D01*
X104920142Y-76841047D02*
X104920142Y-74301047D01*
X104678238Y-74663904D01*
X104436333Y-74905809D01*
X104194428Y-75026761D01*
X106855380Y-76841047D02*
X107339190Y-76841047D01*
X107581095Y-76720095D01*
X107702047Y-76599142D01*
X107943952Y-76236285D01*
X108064904Y-75752476D01*
X108064904Y-74784857D01*
X107943952Y-74542952D01*
X107823000Y-74422000D01*
X107581095Y-74301047D01*
X107097285Y-74301047D01*
X106855380Y-74422000D01*
X106734428Y-74542952D01*
X106613476Y-74784857D01*
X106613476Y-75389619D01*
X106734428Y-75631523D01*
X106855380Y-75752476D01*
X107097285Y-75873428D01*
X107581095Y-75873428D01*
X107823000Y-75752476D01*
X107943952Y-75631523D01*
X108064904Y-75389619D01*
X109637285Y-74301047D02*
X109879190Y-74301047D01*
X110121095Y-74422000D01*
X110242047Y-74542952D01*
X110363000Y-74784857D01*
X110483952Y-75268666D01*
X110483952Y-75873428D01*
X110363000Y-76357238D01*
X110242047Y-76599142D01*
X110121095Y-76720095D01*
X109879190Y-76841047D01*
X109637285Y-76841047D01*
X109395380Y-76720095D01*
X109274428Y-76599142D01*
X109153476Y-76357238D01*
X109032523Y-75873428D01*
X109032523Y-75268666D01*
X109153476Y-74784857D01*
X109274428Y-74542952D01*
X109395380Y-74422000D01*
X109637285Y-74301047D01*
X112661095Y-74301047D02*
X112177285Y-74301047D01*
X111935380Y-74422000D01*
X111814428Y-74542952D01*
X111572523Y-74905809D01*
X111451571Y-75389619D01*
X111451571Y-76357238D01*
X111572523Y-76599142D01*
X111693476Y-76720095D01*
X111935380Y-76841047D01*
X112419190Y-76841047D01*
X112661095Y-76720095D01*
X112782047Y-76599142D01*
X112903000Y-76357238D01*
X112903000Y-75752476D01*
X112782047Y-75510571D01*
X112661095Y-75389619D01*
X112419190Y-75268666D01*
X111935380Y-75268666D01*
X111693476Y-75389619D01*
X111572523Y-75510571D01*
X111451571Y-75752476D01*
X113870619Y-74542952D02*
X113991571Y-74422000D01*
X114233476Y-74301047D01*
X114838238Y-74301047D01*
X115080142Y-74422000D01*
X115201095Y-74542952D01*
X115322047Y-74784857D01*
X115322047Y-75026761D01*
X115201095Y-75389619D01*
X113749666Y-76841047D01*
X115322047Y-76841047D01*
X117499190Y-74301047D02*
X117015380Y-74301047D01*
X116773476Y-74422000D01*
X116652523Y-74542952D01*
X116410619Y-74905809D01*
X116289666Y-75389619D01*
X116289666Y-76357238D01*
X116410619Y-76599142D01*
X116531571Y-76720095D01*
X116773476Y-76841047D01*
X117257285Y-76841047D01*
X117499190Y-76720095D01*
X117620142Y-76599142D01*
X117741095Y-76357238D01*
X117741095Y-75752476D01*
X117620142Y-75510571D01*
X117499190Y-75389619D01*
X117257285Y-75268666D01*
X116773476Y-75268666D01*
X116531571Y-75389619D01*
X116410619Y-75510571D01*
X116289666Y-75752476D01*
X118587761Y-77808666D02*
X118708714Y-77687714D01*
X118950619Y-77324857D01*
X119071571Y-77082952D01*
X119192523Y-76720095D01*
X119313476Y-76115333D01*
X119313476Y-75631523D01*
X119192523Y-75026761D01*
X119071571Y-74663904D01*
X118950619Y-74422000D01*
X118708714Y-74059142D01*
X118587761Y-73938190D01*
D10*
X108767571Y-124221714D02*
X108767571Y-124555047D01*
X109291380Y-124555047D02*
X108291380Y-124555047D01*
X108291380Y-124078857D01*
X109291380Y-123697904D02*
X108291380Y-123697904D01*
X108291380Y-123316952D01*
X108339000Y-123221714D01*
X108386619Y-123174095D01*
X108481857Y-123126476D01*
X108624714Y-123126476D01*
X108719952Y-123174095D01*
X108767571Y-123221714D01*
X108815190Y-123316952D01*
X108815190Y-123697904D01*
X108339000Y-122174095D02*
X108291380Y-122269333D01*
X108291380Y-122412190D01*
X108339000Y-122555047D01*
X108434238Y-122650285D01*
X108529476Y-122697904D01*
X108719952Y-122745523D01*
X108862809Y-122745523D01*
X109053285Y-122697904D01*
X109148523Y-122650285D01*
X109243761Y-122555047D01*
X109291380Y-122412190D01*
X109291380Y-122316952D01*
X109243761Y-122174095D01*
X109196142Y-122126476D01*
X108862809Y-122126476D01*
X108862809Y-122316952D01*
X109005666Y-121745523D02*
X109005666Y-121269333D01*
X109291380Y-121840761D02*
X108291380Y-121507428D01*
X109291380Y-121174095D01*
X114498380Y-123872571D02*
X114022190Y-124205904D01*
X114498380Y-124444000D02*
X113498380Y-124444000D01*
X113498380Y-124063047D01*
X113546000Y-123967809D01*
X113593619Y-123920190D01*
X113688857Y-123872571D01*
X113831714Y-123872571D01*
X113926952Y-123920190D01*
X113974571Y-123967809D01*
X114022190Y-124063047D01*
X114022190Y-124444000D01*
X114498380Y-123444000D02*
X113498380Y-123444000D01*
X113498380Y-123063047D01*
X113546000Y-122967809D01*
X113593619Y-122920190D01*
X113688857Y-122872571D01*
X113831714Y-122872571D01*
X113926952Y-122920190D01*
X113974571Y-122967809D01*
X114022190Y-123063047D01*
X114022190Y-123444000D01*
X114498380Y-122444000D02*
X113498380Y-122444000D01*
X100306571Y-120992380D02*
X100497047Y-120992380D01*
X100592285Y-121040000D01*
X100687523Y-121135238D01*
X100735142Y-121325714D01*
X100735142Y-121659047D01*
X100687523Y-121849523D01*
X100592285Y-121944761D01*
X100497047Y-121992380D01*
X100306571Y-121992380D01*
X100211333Y-121944761D01*
X100116095Y-121849523D01*
X100068476Y-121659047D01*
X100068476Y-121325714D01*
X100116095Y-121135238D01*
X100211333Y-121040000D01*
X100306571Y-120992380D01*
X101163714Y-121992380D02*
X101163714Y-120992380D01*
X101735142Y-121992380D01*
X101735142Y-120992380D01*
X102544666Y-121468571D02*
X102687523Y-121516190D01*
X102735142Y-121563809D01*
X102782761Y-121659047D01*
X102782761Y-121801904D01*
X102735142Y-121897142D01*
X102687523Y-121944761D01*
X102592285Y-121992380D01*
X102211333Y-121992380D01*
X102211333Y-120992380D01*
X102544666Y-120992380D01*
X102639904Y-121040000D01*
X102687523Y-121087619D01*
X102735142Y-121182857D01*
X102735142Y-121278095D01*
X102687523Y-121373333D01*
X102639904Y-121420952D01*
X102544666Y-121468571D01*
X102211333Y-121468571D01*
X103401809Y-120992380D02*
X103592285Y-120992380D01*
X103687523Y-121040000D01*
X103782761Y-121135238D01*
X103830380Y-121325714D01*
X103830380Y-121659047D01*
X103782761Y-121849523D01*
X103687523Y-121944761D01*
X103592285Y-121992380D01*
X103401809Y-121992380D01*
X103306571Y-121944761D01*
X103211333Y-121849523D01*
X103163714Y-121659047D01*
X103163714Y-121325714D01*
X103211333Y-121135238D01*
X103306571Y-121040000D01*
X103401809Y-120992380D01*
X104211333Y-121706666D02*
X104687523Y-121706666D01*
X104116095Y-121992380D02*
X104449428Y-120992380D01*
X104782761Y-121992380D01*
X105687523Y-121992380D02*
X105354190Y-121516190D01*
X105116095Y-121992380D02*
X105116095Y-120992380D01*
X105497047Y-120992380D01*
X105592285Y-121040000D01*
X105639904Y-121087619D01*
X105687523Y-121182857D01*
X105687523Y-121325714D01*
X105639904Y-121420952D01*
X105592285Y-121468571D01*
X105497047Y-121516190D01*
X105116095Y-121516190D01*
X106116095Y-121992380D02*
X106116095Y-120992380D01*
X106354190Y-120992380D01*
X106497047Y-121040000D01*
X106592285Y-121135238D01*
X106639904Y-121230476D01*
X106687523Y-121420952D01*
X106687523Y-121563809D01*
X106639904Y-121754285D01*
X106592285Y-121849523D01*
X106497047Y-121944761D01*
X106354190Y-121992380D01*
X106116095Y-121992380D01*
X101068476Y-123642380D02*
X101068476Y-122642380D01*
X101449428Y-122642380D01*
X101544666Y-122690000D01*
X101592285Y-122737619D01*
X101639904Y-122832857D01*
X101639904Y-122975714D01*
X101592285Y-123070952D01*
X101544666Y-123118571D01*
X101449428Y-123166190D01*
X101068476Y-123166190D01*
X102258952Y-122642380D02*
X102449428Y-122642380D01*
X102544666Y-122690000D01*
X102639904Y-122785238D01*
X102687523Y-122975714D01*
X102687523Y-123309047D01*
X102639904Y-123499523D01*
X102544666Y-123594761D01*
X102449428Y-123642380D01*
X102258952Y-123642380D01*
X102163714Y-123594761D01*
X102068476Y-123499523D01*
X102020857Y-123309047D01*
X102020857Y-122975714D01*
X102068476Y-122785238D01*
X102163714Y-122690000D01*
X102258952Y-122642380D01*
X103020857Y-122642380D02*
X103258952Y-123642380D01*
X103449428Y-122928095D01*
X103639904Y-123642380D01*
X103878000Y-122642380D01*
X104258952Y-123118571D02*
X104592285Y-123118571D01*
X104735142Y-123642380D02*
X104258952Y-123642380D01*
X104258952Y-122642380D01*
X104735142Y-122642380D01*
X105735142Y-123642380D02*
X105401809Y-123166190D01*
X105163714Y-123642380D02*
X105163714Y-122642380D01*
X105544666Y-122642380D01*
X105639904Y-122690000D01*
X105687523Y-122737619D01*
X105735142Y-122832857D01*
X105735142Y-122975714D01*
X105687523Y-123070952D01*
X105639904Y-123118571D01*
X105544666Y-123166190D01*
X105163714Y-123166190D01*
X100901809Y-125244761D02*
X101044666Y-125292380D01*
X101282761Y-125292380D01*
X101378000Y-125244761D01*
X101425619Y-125197142D01*
X101473238Y-125101904D01*
X101473238Y-125006666D01*
X101425619Y-124911428D01*
X101378000Y-124863809D01*
X101282761Y-124816190D01*
X101092285Y-124768571D01*
X100997047Y-124720952D01*
X100949428Y-124673333D01*
X100901809Y-124578095D01*
X100901809Y-124482857D01*
X100949428Y-124387619D01*
X100997047Y-124340000D01*
X101092285Y-124292380D01*
X101330380Y-124292380D01*
X101473238Y-124340000D01*
X101901809Y-124768571D02*
X102235142Y-124768571D01*
X102378000Y-125292380D02*
X101901809Y-125292380D01*
X101901809Y-124292380D01*
X102378000Y-124292380D01*
X103282761Y-125292380D02*
X102806571Y-125292380D01*
X102806571Y-124292380D01*
X103616095Y-124768571D02*
X103949428Y-124768571D01*
X104092285Y-125292380D02*
X103616095Y-125292380D01*
X103616095Y-124292380D01*
X104092285Y-124292380D01*
X105092285Y-125197142D02*
X105044666Y-125244761D01*
X104901809Y-125292380D01*
X104806571Y-125292380D01*
X104663714Y-125244761D01*
X104568476Y-125149523D01*
X104520857Y-125054285D01*
X104473238Y-124863809D01*
X104473238Y-124720952D01*
X104520857Y-124530476D01*
X104568476Y-124435238D01*
X104663714Y-124340000D01*
X104806571Y-124292380D01*
X104901809Y-124292380D01*
X105044666Y-124340000D01*
X105092285Y-124387619D01*
X105378000Y-124292380D02*
X105949428Y-124292380D01*
X105663714Y-125292380D02*
X105663714Y-124292380D01*
X114339619Y-134088571D02*
X114339619Y-134279047D01*
X114292000Y-134374285D01*
X114196761Y-134469523D01*
X114006285Y-134517142D01*
X113672952Y-134517142D01*
X113482476Y-134469523D01*
X113387238Y-134374285D01*
X113339619Y-134279047D01*
X113339619Y-134088571D01*
X113387238Y-133993333D01*
X113482476Y-133898095D01*
X113672952Y-133850476D01*
X114006285Y-133850476D01*
X114196761Y-133898095D01*
X114292000Y-133993333D01*
X114339619Y-134088571D01*
X113339619Y-134945714D02*
X114339619Y-134945714D01*
X113339619Y-135517142D01*
X114339619Y-135517142D01*
X113863428Y-136326666D02*
X113815809Y-136469523D01*
X113768190Y-136517142D01*
X113672952Y-136564761D01*
X113530095Y-136564761D01*
X113434857Y-136517142D01*
X113387238Y-136469523D01*
X113339619Y-136374285D01*
X113339619Y-135993333D01*
X114339619Y-135993333D01*
X114339619Y-136326666D01*
X114292000Y-136421904D01*
X114244380Y-136469523D01*
X114149142Y-136517142D01*
X114053904Y-136517142D01*
X113958666Y-136469523D01*
X113911047Y-136421904D01*
X113863428Y-136326666D01*
X113863428Y-135993333D01*
X114339619Y-137183809D02*
X114339619Y-137374285D01*
X114292000Y-137469523D01*
X114196761Y-137564761D01*
X114006285Y-137612380D01*
X113672952Y-137612380D01*
X113482476Y-137564761D01*
X113387238Y-137469523D01*
X113339619Y-137374285D01*
X113339619Y-137183809D01*
X113387238Y-137088571D01*
X113482476Y-136993333D01*
X113672952Y-136945714D01*
X114006285Y-136945714D01*
X114196761Y-136993333D01*
X114292000Y-137088571D01*
X114339619Y-137183809D01*
X113625333Y-137993333D02*
X113625333Y-138469523D01*
X113339619Y-137898095D02*
X114339619Y-138231428D01*
X113339619Y-138564761D01*
X113339619Y-139469523D02*
X113815809Y-139136190D01*
X113339619Y-138898095D02*
X114339619Y-138898095D01*
X114339619Y-139279047D01*
X114292000Y-139374285D01*
X114244380Y-139421904D01*
X114149142Y-139469523D01*
X114006285Y-139469523D01*
X113911047Y-139421904D01*
X113863428Y-139374285D01*
X113815809Y-139279047D01*
X113815809Y-138898095D01*
X113339619Y-139898095D02*
X114339619Y-139898095D01*
X114339619Y-140136190D01*
X114292000Y-140279047D01*
X114196761Y-140374285D01*
X114101523Y-140421904D01*
X113911047Y-140469523D01*
X113768190Y-140469523D01*
X113577714Y-140421904D01*
X113482476Y-140374285D01*
X113387238Y-140279047D01*
X113339619Y-140136190D01*
X113339619Y-139898095D01*
X108259619Y-134485190D02*
X108735809Y-134151857D01*
X108259619Y-133913761D02*
X109259619Y-133913761D01*
X109259619Y-134294714D01*
X109212000Y-134389952D01*
X109164380Y-134437571D01*
X109069142Y-134485190D01*
X108926285Y-134485190D01*
X108831047Y-134437571D01*
X108783428Y-134389952D01*
X108735809Y-134294714D01*
X108735809Y-133913761D01*
X109259619Y-135104238D02*
X109259619Y-135294714D01*
X109212000Y-135389952D01*
X109116761Y-135485190D01*
X108926285Y-135532809D01*
X108592952Y-135532809D01*
X108402476Y-135485190D01*
X108307238Y-135389952D01*
X108259619Y-135294714D01*
X108259619Y-135104238D01*
X108307238Y-135009000D01*
X108402476Y-134913761D01*
X108592952Y-134866142D01*
X108926285Y-134866142D01*
X109116761Y-134913761D01*
X109212000Y-135009000D01*
X109259619Y-135104238D01*
X108259619Y-135961380D02*
X109259619Y-135961380D01*
X108545333Y-136294714D01*
X109259619Y-136628047D01*
X108259619Y-136628047D01*
X108259619Y-137104238D02*
X109259619Y-137104238D01*
X102282809Y-133057380D02*
X102901857Y-133057380D01*
X102568523Y-133438333D01*
X102711380Y-133438333D01*
X102806619Y-133485952D01*
X102854238Y-133533571D01*
X102901857Y-133628809D01*
X102901857Y-133866904D01*
X102854238Y-133962142D01*
X102806619Y-134009761D01*
X102711380Y-134057380D01*
X102425666Y-134057380D01*
X102330428Y-134009761D01*
X102282809Y-133962142D01*
X103330428Y-133962142D02*
X103378047Y-134009761D01*
X103330428Y-134057380D01*
X103282809Y-134009761D01*
X103330428Y-133962142D01*
X103330428Y-134057380D01*
X103711380Y-133057380D02*
X104330428Y-133057380D01*
X103997095Y-133438333D01*
X104139952Y-133438333D01*
X104235190Y-133485952D01*
X104282809Y-133533571D01*
X104330428Y-133628809D01*
X104330428Y-133866904D01*
X104282809Y-133962142D01*
X104235190Y-134009761D01*
X104139952Y-134057380D01*
X103854238Y-134057380D01*
X103759000Y-134009761D01*
X103711380Y-133962142D01*
X104616142Y-133057380D02*
X104949476Y-134057380D01*
X105282809Y-133057380D01*
X101449476Y-135707380D02*
X101449476Y-134707380D01*
X101830428Y-134707380D01*
X101925666Y-134755000D01*
X101973285Y-134802619D01*
X102020904Y-134897857D01*
X102020904Y-135040714D01*
X101973285Y-135135952D01*
X101925666Y-135183571D01*
X101830428Y-135231190D01*
X101449476Y-135231190D01*
X102639952Y-134707380D02*
X102830428Y-134707380D01*
X102925666Y-134755000D01*
X103020904Y-134850238D01*
X103068523Y-135040714D01*
X103068523Y-135374047D01*
X103020904Y-135564523D01*
X102925666Y-135659761D01*
X102830428Y-135707380D01*
X102639952Y-135707380D01*
X102544714Y-135659761D01*
X102449476Y-135564523D01*
X102401857Y-135374047D01*
X102401857Y-135040714D01*
X102449476Y-134850238D01*
X102544714Y-134755000D01*
X102639952Y-134707380D01*
X103401857Y-134707380D02*
X103639952Y-135707380D01*
X103830428Y-134993095D01*
X104020904Y-135707380D01*
X104259000Y-134707380D01*
X104639952Y-135183571D02*
X104973285Y-135183571D01*
X105116142Y-135707380D02*
X104639952Y-135707380D01*
X104639952Y-134707380D01*
X105116142Y-134707380D01*
X106116142Y-135707380D02*
X105782809Y-135231190D01*
X105544714Y-135707380D02*
X105544714Y-134707380D01*
X105925666Y-134707380D01*
X106020904Y-134755000D01*
X106068523Y-134802619D01*
X106116142Y-134897857D01*
X106116142Y-135040714D01*
X106068523Y-135135952D01*
X106020904Y-135183571D01*
X105925666Y-135231190D01*
X105544714Y-135231190D01*
X101282809Y-137309761D02*
X101425666Y-137357380D01*
X101663761Y-137357380D01*
X101759000Y-137309761D01*
X101806619Y-137262142D01*
X101854238Y-137166904D01*
X101854238Y-137071666D01*
X101806619Y-136976428D01*
X101759000Y-136928809D01*
X101663761Y-136881190D01*
X101473285Y-136833571D01*
X101378047Y-136785952D01*
X101330428Y-136738333D01*
X101282809Y-136643095D01*
X101282809Y-136547857D01*
X101330428Y-136452619D01*
X101378047Y-136405000D01*
X101473285Y-136357380D01*
X101711380Y-136357380D01*
X101854238Y-136405000D01*
X102282809Y-136833571D02*
X102616142Y-136833571D01*
X102759000Y-137357380D02*
X102282809Y-137357380D01*
X102282809Y-136357380D01*
X102759000Y-136357380D01*
X103663761Y-137357380D02*
X103187571Y-137357380D01*
X103187571Y-136357380D01*
X103997095Y-136833571D02*
X104330428Y-136833571D01*
X104473285Y-137357380D02*
X103997095Y-137357380D01*
X103997095Y-136357380D01*
X104473285Y-136357380D01*
X105473285Y-137262142D02*
X105425666Y-137309761D01*
X105282809Y-137357380D01*
X105187571Y-137357380D01*
X105044714Y-137309761D01*
X104949476Y-137214523D01*
X104901857Y-137119285D01*
X104854238Y-136928809D01*
X104854238Y-136785952D01*
X104901857Y-136595476D01*
X104949476Y-136500238D01*
X105044714Y-136405000D01*
X105187571Y-136357380D01*
X105282809Y-136357380D01*
X105425666Y-136405000D01*
X105473285Y-136452619D01*
X105759000Y-136357380D02*
X106330428Y-136357380D01*
X106044714Y-137357380D02*
X106044714Y-136357380D01*
X125928571Y-118084000D02*
X127071428Y-118084000D01*
X126071428Y-118451380D02*
X126309523Y-119451380D01*
X126500000Y-118737095D01*
X126690476Y-119451380D01*
X126928571Y-118451380D01*
X127071428Y-118084000D02*
X128071428Y-118084000D01*
X127309523Y-119451380D02*
X127309523Y-118451380D01*
X127690476Y-118451380D01*
X127785714Y-118499000D01*
X127833333Y-118546619D01*
X127880952Y-118641857D01*
X127880952Y-118784714D01*
X127833333Y-118879952D01*
X127785714Y-118927571D01*
X127690476Y-118975190D01*
X127309523Y-118975190D01*
X60666380Y-136826380D02*
X60666380Y-137302571D01*
X61142571Y-137350190D01*
X61094952Y-137302571D01*
X61047333Y-137207333D01*
X61047333Y-136969238D01*
X61094952Y-136874000D01*
X61142571Y-136826380D01*
X61237809Y-136778761D01*
X61475904Y-136778761D01*
X61571142Y-136826380D01*
X61618761Y-136874000D01*
X61666380Y-136969238D01*
X61666380Y-137207333D01*
X61618761Y-137302571D01*
X61571142Y-137350190D01*
X60666380Y-136493047D02*
X61666380Y-136159714D01*
X60666380Y-135826380D01*
X60666380Y-134540666D02*
X60666380Y-134350190D01*
X60714000Y-134254952D01*
X60809238Y-134159714D01*
X60999714Y-134112095D01*
X61333047Y-134112095D01*
X61523523Y-134159714D01*
X61618761Y-134254952D01*
X61666380Y-134350190D01*
X61666380Y-134540666D01*
X61618761Y-134635904D01*
X61523523Y-134731142D01*
X61333047Y-134778761D01*
X60999714Y-134778761D01*
X60809238Y-134731142D01*
X60714000Y-134635904D01*
X60666380Y-134540666D01*
X61142571Y-133350190D02*
X61142571Y-133683523D01*
X61666380Y-133683523D02*
X60666380Y-133683523D01*
X60666380Y-133207333D01*
X61142571Y-132493047D02*
X61142571Y-132826380D01*
X61666380Y-132826380D02*
X60666380Y-132826380D01*
X60666380Y-132350190D01*
X79217095Y-119103142D02*
X79169476Y-119150761D01*
X79026619Y-119198380D01*
X78931380Y-119198380D01*
X78788523Y-119150761D01*
X78693285Y-119055523D01*
X78645666Y-118960285D01*
X78598047Y-118769809D01*
X78598047Y-118626952D01*
X78645666Y-118436476D01*
X78693285Y-118341238D01*
X78788523Y-118246000D01*
X78931380Y-118198380D01*
X79026619Y-118198380D01*
X79169476Y-118246000D01*
X79217095Y-118293619D01*
X79645666Y-118198380D02*
X79645666Y-119007904D01*
X79693285Y-119103142D01*
X79740904Y-119150761D01*
X79836142Y-119198380D01*
X80026619Y-119198380D01*
X80121857Y-119150761D01*
X80169476Y-119103142D01*
X80217095Y-119007904D01*
X80217095Y-118198380D01*
X80550428Y-118198380D02*
X81121857Y-118198380D01*
X80836142Y-119198380D02*
X80836142Y-118198380D01*
X82788523Y-119198380D02*
X82455190Y-118722190D01*
X82217095Y-119198380D02*
X82217095Y-118198380D01*
X82598047Y-118198380D01*
X82693285Y-118246000D01*
X82740904Y-118293619D01*
X82788523Y-118388857D01*
X82788523Y-118531714D01*
X82740904Y-118626952D01*
X82693285Y-118674571D01*
X82598047Y-118722190D01*
X82217095Y-118722190D01*
X83407571Y-118198380D02*
X83598047Y-118198380D01*
X83693285Y-118246000D01*
X83788523Y-118341238D01*
X83836142Y-118531714D01*
X83836142Y-118865047D01*
X83788523Y-119055523D01*
X83693285Y-119150761D01*
X83598047Y-119198380D01*
X83407571Y-119198380D01*
X83312333Y-119150761D01*
X83217095Y-119055523D01*
X83169476Y-118865047D01*
X83169476Y-118531714D01*
X83217095Y-118341238D01*
X83312333Y-118246000D01*
X83407571Y-118198380D01*
X84264714Y-119198380D02*
X84264714Y-118198380D01*
X84598047Y-118912666D01*
X84931380Y-118198380D01*
X84931380Y-119198380D01*
X85407571Y-119198380D02*
X85407571Y-118198380D01*
X86502809Y-118198380D02*
X86836142Y-119198380D01*
X87169476Y-118198380D01*
X88074238Y-119198380D02*
X87740904Y-118722190D01*
X87502809Y-119198380D02*
X87502809Y-118198380D01*
X87883761Y-118198380D01*
X87979000Y-118246000D01*
X88026619Y-118293619D01*
X88074238Y-118388857D01*
X88074238Y-118531714D01*
X88026619Y-118626952D01*
X87979000Y-118674571D01*
X87883761Y-118722190D01*
X87502809Y-118722190D01*
X88502809Y-118674571D02*
X88836142Y-118674571D01*
X88979000Y-119198380D02*
X88502809Y-119198380D01*
X88502809Y-118198380D01*
X88979000Y-118198380D01*
X89931380Y-118246000D02*
X89836142Y-118198380D01*
X89693285Y-118198380D01*
X89550428Y-118246000D01*
X89455190Y-118341238D01*
X89407571Y-118436476D01*
X89359952Y-118626952D01*
X89359952Y-118769809D01*
X89407571Y-118960285D01*
X89455190Y-119055523D01*
X89550428Y-119150761D01*
X89693285Y-119198380D01*
X89788523Y-119198380D01*
X89931380Y-119150761D01*
X89979000Y-119103142D01*
X89979000Y-118769809D01*
X89788523Y-118769809D01*
X90169476Y-119293619D02*
X90931380Y-119293619D01*
X91121857Y-119150761D02*
X91264714Y-119198380D01*
X91502809Y-119198380D01*
X91598047Y-119150761D01*
X91645666Y-119103142D01*
X91693285Y-119007904D01*
X91693285Y-118912666D01*
X91645666Y-118817428D01*
X91598047Y-118769809D01*
X91502809Y-118722190D01*
X91312333Y-118674571D01*
X91217095Y-118626952D01*
X91169476Y-118579333D01*
X91121857Y-118484095D01*
X91121857Y-118388857D01*
X91169476Y-118293619D01*
X91217095Y-118246000D01*
X91312333Y-118198380D01*
X91550428Y-118198380D01*
X91693285Y-118246000D01*
X92121857Y-118674571D02*
X92455190Y-118674571D01*
X92598047Y-119198380D02*
X92121857Y-119198380D01*
X92121857Y-118198380D01*
X92598047Y-118198380D01*
X92883761Y-118198380D02*
X93455190Y-118198380D01*
X93169476Y-119198380D02*
X93169476Y-118198380D01*
X78645666Y-120324571D02*
X78788523Y-120372190D01*
X78836142Y-120419809D01*
X78883761Y-120515047D01*
X78883761Y-120657904D01*
X78836142Y-120753142D01*
X78788523Y-120800761D01*
X78693285Y-120848380D01*
X78312333Y-120848380D01*
X78312333Y-119848380D01*
X78645666Y-119848380D01*
X78740904Y-119896000D01*
X78788523Y-119943619D01*
X78836142Y-120038857D01*
X78836142Y-120134095D01*
X78788523Y-120229333D01*
X78740904Y-120276952D01*
X78645666Y-120324571D01*
X78312333Y-120324571D01*
X79312333Y-120324571D02*
X79645666Y-120324571D01*
X79788523Y-120848380D02*
X79312333Y-120848380D01*
X79312333Y-119848380D01*
X79788523Y-119848380D01*
X80550428Y-120324571D02*
X80217095Y-120324571D01*
X80217095Y-120848380D02*
X80217095Y-119848380D01*
X80693285Y-119848380D01*
X81264714Y-119848380D02*
X81455190Y-119848380D01*
X81550428Y-119896000D01*
X81645666Y-119991238D01*
X81693285Y-120181714D01*
X81693285Y-120515047D01*
X81645666Y-120705523D01*
X81550428Y-120800761D01*
X81455190Y-120848380D01*
X81264714Y-120848380D01*
X81169476Y-120800761D01*
X81074238Y-120705523D01*
X81026619Y-120515047D01*
X81026619Y-120181714D01*
X81074238Y-119991238D01*
X81169476Y-119896000D01*
X81264714Y-119848380D01*
X82693285Y-120848380D02*
X82359952Y-120372190D01*
X82121857Y-120848380D02*
X82121857Y-119848380D01*
X82502809Y-119848380D01*
X82598047Y-119896000D01*
X82645666Y-119943619D01*
X82693285Y-120038857D01*
X82693285Y-120181714D01*
X82645666Y-120276952D01*
X82598047Y-120324571D01*
X82502809Y-120372190D01*
X82121857Y-120372190D01*
X83121857Y-120324571D02*
X83455190Y-120324571D01*
X83598047Y-120848380D02*
X83121857Y-120848380D01*
X83121857Y-119848380D01*
X83598047Y-119848380D01*
X85359952Y-120753142D02*
X85312333Y-120800761D01*
X85169476Y-120848380D01*
X85074238Y-120848380D01*
X84931380Y-120800761D01*
X84836142Y-120705523D01*
X84788523Y-120610285D01*
X84740904Y-120419809D01*
X84740904Y-120276952D01*
X84788523Y-120086476D01*
X84836142Y-119991238D01*
X84931380Y-119896000D01*
X85074238Y-119848380D01*
X85169476Y-119848380D01*
X85312333Y-119896000D01*
X85359952Y-119943619D01*
X85979000Y-119848380D02*
X86169476Y-119848380D01*
X86264714Y-119896000D01*
X86359952Y-119991238D01*
X86407571Y-120181714D01*
X86407571Y-120515047D01*
X86359952Y-120705523D01*
X86264714Y-120800761D01*
X86169476Y-120848380D01*
X85979000Y-120848380D01*
X85883761Y-120800761D01*
X85788523Y-120705523D01*
X85740904Y-120515047D01*
X85740904Y-120181714D01*
X85788523Y-119991238D01*
X85883761Y-119896000D01*
X85979000Y-119848380D01*
X86836142Y-120848380D02*
X86836142Y-119848380D01*
X87407571Y-120848380D01*
X87407571Y-119848380D01*
X87883761Y-120848380D02*
X87883761Y-119848380D01*
X88455190Y-120848380D01*
X88455190Y-119848380D01*
X88931380Y-120324571D02*
X89264714Y-120324571D01*
X89407571Y-120848380D02*
X88931380Y-120848380D01*
X88931380Y-119848380D01*
X89407571Y-119848380D01*
X90407571Y-120753142D02*
X90359952Y-120800761D01*
X90217095Y-120848380D01*
X90121857Y-120848380D01*
X89978999Y-120800761D01*
X89883761Y-120705523D01*
X89836142Y-120610285D01*
X89788523Y-120419809D01*
X89788523Y-120276952D01*
X89836142Y-120086476D01*
X89883761Y-119991238D01*
X89978999Y-119896000D01*
X90121857Y-119848380D01*
X90217095Y-119848380D01*
X90359952Y-119896000D01*
X90407571Y-119943619D01*
X90693285Y-119848380D02*
X91264714Y-119848380D01*
X90978999Y-120848380D02*
X90978999Y-119848380D01*
X91598047Y-120848380D02*
X91598047Y-119848380D01*
X92074238Y-120848380D02*
X92074238Y-119848380D01*
X92645666Y-120848380D01*
X92645666Y-119848380D01*
X93645666Y-119896000D02*
X93550428Y-119848380D01*
X93407571Y-119848380D01*
X93264714Y-119896000D01*
X93169476Y-119991238D01*
X93121857Y-120086476D01*
X93074238Y-120276952D01*
X93074238Y-120419809D01*
X93121857Y-120610285D01*
X93169476Y-120705523D01*
X93264714Y-120800761D01*
X93407571Y-120848380D01*
X93502809Y-120848380D01*
X93645666Y-120800761D01*
X93693285Y-120753142D01*
X93693285Y-120419809D01*
X93502809Y-120419809D01*
X77621857Y-121498380D02*
X78193285Y-121498380D01*
X77907571Y-122498380D02*
X77907571Y-121498380D01*
X78526619Y-122498380D02*
X78526619Y-121498380D01*
X78526619Y-121974571D02*
X79098047Y-121974571D01*
X79098047Y-122498380D02*
X79098047Y-121498380D01*
X79574238Y-122498380D02*
X79574238Y-121498380D01*
X80002809Y-122450761D02*
X80145666Y-122498380D01*
X80383761Y-122498380D01*
X80479000Y-122450761D01*
X80526619Y-122403142D01*
X80574238Y-122307904D01*
X80574238Y-122212666D01*
X80526619Y-122117428D01*
X80479000Y-122069809D01*
X80383761Y-122022190D01*
X80193285Y-121974571D01*
X80098047Y-121926952D01*
X80050428Y-121879333D01*
X80002809Y-121784095D01*
X80002809Y-121688857D01*
X80050428Y-121593619D01*
X80098047Y-121546000D01*
X80193285Y-121498380D01*
X80431380Y-121498380D01*
X80574238Y-121546000D01*
X82098047Y-121974571D02*
X82240904Y-122022190D01*
X82288523Y-122069809D01*
X82336142Y-122165047D01*
X82336142Y-122307904D01*
X82288523Y-122403142D01*
X82240904Y-122450761D01*
X82145666Y-122498380D01*
X81764714Y-122498380D01*
X81764714Y-121498380D01*
X82098047Y-121498380D01*
X82193285Y-121546000D01*
X82240904Y-121593619D01*
X82288523Y-121688857D01*
X82288523Y-121784095D01*
X82240904Y-121879333D01*
X82193285Y-121926952D01*
X82098047Y-121974571D01*
X81764714Y-121974571D01*
X82955190Y-121498380D02*
X83145666Y-121498380D01*
X83240904Y-121546000D01*
X83336142Y-121641238D01*
X83383761Y-121831714D01*
X83383761Y-122165047D01*
X83336142Y-122355523D01*
X83240904Y-122450761D01*
X83145666Y-122498380D01*
X82955190Y-122498380D01*
X82859952Y-122450761D01*
X82764714Y-122355523D01*
X82717095Y-122165047D01*
X82717095Y-121831714D01*
X82764714Y-121641238D01*
X82859952Y-121546000D01*
X82955190Y-121498380D01*
X83764714Y-122212666D02*
X84240904Y-122212666D01*
X83669476Y-122498380D02*
X84002809Y-121498380D01*
X84336142Y-122498380D01*
X85240904Y-122498380D02*
X84907571Y-122022190D01*
X84669476Y-122498380D02*
X84669476Y-121498380D01*
X85050428Y-121498380D01*
X85145666Y-121546000D01*
X85193285Y-121593619D01*
X85240904Y-121688857D01*
X85240904Y-121831714D01*
X85193285Y-121926952D01*
X85145666Y-121974571D01*
X85050428Y-122022190D01*
X84669476Y-122022190D01*
X85669476Y-122498380D02*
X85669476Y-121498380D01*
X85907571Y-121498380D01*
X86050428Y-121546000D01*
X86145666Y-121641238D01*
X86193285Y-121736476D01*
X86240904Y-121926952D01*
X86240904Y-122069809D01*
X86193285Y-122260285D01*
X86145666Y-122355523D01*
X86050428Y-122450761D01*
X85907571Y-122498380D01*
X85669476Y-122498380D01*
X87288523Y-121498380D02*
X87859952Y-121498380D01*
X87574238Y-122498380D02*
X87574238Y-121498380D01*
X88383761Y-121498380D02*
X88574238Y-121498380D01*
X88669476Y-121546000D01*
X88764714Y-121641238D01*
X88812333Y-121831714D01*
X88812333Y-122165047D01*
X88764714Y-122355523D01*
X88669476Y-122450761D01*
X88574238Y-122498380D01*
X88383761Y-122498380D01*
X88288523Y-122450761D01*
X88193285Y-122355523D01*
X88145666Y-122165047D01*
X88145666Y-121831714D01*
X88193285Y-121641238D01*
X88288523Y-121546000D01*
X88383761Y-121498380D01*
X90336142Y-121974571D02*
X90479000Y-122022190D01*
X90526619Y-122069809D01*
X90574238Y-122165047D01*
X90574238Y-122307904D01*
X90526619Y-122403142D01*
X90479000Y-122450761D01*
X90383761Y-122498380D01*
X90002809Y-122498380D01*
X90002809Y-121498380D01*
X90336142Y-121498380D01*
X90431380Y-121546000D01*
X90479000Y-121593619D01*
X90526619Y-121688857D01*
X90526619Y-121784095D01*
X90479000Y-121879333D01*
X90431380Y-121926952D01*
X90336142Y-121974571D01*
X90002809Y-121974571D01*
X90955190Y-122212666D02*
X91431380Y-122212666D01*
X90859952Y-122498380D02*
X91193285Y-121498380D01*
X91526619Y-122498380D01*
X91812333Y-122450761D02*
X91955190Y-122498380D01*
X92193285Y-122498380D01*
X92288523Y-122450761D01*
X92336142Y-122403142D01*
X92383761Y-122307904D01*
X92383761Y-122212666D01*
X92336142Y-122117428D01*
X92288523Y-122069809D01*
X92193285Y-122022190D01*
X92002809Y-121974571D01*
X91907571Y-121926952D01*
X91859952Y-121879333D01*
X91812333Y-121784095D01*
X91812333Y-121688857D01*
X91859952Y-121593619D01*
X91907571Y-121546000D01*
X92002809Y-121498380D01*
X92240904Y-121498380D01*
X92383761Y-121546000D01*
X92812333Y-121974571D02*
X93145666Y-121974571D01*
X93288523Y-122498380D02*
X92812333Y-122498380D01*
X92812333Y-121498380D01*
X93288523Y-121498380D01*
X93717095Y-122403142D02*
X93764714Y-122450761D01*
X93717095Y-122498380D01*
X93669476Y-122450761D01*
X93717095Y-122403142D01*
X93717095Y-122498380D01*
X93717095Y-122117428D02*
X93669476Y-121546000D01*
X93717095Y-121498380D01*
X93764714Y-121546000D01*
X93717095Y-122117428D01*
X93717095Y-121498380D01*
X94193285Y-122403142D02*
X94240904Y-122450761D01*
X94193285Y-122498380D01*
X94145666Y-122450761D01*
X94193285Y-122403142D01*
X94193285Y-122498380D01*
X94193285Y-122117428D02*
X94145666Y-121546000D01*
X94193285Y-121498380D01*
X94240904Y-121546000D01*
X94193285Y-122117428D01*
X94193285Y-121498380D01*
X81606000Y-147629571D02*
X81272666Y-147629571D01*
X81272666Y-148153380D02*
X81272666Y-147153380D01*
X81748857Y-147153380D01*
X82129809Y-147153380D02*
X82129809Y-147962904D01*
X82177428Y-148058142D01*
X82225047Y-148105761D01*
X82320285Y-148153380D01*
X82510761Y-148153380D01*
X82606000Y-148105761D01*
X82653619Y-148058142D01*
X82701238Y-147962904D01*
X82701238Y-147153380D01*
X83129809Y-148105761D02*
X83272666Y-148153380D01*
X83510761Y-148153380D01*
X83606000Y-148105761D01*
X83653619Y-148058142D01*
X83701238Y-147962904D01*
X83701238Y-147867666D01*
X83653619Y-147772428D01*
X83606000Y-147724809D01*
X83510761Y-147677190D01*
X83320285Y-147629571D01*
X83225047Y-147581952D01*
X83177428Y-147534333D01*
X83129809Y-147439095D01*
X83129809Y-147343857D01*
X83177428Y-147248619D01*
X83225047Y-147201000D01*
X83320285Y-147153380D01*
X83558380Y-147153380D01*
X83701238Y-147201000D01*
X84129809Y-147629571D02*
X84463142Y-147629571D01*
X84606000Y-148153380D02*
X84129809Y-148153380D01*
X84129809Y-147153380D01*
X84606000Y-147153380D01*
X86129809Y-147629571D02*
X86272666Y-147677190D01*
X86320285Y-147724809D01*
X86367904Y-147820047D01*
X86367904Y-147962904D01*
X86320285Y-148058142D01*
X86272666Y-148105761D01*
X86177428Y-148153380D01*
X85796476Y-148153380D01*
X85796476Y-147153380D01*
X86129809Y-147153380D01*
X86225047Y-147201000D01*
X86272666Y-147248619D01*
X86320285Y-147343857D01*
X86320285Y-147439095D01*
X86272666Y-147534333D01*
X86225047Y-147581952D01*
X86129809Y-147629571D01*
X85796476Y-147629571D01*
X86986952Y-147677190D02*
X86986952Y-148153380D01*
X86653619Y-147153380D02*
X86986952Y-147677190D01*
X87320285Y-147153380D01*
X87653619Y-148153380D02*
X87653619Y-147153380D01*
X88034571Y-147153380D01*
X88129809Y-147201000D01*
X88177428Y-147248619D01*
X88225047Y-147343857D01*
X88225047Y-147486714D01*
X88177428Y-147581952D01*
X88129809Y-147629571D01*
X88034571Y-147677190D01*
X87653619Y-147677190D01*
X88606000Y-147867666D02*
X89082190Y-147867666D01*
X88510761Y-148153380D02*
X88844095Y-147153380D01*
X89177428Y-148153380D01*
X89463142Y-148105761D02*
X89606000Y-148153380D01*
X89844095Y-148153380D01*
X89939333Y-148105761D01*
X89986952Y-148058142D01*
X90034571Y-147962904D01*
X90034571Y-147867666D01*
X89986952Y-147772428D01*
X89939333Y-147724809D01*
X89844095Y-147677190D01*
X89653619Y-147629571D01*
X89558380Y-147581952D01*
X89510761Y-147534333D01*
X89463142Y-147439095D01*
X89463142Y-147343857D01*
X89510761Y-147248619D01*
X89558380Y-147201000D01*
X89653619Y-147153380D01*
X89891714Y-147153380D01*
X90034571Y-147201000D01*
X90415523Y-148105761D02*
X90558380Y-148153380D01*
X90796476Y-148153380D01*
X90891714Y-148105761D01*
X90939333Y-148058142D01*
X90986952Y-147962904D01*
X90986952Y-147867666D01*
X90939333Y-147772428D01*
X90891714Y-147724809D01*
X90796476Y-147677190D01*
X90606000Y-147629571D01*
X90510761Y-147581952D01*
X90463142Y-147534333D01*
X90415523Y-147439095D01*
X90415523Y-147343857D01*
X90463142Y-147248619D01*
X90510761Y-147201000D01*
X90606000Y-147153380D01*
X90844095Y-147153380D01*
X90986952Y-147201000D01*
D12*
X88840000Y-90805000D02*
X88840000Y-89475000D01*
X88840000Y-89475000D02*
X90170000Y-89475000D01*
X88840000Y-92075000D02*
X91440000Y-92075000D01*
X91440000Y-92075000D02*
X91440000Y-89475000D01*
X91440000Y-89475000D02*
X96580000Y-89475000D01*
X96580000Y-94675000D02*
X96580000Y-89475000D01*
X88840000Y-94675000D02*
X96580000Y-94675000D01*
X88840000Y-94675000D02*
X88840000Y-92075000D01*
X101540000Y-88265000D02*
X101540000Y-86935000D01*
X101540000Y-86935000D02*
X102870000Y-86935000D01*
X101540000Y-89535000D02*
X104140000Y-89535000D01*
X104140000Y-89535000D02*
X104140000Y-86935000D01*
X104140000Y-86935000D02*
X121980000Y-86935000D01*
X121980000Y-92135000D02*
X121980000Y-86935000D01*
X101540000Y-92135000D02*
X121980000Y-92135000D01*
X101540000Y-92135000D02*
X101540000Y-89535000D01*
X126591380Y-48663180D02*
X126591380Y-51753180D01*
X131651380Y-50208180D02*
G75*
G03X131651380Y-50208180I-2500000J0D01*
G01*
X132141380Y-50208642D02*
G75*
G03X126591380Y-48663350I-2990000J462D01*
G01*
X132141380Y-50207718D02*
G75*
G02X126591380Y-51753010I-2990000J-462D01*
G01*
D13*
X68461000Y-133985000D02*
G75*
G03X68461000Y-133985000I-120000J0D01*
G01*
D14*
X79241000Y-137545000D02*
X68841000Y-137545000D01*
X79241000Y-131445000D02*
X79241000Y-137545000D01*
X68841000Y-131445000D02*
X79241000Y-131445000D01*
X68841000Y-137545000D02*
X68841000Y-131445000D01*
D12*
X92409000Y-138446000D02*
G75*
G03X92409000Y-138446000I-2620000J0D01*
G01*
X90829000Y-138446000D02*
X92369000Y-138446000D01*
X87209000Y-138446000D02*
X88749000Y-138446000D01*
X90829000Y-138406000D02*
X92369000Y-138406000D01*
X87209000Y-138406000D02*
X88749000Y-138406000D01*
X87210000Y-138366000D02*
X88749000Y-138366000D01*
X90829000Y-138366000D02*
X92368000Y-138366000D01*
X87211000Y-138326000D02*
X88749000Y-138326000D01*
X90829000Y-138326000D02*
X92367000Y-138326000D01*
X87213000Y-138286000D02*
X88749000Y-138286000D01*
X90829000Y-138286000D02*
X92365000Y-138286000D01*
X87216000Y-138246000D02*
X88749000Y-138246000D01*
X90829000Y-138246000D02*
X92362000Y-138246000D01*
X87220000Y-138206000D02*
X88749000Y-138206000D01*
X90829000Y-138206000D02*
X92358000Y-138206000D01*
X87224000Y-138166000D02*
X88749000Y-138166000D01*
X90829000Y-138166000D02*
X92354000Y-138166000D01*
X87228000Y-138126000D02*
X88749000Y-138126000D01*
X90829000Y-138126000D02*
X92350000Y-138126000D01*
X87233000Y-138086000D02*
X88749000Y-138086000D01*
X90829000Y-138086000D02*
X92345000Y-138086000D01*
X87239000Y-138046000D02*
X88749000Y-138046000D01*
X90829000Y-138046000D02*
X92339000Y-138046000D01*
X87246000Y-138006000D02*
X88749000Y-138006000D01*
X90829000Y-138006000D02*
X92332000Y-138006000D01*
X87253000Y-137966000D02*
X88749000Y-137966000D01*
X90829000Y-137966000D02*
X92325000Y-137966000D01*
X87261000Y-137926000D02*
X88749000Y-137926000D01*
X90829000Y-137926000D02*
X92317000Y-137926000D01*
X87269000Y-137886000D02*
X88749000Y-137886000D01*
X90829000Y-137886000D02*
X92309000Y-137886000D01*
X87278000Y-137846000D02*
X88749000Y-137846000D01*
X90829000Y-137846000D02*
X92300000Y-137846000D01*
X87288000Y-137806000D02*
X88749000Y-137806000D01*
X90829000Y-137806000D02*
X92290000Y-137806000D01*
X87298000Y-137766000D02*
X88749000Y-137766000D01*
X90829000Y-137766000D02*
X92280000Y-137766000D01*
X87309000Y-137725000D02*
X88749000Y-137725000D01*
X90829000Y-137725000D02*
X92269000Y-137725000D01*
X87321000Y-137685000D02*
X88749000Y-137685000D01*
X90829000Y-137685000D02*
X92257000Y-137685000D01*
X87334000Y-137645000D02*
X88749000Y-137645000D01*
X90829000Y-137645000D02*
X92244000Y-137645000D01*
X87347000Y-137605000D02*
X88749000Y-137605000D01*
X90829000Y-137605000D02*
X92231000Y-137605000D01*
X87361000Y-137565000D02*
X88749000Y-137565000D01*
X90829000Y-137565000D02*
X92217000Y-137565000D01*
X87375000Y-137525000D02*
X88749000Y-137525000D01*
X90829000Y-137525000D02*
X92203000Y-137525000D01*
X87391000Y-137485000D02*
X88749000Y-137485000D01*
X90829000Y-137485000D02*
X92187000Y-137485000D01*
X87407000Y-137445000D02*
X88749000Y-137445000D01*
X90829000Y-137445000D02*
X92171000Y-137445000D01*
X87424000Y-137405000D02*
X88749000Y-137405000D01*
X90829000Y-137405000D02*
X92154000Y-137405000D01*
X87441000Y-137365000D02*
X88749000Y-137365000D01*
X90829000Y-137365000D02*
X92137000Y-137365000D01*
X87460000Y-137325000D02*
X88749000Y-137325000D01*
X90829000Y-137325000D02*
X92118000Y-137325000D01*
X87479000Y-137285000D02*
X88749000Y-137285000D01*
X90829000Y-137285000D02*
X92099000Y-137285000D01*
X87499000Y-137245000D02*
X88749000Y-137245000D01*
X90829000Y-137245000D02*
X92079000Y-137245000D01*
X87521000Y-137205000D02*
X88749000Y-137205000D01*
X90829000Y-137205000D02*
X92057000Y-137205000D01*
X87542000Y-137165000D02*
X88749000Y-137165000D01*
X90829000Y-137165000D02*
X92036000Y-137165000D01*
X87565000Y-137125000D02*
X88749000Y-137125000D01*
X90829000Y-137125000D02*
X92013000Y-137125000D01*
X87589000Y-137085000D02*
X88749000Y-137085000D01*
X90829000Y-137085000D02*
X91989000Y-137085000D01*
X87614000Y-137045000D02*
X88749000Y-137045000D01*
X90829000Y-137045000D02*
X91964000Y-137045000D01*
X87640000Y-137005000D02*
X88749000Y-137005000D01*
X90829000Y-137005000D02*
X91938000Y-137005000D01*
X87667000Y-136965000D02*
X88749000Y-136965000D01*
X90829000Y-136965000D02*
X91911000Y-136965000D01*
X87694000Y-136925000D02*
X88749000Y-136925000D01*
X90829000Y-136925000D02*
X91884000Y-136925000D01*
X87724000Y-136885000D02*
X88749000Y-136885000D01*
X90829000Y-136885000D02*
X91854000Y-136885000D01*
X87754000Y-136845000D02*
X88749000Y-136845000D01*
X90829000Y-136845000D02*
X91824000Y-136845000D01*
X87785000Y-136805000D02*
X88749000Y-136805000D01*
X90829000Y-136805000D02*
X91793000Y-136805000D01*
X87818000Y-136765000D02*
X88749000Y-136765000D01*
X90829000Y-136765000D02*
X91760000Y-136765000D01*
X87852000Y-136725000D02*
X88749000Y-136725000D01*
X90829000Y-136725000D02*
X91726000Y-136725000D01*
X87888000Y-136685000D02*
X88749000Y-136685000D01*
X90829000Y-136685000D02*
X91690000Y-136685000D01*
X87925000Y-136645000D02*
X88749000Y-136645000D01*
X90829000Y-136645000D02*
X91653000Y-136645000D01*
X87963000Y-136605000D02*
X88749000Y-136605000D01*
X90829000Y-136605000D02*
X91615000Y-136605000D01*
X88004000Y-136565000D02*
X88749000Y-136565000D01*
X90829000Y-136565000D02*
X91574000Y-136565000D01*
X88046000Y-136525000D02*
X88749000Y-136525000D01*
X90829000Y-136525000D02*
X91532000Y-136525000D01*
X88090000Y-136485000D02*
X88749000Y-136485000D01*
X90829000Y-136485000D02*
X91488000Y-136485000D01*
X88136000Y-136445000D02*
X88749000Y-136445000D01*
X90829000Y-136445000D02*
X91442000Y-136445000D01*
X88184000Y-136405000D02*
X91394000Y-136405000D01*
X88235000Y-136365000D02*
X91343000Y-136365000D01*
X88289000Y-136325000D02*
X91289000Y-136325000D01*
X88346000Y-136285000D02*
X91232000Y-136285000D01*
X88406000Y-136245000D02*
X91172000Y-136245000D01*
X88470000Y-136205000D02*
X91108000Y-136205000D01*
X88538000Y-136165000D02*
X91040000Y-136165000D01*
X88611000Y-136125000D02*
X90967000Y-136125000D01*
X88691000Y-136085000D02*
X90887000Y-136085000D01*
X88778000Y-136045000D02*
X90800000Y-136045000D01*
X88874000Y-136005000D02*
X90704000Y-136005000D01*
X88984000Y-135965000D02*
X90594000Y-135965000D01*
X89112000Y-135925000D02*
X90466000Y-135925000D01*
X89271000Y-135885000D02*
X90307000Y-135885000D01*
X89505000Y-135845000D02*
X90073000Y-135845000D01*
X88314000Y-141250775D02*
X88314000Y-140750775D01*
X88064000Y-141000775D02*
X88564000Y-141000775D01*
X83593000Y-140443000D02*
X83593000Y-136203000D01*
X86333000Y-140443000D02*
X86333000Y-136203000D01*
X83593000Y-140443000D02*
X84298000Y-140443000D01*
X85628000Y-140443000D02*
X86333000Y-140443000D01*
X83593000Y-136203000D02*
X84298000Y-136203000D01*
X85628000Y-136203000D02*
X86333000Y-136203000D01*
X94370000Y-143190000D02*
X98670000Y-143190000D01*
X98670000Y-143190000D02*
X98670000Y-135890000D01*
X94370000Y-143190000D02*
X94370000Y-135890000D01*
X125156380Y-50207718D02*
G75*
G02X119606380Y-51753010I-2990000J-462D01*
G01*
X125156380Y-50208642D02*
G75*
G03X119606380Y-48663350I-2990000J462D01*
G01*
X124666380Y-50208180D02*
G75*
G03X124666380Y-50208180I-2500000J0D01*
G01*
X119606380Y-48663180D02*
X119606380Y-51753180D01*
X118171380Y-50207718D02*
G75*
G02X112621380Y-51753010I-2990000J-462D01*
G01*
X118171380Y-50208642D02*
G75*
G03X112621380Y-48663350I-2990000J462D01*
G01*
X117681380Y-50208180D02*
G75*
G03X117681380Y-50208180I-2500000J0D01*
G01*
X112621380Y-48663180D02*
X112621380Y-51753180D01*
X105636380Y-48663180D02*
X105636380Y-51753180D01*
X110696380Y-50208180D02*
G75*
G03X110696380Y-50208180I-2500000J0D01*
G01*
X111186380Y-50208642D02*
G75*
G03X105636380Y-48663350I-2990000J462D01*
G01*
X111186380Y-50207718D02*
G75*
G02X105636380Y-51753010I-2990000J-462D01*
G01*
X91666380Y-48663180D02*
X91666380Y-51753180D01*
X96726380Y-50208180D02*
G75*
G03X96726380Y-50208180I-2500000J0D01*
G01*
X97216380Y-50208642D02*
G75*
G03X91666380Y-48663350I-2990000J462D01*
G01*
X97216380Y-50207718D02*
G75*
G02X91666380Y-51753010I-2990000J-462D01*
G01*
X90231380Y-50207718D02*
G75*
G02X84681380Y-51753010I-2990000J-462D01*
G01*
X90231380Y-50208642D02*
G75*
G03X84681380Y-48663350I-2990000J462D01*
G01*
X89741380Y-50208180D02*
G75*
G03X89741380Y-50208180I-2500000J0D01*
G01*
X84681380Y-48663180D02*
X84681380Y-51753180D01*
X98651380Y-48663180D02*
X98651380Y-51753180D01*
X103711380Y-50208180D02*
G75*
G03X103711380Y-50208180I-2500000J0D01*
G01*
X104201380Y-50208642D02*
G75*
G03X98651380Y-48663350I-2990000J462D01*
G01*
X104201380Y-50207718D02*
G75*
G02X98651380Y-51753010I-2990000J-462D01*
G01*
X83246380Y-50207718D02*
G75*
G02X77696380Y-51753010I-2990000J-462D01*
G01*
X83246380Y-50208642D02*
G75*
G03X77696380Y-48663350I-2990000J462D01*
G01*
X82756380Y-50208180D02*
G75*
G03X82756380Y-50208180I-2500000J0D01*
G01*
X77696380Y-48663180D02*
X77696380Y-51753180D01*
X79364252Y-142299000D02*
X76591748Y-142299000D01*
X79364252Y-138879000D02*
X76591748Y-138879000D01*
X88900000Y-84515000D02*
X88900000Y-81855000D01*
X88900000Y-84515000D02*
X121980000Y-84515000D01*
X121980000Y-84515000D02*
X121980000Y-81855000D01*
X88900000Y-81855000D02*
X121980000Y-81855000D01*
X86300000Y-81855000D02*
X87630000Y-81855000D01*
X86300000Y-83185000D02*
X86300000Y-81855000D01*
X86300000Y-98425000D02*
X86300000Y-97095000D01*
X86300000Y-97095000D02*
X87630000Y-97095000D01*
X88900000Y-97095000D02*
X121980000Y-97095000D01*
X121980000Y-99755000D02*
X121980000Y-97095000D01*
X88900000Y-99755000D02*
X121980000Y-99755000D01*
X88900000Y-99755000D02*
X88900000Y-97095000D01*
X101025000Y-157410000D02*
X101025000Y-148780000D01*
X101143095Y-157410000D02*
X101143095Y-148780000D01*
X101261190Y-157410000D02*
X101261190Y-148780000D01*
X101379285Y-157410000D02*
X101379285Y-148780000D01*
X101497380Y-157410000D02*
X101497380Y-148780000D01*
X101615475Y-157410000D02*
X101615475Y-148780000D01*
X101733570Y-157410000D02*
X101733570Y-148780000D01*
X101851665Y-157410000D02*
X101851665Y-148780000D01*
X101969760Y-157410000D02*
X101969760Y-148780000D01*
X102087855Y-157410000D02*
X102087855Y-148780000D01*
X102205950Y-157410000D02*
X102205950Y-148780000D01*
X102324045Y-157410000D02*
X102324045Y-148780000D01*
X102442140Y-157410000D02*
X102442140Y-148780000D01*
X102560235Y-157410000D02*
X102560235Y-148780000D01*
X102678330Y-157410000D02*
X102678330Y-148780000D01*
X102796425Y-157410000D02*
X102796425Y-148780000D01*
X102914520Y-157410000D02*
X102914520Y-148780000D01*
X103032615Y-157410000D02*
X103032615Y-148780000D01*
X103150710Y-157410000D02*
X103150710Y-148780000D01*
X103268805Y-157410000D02*
X103268805Y-148780000D01*
X103386900Y-157410000D02*
X103386900Y-148780000D01*
X101875000Y-148780000D02*
X101875000Y-148370000D01*
X101875000Y-146270000D02*
X101875000Y-145890000D01*
X102595000Y-148780000D02*
X102595000Y-148370000D01*
X102595000Y-146270000D02*
X102595000Y-145890000D01*
X104415000Y-148780000D02*
X104415000Y-148370000D01*
X104415000Y-146270000D02*
X104415000Y-145830000D01*
X105135000Y-148780000D02*
X105135000Y-148370000D01*
X105135000Y-146270000D02*
X105135000Y-145830000D01*
X106955000Y-148780000D02*
X106955000Y-148370000D01*
X106955000Y-146270000D02*
X106955000Y-145830000D01*
X107675000Y-148780000D02*
X107675000Y-148370000D01*
X107675000Y-146270000D02*
X107675000Y-145830000D01*
X109495000Y-148780000D02*
X109495000Y-148370000D01*
X109495000Y-146270000D02*
X109495000Y-145830000D01*
X110215000Y-148780000D02*
X110215000Y-148370000D01*
X110215000Y-146270000D02*
X110215000Y-145830000D01*
X112035000Y-148780000D02*
X112035000Y-148370000D01*
X112035000Y-146270000D02*
X112035000Y-145830000D01*
X112755000Y-148780000D02*
X112755000Y-148370000D01*
X112755000Y-146270000D02*
X112755000Y-145830000D01*
X114575000Y-148780000D02*
X114575000Y-148370000D01*
X114575000Y-146270000D02*
X114575000Y-145830000D01*
X115295000Y-148780000D02*
X115295000Y-148370000D01*
X115295000Y-146270000D02*
X115295000Y-145830000D01*
X117115000Y-148780000D02*
X117115000Y-148370000D01*
X117115000Y-146270000D02*
X117115000Y-145830000D01*
X117835000Y-148780000D02*
X117835000Y-148370000D01*
X117835000Y-146270000D02*
X117835000Y-145830000D01*
X119655000Y-148780000D02*
X119655000Y-148370000D01*
X119655000Y-146270000D02*
X119655000Y-145830000D01*
X120375000Y-148780000D02*
X120375000Y-148370000D01*
X120375000Y-146270000D02*
X120375000Y-145830000D01*
X122195000Y-148780000D02*
X122195000Y-148370000D01*
X122195000Y-146270000D02*
X122195000Y-145830000D01*
X122915000Y-148780000D02*
X122915000Y-148370000D01*
X122915000Y-146270000D02*
X122915000Y-145830000D01*
X124735000Y-148780000D02*
X124735000Y-148370000D01*
X124735000Y-146270000D02*
X124735000Y-145830000D01*
X125455000Y-148780000D02*
X125455000Y-148370000D01*
X125455000Y-146270000D02*
X125455000Y-145830000D01*
X127275000Y-148780000D02*
X127275000Y-148370000D01*
X127275000Y-146270000D02*
X127275000Y-145830000D01*
X127995000Y-148780000D02*
X127995000Y-148370000D01*
X127995000Y-146270000D02*
X127995000Y-145830000D01*
X129815000Y-148780000D02*
X129815000Y-148370000D01*
X129815000Y-146270000D02*
X129815000Y-145830000D01*
X130535000Y-148780000D02*
X130535000Y-148370000D01*
X130535000Y-146270000D02*
X130535000Y-145830000D01*
X132355000Y-148780000D02*
X132355000Y-148370000D01*
X132355000Y-146270000D02*
X132355000Y-145830000D01*
X133075000Y-148780000D02*
X133075000Y-148370000D01*
X133075000Y-146270000D02*
X133075000Y-145830000D01*
X134895000Y-148780000D02*
X134895000Y-148370000D01*
X134895000Y-146270000D02*
X134895000Y-145830000D01*
X135615000Y-148780000D02*
X135615000Y-148370000D01*
X135615000Y-146270000D02*
X135615000Y-145830000D01*
X137435000Y-148780000D02*
X137435000Y-148370000D01*
X137435000Y-146270000D02*
X137435000Y-145830000D01*
X138155000Y-148780000D02*
X138155000Y-148370000D01*
X138155000Y-146270000D02*
X138155000Y-145830000D01*
X139975000Y-148780000D02*
X139975000Y-148370000D01*
X139975000Y-146270000D02*
X139975000Y-145830000D01*
X140695000Y-148780000D02*
X140695000Y-148370000D01*
X140695000Y-146270000D02*
X140695000Y-145830000D01*
X142515000Y-148780000D02*
X142515000Y-148370000D01*
X142515000Y-146270000D02*
X142515000Y-145830000D01*
X143235000Y-148780000D02*
X143235000Y-148370000D01*
X143235000Y-146270000D02*
X143235000Y-145830000D01*
X145055000Y-148780000D02*
X145055000Y-148370000D01*
X145055000Y-146270000D02*
X145055000Y-145830000D01*
X145775000Y-148780000D02*
X145775000Y-148370000D01*
X145775000Y-146270000D02*
X145775000Y-145830000D01*
X147595000Y-148780000D02*
X147595000Y-148370000D01*
X147595000Y-146270000D02*
X147595000Y-145830000D01*
X148315000Y-148780000D02*
X148315000Y-148370000D01*
X148315000Y-146270000D02*
X148315000Y-145830000D01*
X150135000Y-148780000D02*
X150135000Y-148370000D01*
X150135000Y-146270000D02*
X150135000Y-145830000D01*
X150855000Y-148780000D02*
X150855000Y-148370000D01*
X150855000Y-146270000D02*
X150855000Y-145830000D01*
X103505000Y-157410000D02*
X103505000Y-148780000D01*
X106045000Y-157410000D02*
X106045000Y-148780000D01*
X108585000Y-157410000D02*
X108585000Y-148780000D01*
X111125000Y-157410000D02*
X111125000Y-148780000D01*
X113665000Y-157410000D02*
X113665000Y-148780000D01*
X116205000Y-157410000D02*
X116205000Y-148780000D01*
X118745000Y-157410000D02*
X118745000Y-148780000D01*
X121285000Y-157410000D02*
X121285000Y-148780000D01*
X123825000Y-157410000D02*
X123825000Y-148780000D01*
X126365000Y-157410000D02*
X126365000Y-148780000D01*
X128905000Y-157410000D02*
X128905000Y-148780000D01*
X131445000Y-157410000D02*
X131445000Y-148780000D01*
X133985000Y-157410000D02*
X133985000Y-148780000D01*
X136525000Y-157410000D02*
X136525000Y-148780000D01*
X139065000Y-157410000D02*
X139065000Y-148780000D01*
X141605000Y-157410000D02*
X141605000Y-148780000D01*
X144145000Y-157410000D02*
X144145000Y-148780000D01*
X146685000Y-157410000D02*
X146685000Y-148780000D01*
X149225000Y-157410000D02*
X149225000Y-148780000D01*
X100905000Y-157410000D02*
X100905000Y-148780000D01*
X100905000Y-148780000D02*
X151825000Y-148780000D01*
X151825000Y-157410000D02*
X151825000Y-148780000D01*
X100905000Y-157410000D02*
X151825000Y-157410000D01*
X100905000Y-143670000D02*
X102235000Y-143670000D01*
X100905000Y-144780000D02*
X100905000Y-143670000D01*
X80070000Y-105410000D02*
X77410000Y-105410000D01*
X80070000Y-105410000D02*
X80070000Y-100270000D01*
X80070000Y-100270000D02*
X77410000Y-100270000D01*
X77410000Y-105410000D02*
X77410000Y-100270000D01*
X77410000Y-108010000D02*
X77410000Y-106680000D01*
X78740000Y-108010000D02*
X77410000Y-108010000D01*
X129540000Y-100270000D02*
X130870000Y-100270000D01*
X130870000Y-100270000D02*
X130870000Y-101600000D01*
X130870000Y-102870000D02*
X130870000Y-108010000D01*
X128210000Y-108010000D02*
X130870000Y-108010000D01*
X128210000Y-102870000D02*
X128210000Y-108010000D01*
X128210000Y-102870000D02*
X130870000Y-102870000D01*
X115249000Y-130369000D02*
X115249000Y-131699000D01*
X113919000Y-130369000D02*
X115249000Y-130369000D01*
X112649000Y-130369000D02*
X112649000Y-133029000D01*
X112649000Y-133029000D02*
X107509000Y-133029000D01*
X112649000Y-130369000D02*
X107509000Y-130369000D01*
X107509000Y-130369000D02*
X107509000Y-133029000D01*
X107509000Y-125670000D02*
X107509000Y-128330000D01*
X112649000Y-125670000D02*
X107509000Y-125670000D01*
X112649000Y-128330000D02*
X107509000Y-128330000D01*
X112649000Y-125670000D02*
X112649000Y-128330000D01*
X113919000Y-125670000D02*
X115249000Y-125670000D01*
X115249000Y-125670000D02*
X115249000Y-127000000D01*
X127312902Y-54719702D02*
G75*
G03X129151380Y-59158180I1838478J-1838478D01*
G01*
X130989858Y-54719702D02*
G75*
G02X129151380Y-59158180I-1838478J-1838478D01*
G01*
X130951380Y-54708180D02*
X127351380Y-54708180D01*
X123966380Y-54708180D02*
X120366380Y-54708180D01*
X124004858Y-54719702D02*
G75*
G02X122166380Y-59158180I-1838478J-1838478D01*
G01*
X120327902Y-54719702D02*
G75*
G03X122166380Y-59158180I1838478J-1838478D01*
G01*
X116981380Y-54708180D02*
X113381380Y-54708180D01*
X117019858Y-54719702D02*
G75*
G02X115181380Y-59158180I-1838478J-1838478D01*
G01*
X113342902Y-54719702D02*
G75*
G03X115181380Y-59158180I1838478J-1838478D01*
G01*
X109996380Y-54708180D02*
X106396380Y-54708180D01*
X110034858Y-54719702D02*
G75*
G02X108196380Y-59158180I-1838478J-1838478D01*
G01*
X106357902Y-54719702D02*
G75*
G03X108196380Y-59158180I1838478J-1838478D01*
G01*
X96026380Y-54708180D02*
X92426380Y-54708180D01*
X96064858Y-54719702D02*
G75*
G02X94226380Y-59158180I-1838478J-1838478D01*
G01*
X92387902Y-54719702D02*
G75*
G03X94226380Y-59158180I1838478J-1838478D01*
G01*
X85402902Y-54719702D02*
G75*
G03X87241380Y-59158180I1838478J-1838478D01*
G01*
X89079858Y-54719702D02*
G75*
G02X87241380Y-59158180I-1838478J-1838478D01*
G01*
X89041380Y-54708180D02*
X85441380Y-54708180D01*
X99372902Y-54719702D02*
G75*
G03X101211380Y-59158180I1838478J-1838478D01*
G01*
X103049858Y-54719702D02*
G75*
G02X101211380Y-59158180I-1838478J-1838478D01*
G01*
X103011380Y-54708180D02*
X99411380Y-54708180D01*
X78417902Y-54719702D02*
G75*
G03X80256380Y-59158180I1838478J-1838478D01*
G01*
X82094858Y-54719702D02*
G75*
G02X80256380Y-59158180I-1838478J-1838478D01*
G01*
X82056380Y-54708180D02*
X78456380Y-54708180D01*
X133127000Y-130175000D02*
X133747000Y-130175000D01*
X133127000Y-130175000D02*
G75*
G03X133127000Y-130175000I-920000J0D01*
G01*
X133127000Y-127381000D02*
G75*
G03X133127000Y-127381000I-920000J0D01*
G01*
X133127000Y-127381000D02*
X133747000Y-127381000D01*
X131305820Y-41902380D02*
G75*
G03X131305820Y-41902380I-920000J0D01*
G01*
X130385820Y-42822380D02*
X130385820Y-43442380D01*
X82708000Y-135509000D02*
G75*
G03X82708000Y-135509000I-920000J0D01*
G01*
X81788000Y-134589000D02*
X81788000Y-133969000D01*
X124320820Y-41902380D02*
G75*
G03X124320820Y-41902380I-920000J0D01*
G01*
X123400820Y-42822380D02*
X123400820Y-43442380D01*
X128143000Y-42822380D02*
X128143000Y-43442380D01*
X129063000Y-41902380D02*
G75*
G03X129063000Y-41902380I-920000J0D01*
G01*
X122078000Y-41902380D02*
G75*
G03X122078000Y-41902380I-920000J0D01*
G01*
X121158000Y-42822380D02*
X121158000Y-43442380D01*
X117335820Y-41902380D02*
G75*
G03X117335820Y-41902380I-920000J0D01*
G01*
X116415820Y-42822380D02*
X116415820Y-43442380D01*
X68326000Y-38766000D02*
X68326000Y-39386000D01*
X69246000Y-37846000D02*
G75*
G03X69246000Y-37846000I-920000J0D01*
G01*
X137922000Y-38512000D02*
X137922000Y-39132000D01*
X138842000Y-37592000D02*
G75*
G03X138842000Y-37592000I-920000J0D01*
G01*
X110350820Y-41902380D02*
G75*
G03X110350820Y-41902380I-920000J0D01*
G01*
X109430820Y-42822380D02*
X109430820Y-43442380D01*
X114173000Y-42822380D02*
X114173000Y-43442380D01*
X115093000Y-41902380D02*
G75*
G03X115093000Y-41902380I-920000J0D01*
G01*
X107188000Y-42822380D02*
X107188000Y-43442380D01*
X108108000Y-41902380D02*
G75*
G03X108108000Y-41902380I-920000J0D01*
G01*
X96380820Y-41902380D02*
G75*
G03X96380820Y-41902380I-920000J0D01*
G01*
X95460820Y-42822380D02*
X95460820Y-43442380D01*
X86233000Y-42822380D02*
X86233000Y-43442380D01*
X87153000Y-41902380D02*
G75*
G03X87153000Y-41902380I-920000J0D01*
G01*
X94138000Y-41902380D02*
G75*
G03X94138000Y-41902380I-920000J0D01*
G01*
X93218000Y-42822380D02*
X93218000Y-43442380D01*
X89395820Y-41902380D02*
G75*
G03X89395820Y-41902380I-920000J0D01*
G01*
X88475820Y-42822380D02*
X88475820Y-43442380D01*
X103492820Y-41902380D02*
G75*
G03X103492820Y-41902380I-920000J0D01*
G01*
X102572820Y-42822380D02*
X102572820Y-43442380D01*
X80168000Y-41902380D02*
G75*
G03X80168000Y-41902380I-920000J0D01*
G01*
X79248000Y-42822380D02*
X79248000Y-43442380D01*
X100330000Y-42822380D02*
X100330000Y-43442380D01*
X101250000Y-41902380D02*
G75*
G03X101250000Y-41902380I-920000J0D01*
G01*
X82410820Y-41902380D02*
G75*
G03X82410820Y-41902380I-920000J0D01*
G01*
X81490820Y-42822380D02*
X81490820Y-43442380D01*
X133127000Y-124587000D02*
G75*
G03X133127000Y-124587000I-920000J0D01*
G01*
X133127000Y-124587000D02*
X133747000Y-124587000D01*
X71659000Y-40259000D02*
G75*
G03X71659000Y-40259000I-920000J0D01*
G01*
X70739000Y-39339000D02*
X70739000Y-38719000D01*
X140462000Y-39085000D02*
X140462000Y-38465000D01*
X141382000Y-40005000D02*
G75*
G03X141382000Y-40005000I-920000J0D01*
G01*
X142621000Y-125761000D02*
X142621000Y-126381000D01*
X143541000Y-124841000D02*
G75*
G03X143541000Y-124841000I-920000J0D01*
G01*
X132619000Y-77089000D02*
G75*
G03X132619000Y-77089000I-920000J0D01*
G01*
X130779000Y-77089000D02*
X130159000Y-77089000D01*
X130652000Y-72263000D02*
X130032000Y-72263000D01*
X132492000Y-72263000D02*
G75*
G03X132492000Y-72263000I-920000J0D01*
G01*
X152446620Y-121257820D02*
X147946620Y-121257820D01*
X153696620Y-125257820D02*
X153696620Y-123757820D01*
X147946620Y-127757820D02*
X152446620Y-127757820D01*
X146696620Y-123757820D02*
X146696620Y-125257820D01*
X143879380Y-75505180D02*
X143879380Y-74005180D01*
X142629380Y-71505180D02*
X138129380Y-71505180D01*
X136879380Y-74005180D02*
X136879380Y-75505180D01*
X138129380Y-78005180D02*
X142629380Y-78005180D01*
X138129380Y-67337180D02*
X142629380Y-67337180D01*
X136879380Y-63337180D02*
X136879380Y-64837180D01*
X142629380Y-60837180D02*
X138129380Y-60837180D01*
X143879380Y-64837180D02*
X143879380Y-63337180D01*
X125603000Y-129941000D02*
X127553000Y-129941000D01*
X125603000Y-129941000D02*
X123653000Y-129941000D01*
X125603000Y-124821000D02*
X127553000Y-124821000D01*
X125603000Y-124821000D02*
X122153000Y-124821000D01*
X122622000Y-120336000D02*
X122622000Y-122996000D01*
X125222000Y-120336000D02*
X122622000Y-120336000D01*
X125222000Y-122996000D02*
X122622000Y-122996000D01*
X125222000Y-120336000D02*
X125222000Y-122996000D01*
X126492000Y-120336000D02*
X127822000Y-120336000D01*
X127822000Y-120336000D02*
X127822000Y-121666000D01*
X74616000Y-143831000D02*
X74616000Y-146491000D01*
X77216000Y-143831000D02*
X74616000Y-143831000D01*
X77216000Y-146491000D02*
X74616000Y-146491000D01*
X77216000Y-143831000D02*
X77216000Y-146491000D01*
X78486000Y-143831000D02*
X79816000Y-143831000D01*
X79816000Y-143831000D02*
X79816000Y-145161000D01*
X59690000Y-36128000D02*
X58360000Y-36128000D01*
X58360000Y-36128000D02*
X58360000Y-34798000D01*
X60960000Y-36128000D02*
X60960000Y-33528000D01*
X60960000Y-33528000D02*
X58360000Y-33528000D01*
X58360000Y-33528000D02*
X58360000Y-30928000D01*
X63560000Y-30928000D02*
X58360000Y-30928000D01*
X63560000Y-36128000D02*
X63560000Y-30928000D01*
X63560000Y-36128000D02*
X60960000Y-36128000D01*
X149285000Y-36128000D02*
X146685000Y-36128000D01*
X149285000Y-36128000D02*
X149285000Y-30928000D01*
X149285000Y-30928000D02*
X144085000Y-30928000D01*
X144085000Y-33528000D02*
X144085000Y-30928000D01*
X146685000Y-33528000D02*
X144085000Y-33528000D01*
X146685000Y-36128000D02*
X146685000Y-33528000D01*
X144085000Y-36128000D02*
X144085000Y-34798000D01*
X145415000Y-36128000D02*
X144085000Y-36128000D01*
X74701604Y-33967280D02*
X73683666Y-36424800D01*
X74701604Y-33967280D02*
X67606209Y-31028272D01*
X67606209Y-31028272D02*
X66588271Y-33485791D01*
X73683666Y-36424800D02*
X66588271Y-33485791D01*
X76085753Y-37419777D02*
X74856993Y-36910808D01*
X76594722Y-36191017D02*
X76085753Y-37419777D01*
X62551000Y-137347000D02*
X65211000Y-137347000D01*
X62551000Y-134747000D02*
X62551000Y-137347000D01*
X65211000Y-134747000D02*
X65211000Y-137347000D01*
X62551000Y-134747000D02*
X65211000Y-134747000D01*
X62551000Y-133477000D02*
X62551000Y-132147000D01*
X62551000Y-132147000D02*
X63881000Y-132147000D01*
X137636704Y-32150248D02*
X138654642Y-34607768D01*
X137636704Y-32150248D02*
X130541309Y-35089257D01*
X130541309Y-35089257D02*
X131559247Y-37546776D01*
X138654642Y-34607768D02*
X131559247Y-37546776D01*
X141056729Y-33612791D02*
X139827969Y-34121760D01*
X140547760Y-32384031D02*
X141056729Y-33612791D01*
D10*
X87066666Y-91527380D02*
X87066666Y-92241666D01*
X87019047Y-92384523D01*
X86923809Y-92479761D01*
X86780952Y-92527380D01*
X86685714Y-92527380D01*
X88019047Y-91527380D02*
X87542857Y-91527380D01*
X87495238Y-92003571D01*
X87542857Y-91955952D01*
X87638095Y-91908333D01*
X87876190Y-91908333D01*
X87971428Y-91955952D01*
X88019047Y-92003571D01*
X88066666Y-92098809D01*
X88066666Y-92336904D01*
X88019047Y-92432142D01*
X87971428Y-92479761D01*
X87876190Y-92527380D01*
X87638095Y-92527380D01*
X87542857Y-92479761D01*
X87495238Y-92432142D01*
X99766666Y-88987380D02*
X99766666Y-89701666D01*
X99719047Y-89844523D01*
X99623809Y-89939761D01*
X99480952Y-89987380D01*
X99385714Y-89987380D01*
X100671428Y-89320714D02*
X100671428Y-89987380D01*
X100433333Y-88939761D02*
X100195238Y-89654047D01*
X100814285Y-89654047D01*
X128293904Y-46553380D02*
X128293904Y-45553380D01*
X128532000Y-45553380D01*
X128674857Y-45601000D01*
X128770095Y-45696238D01*
X128817714Y-45791476D01*
X128865333Y-45981952D01*
X128865333Y-46124809D01*
X128817714Y-46315285D01*
X128770095Y-46410523D01*
X128674857Y-46505761D01*
X128532000Y-46553380D01*
X128293904Y-46553380D01*
X129246285Y-45648619D02*
X129293904Y-45601000D01*
X129389142Y-45553380D01*
X129627238Y-45553380D01*
X129722476Y-45601000D01*
X129770095Y-45648619D01*
X129817714Y-45743857D01*
X129817714Y-45839095D01*
X129770095Y-45981952D01*
X129198666Y-46553380D01*
X129817714Y-46553380D01*
X80056671Y-137326910D02*
X80533557Y-137326910D01*
X79961294Y-137613041D02*
X80295114Y-136611581D01*
X80628934Y-137613041D01*
X81487328Y-137613041D02*
X80915065Y-137613041D01*
X81201197Y-137613041D02*
X81201197Y-136611581D01*
X81105820Y-136754647D01*
X81010442Y-136850024D01*
X80915065Y-136897712D01*
X58929070Y-140294707D02*
X59119781Y-140294707D01*
X59215136Y-140342385D01*
X59310491Y-140437740D01*
X59358169Y-140628450D01*
X59358169Y-140962194D01*
X59310491Y-141152904D01*
X59215136Y-141248259D01*
X59119781Y-141295937D01*
X58929070Y-141295937D01*
X58833715Y-141248259D01*
X58738360Y-141152904D01*
X58690682Y-140962194D01*
X58690682Y-140628450D01*
X58738360Y-140437740D01*
X58833715Y-140342385D01*
X58929070Y-140294707D01*
X59787267Y-141295937D02*
X59787267Y-140294707D01*
X60359399Y-141295937D02*
X59930300Y-140723805D01*
X60359399Y-140294707D02*
X59787267Y-140866838D01*
X61360629Y-141295937D02*
X61026885Y-140819161D01*
X60788497Y-141295937D02*
X60788497Y-140294707D01*
X61169918Y-140294707D01*
X61265274Y-140342385D01*
X61312951Y-140390062D01*
X61360629Y-140485417D01*
X61360629Y-140628450D01*
X61312951Y-140723805D01*
X61265274Y-140771483D01*
X61169918Y-140819161D01*
X60788497Y-140819161D01*
X61789727Y-140914516D02*
X62552569Y-140914516D01*
X62886313Y-140294707D02*
X63458444Y-140294707D01*
X63172378Y-141295937D02*
X63172378Y-140294707D01*
X63553799Y-141391292D02*
X64316641Y-141391292D01*
X64459674Y-140294707D02*
X65079483Y-140294707D01*
X64745740Y-140676128D01*
X64888773Y-140676128D01*
X64984128Y-140723805D01*
X65031805Y-140771483D01*
X65079483Y-140866838D01*
X65079483Y-141105226D01*
X65031805Y-141200582D01*
X64984128Y-141248259D01*
X64888773Y-141295937D01*
X64602707Y-141295937D01*
X64507352Y-141248259D01*
X64459674Y-141200582D01*
X65508582Y-140914516D02*
X66271424Y-140914516D01*
X66652845Y-140294707D02*
X66891233Y-141295937D01*
X67081943Y-140580773D01*
X67272654Y-141295937D01*
X67511042Y-140294707D01*
X68416916Y-141295937D02*
X67844785Y-141295937D01*
X68130851Y-141295937D02*
X68130851Y-140294707D01*
X68035495Y-140437740D01*
X67940140Y-140533095D01*
X67844785Y-140580773D01*
X68798337Y-140390062D02*
X68846015Y-140342385D01*
X68941370Y-140294707D01*
X69179758Y-140294707D01*
X69275114Y-140342385D01*
X69322791Y-140390062D01*
X69370469Y-140485417D01*
X69370469Y-140580773D01*
X69322791Y-140723805D01*
X68750660Y-141295937D01*
X69370469Y-141295937D01*
X69799567Y-140914516D02*
X70562409Y-140914516D01*
X71611317Y-141200582D02*
X71563639Y-141248259D01*
X71420606Y-141295937D01*
X71325251Y-141295937D01*
X71182218Y-141248259D01*
X71086863Y-141152904D01*
X71039185Y-141057549D01*
X70991508Y-140866838D01*
X70991508Y-140723805D01*
X71039185Y-140533095D01*
X71086863Y-140437740D01*
X71182218Y-140342385D01*
X71325251Y-140294707D01*
X71420606Y-140294707D01*
X71563639Y-140342385D01*
X71611317Y-140390062D01*
X91781333Y-135485142D02*
X91733714Y-135532761D01*
X91590857Y-135580380D01*
X91495619Y-135580380D01*
X91352761Y-135532761D01*
X91257523Y-135437523D01*
X91209904Y-135342285D01*
X91162285Y-135151809D01*
X91162285Y-135008952D01*
X91209904Y-134818476D01*
X91257523Y-134723238D01*
X91352761Y-134628000D01*
X91495619Y-134580380D01*
X91590857Y-134580380D01*
X91733714Y-134628000D01*
X91781333Y-134675619D01*
X92733714Y-135580380D02*
X92162285Y-135580380D01*
X92448000Y-135580380D02*
X92448000Y-134580380D01*
X92352761Y-134723238D01*
X92257523Y-134818476D01*
X92162285Y-134866095D01*
X84796333Y-141962142D02*
X84748714Y-142009761D01*
X84605857Y-142057380D01*
X84510619Y-142057380D01*
X84367761Y-142009761D01*
X84272523Y-141914523D01*
X84224904Y-141819285D01*
X84177285Y-141628809D01*
X84177285Y-141485952D01*
X84224904Y-141295476D01*
X84272523Y-141200238D01*
X84367761Y-141105000D01*
X84510619Y-141057380D01*
X84605857Y-141057380D01*
X84748714Y-141105000D01*
X84796333Y-141152619D01*
X85177285Y-141152619D02*
X85224904Y-141105000D01*
X85320142Y-141057380D01*
X85558238Y-141057380D01*
X85653476Y-141105000D01*
X85701095Y-141152619D01*
X85748714Y-141247857D01*
X85748714Y-141343095D01*
X85701095Y-141485952D01*
X85129666Y-142057380D01*
X85748714Y-142057380D01*
X96035904Y-144724380D02*
X96035904Y-143724380D01*
X96274000Y-143724380D01*
X96416857Y-143772000D01*
X96512095Y-143867238D01*
X96559714Y-143962476D01*
X96607333Y-144152952D01*
X96607333Y-144295809D01*
X96559714Y-144486285D01*
X96512095Y-144581523D01*
X96416857Y-144676761D01*
X96274000Y-144724380D01*
X96035904Y-144724380D01*
X97559714Y-144724380D02*
X96988285Y-144724380D01*
X97274000Y-144724380D02*
X97274000Y-143724380D01*
X97178761Y-143867238D01*
X97083523Y-143962476D01*
X96988285Y-144010095D01*
X121428284Y-46700560D02*
X121428284Y-45700560D01*
X121666380Y-45700560D01*
X121809237Y-45748180D01*
X121904475Y-45843418D01*
X121952094Y-45938656D01*
X121999713Y-46129132D01*
X121999713Y-46271989D01*
X121952094Y-46462465D01*
X121904475Y-46557703D01*
X121809237Y-46652941D01*
X121666380Y-46700560D01*
X121428284Y-46700560D01*
X122333046Y-45700560D02*
X122952094Y-45700560D01*
X122618760Y-46081513D01*
X122761618Y-46081513D01*
X122856856Y-46129132D01*
X122904475Y-46176751D01*
X122952094Y-46271989D01*
X122952094Y-46510084D01*
X122904475Y-46605322D01*
X122856856Y-46652941D01*
X122761618Y-46700560D01*
X122475903Y-46700560D01*
X122380665Y-46652941D01*
X122333046Y-46605322D01*
X114443284Y-46700560D02*
X114443284Y-45700560D01*
X114681380Y-45700560D01*
X114824237Y-45748180D01*
X114919475Y-45843418D01*
X114967094Y-45938656D01*
X115014713Y-46129132D01*
X115014713Y-46271989D01*
X114967094Y-46462465D01*
X114919475Y-46557703D01*
X114824237Y-46652941D01*
X114681380Y-46700560D01*
X114443284Y-46700560D01*
X115871856Y-46033894D02*
X115871856Y-46700560D01*
X115633760Y-45652941D02*
X115395665Y-46367227D01*
X116014713Y-46367227D01*
X107458284Y-46700560D02*
X107458284Y-45700560D01*
X107696380Y-45700560D01*
X107839237Y-45748180D01*
X107934475Y-45843418D01*
X107982094Y-45938656D01*
X108029713Y-46129132D01*
X108029713Y-46271989D01*
X107982094Y-46462465D01*
X107934475Y-46557703D01*
X107839237Y-46652941D01*
X107696380Y-46700560D01*
X107458284Y-46700560D01*
X108934475Y-45700560D02*
X108458284Y-45700560D01*
X108410665Y-46176751D01*
X108458284Y-46129132D01*
X108553522Y-46081513D01*
X108791618Y-46081513D01*
X108886856Y-46129132D01*
X108934475Y-46176751D01*
X108982094Y-46271989D01*
X108982094Y-46510084D01*
X108934475Y-46605322D01*
X108886856Y-46652941D01*
X108791618Y-46700560D01*
X108553522Y-46700560D01*
X108458284Y-46652941D01*
X108410665Y-46605322D01*
X93488284Y-46700560D02*
X93488284Y-45700560D01*
X93726380Y-45700560D01*
X93869237Y-45748180D01*
X93964475Y-45843418D01*
X94012094Y-45938656D01*
X94059713Y-46129132D01*
X94059713Y-46271989D01*
X94012094Y-46462465D01*
X93964475Y-46557703D01*
X93869237Y-46652941D01*
X93726380Y-46700560D01*
X93488284Y-46700560D01*
X94916856Y-45700560D02*
X94726380Y-45700560D01*
X94631141Y-45748180D01*
X94583522Y-45795799D01*
X94488284Y-45938656D01*
X94440665Y-46129132D01*
X94440665Y-46510084D01*
X94488284Y-46605322D01*
X94535903Y-46652941D01*
X94631141Y-46700560D01*
X94821618Y-46700560D01*
X94916856Y-46652941D01*
X94964475Y-46605322D01*
X95012094Y-46510084D01*
X95012094Y-46271989D01*
X94964475Y-46176751D01*
X94916856Y-46129132D01*
X94821618Y-46081513D01*
X94631141Y-46081513D01*
X94535903Y-46129132D01*
X94488284Y-46176751D01*
X94440665Y-46271989D01*
X86503284Y-46700560D02*
X86503284Y-45700560D01*
X86741380Y-45700560D01*
X86884237Y-45748180D01*
X86979475Y-45843418D01*
X87027094Y-45938656D01*
X87074713Y-46129132D01*
X87074713Y-46271989D01*
X87027094Y-46462465D01*
X86979475Y-46557703D01*
X86884237Y-46652941D01*
X86741380Y-46700560D01*
X86503284Y-46700560D01*
X87408046Y-45700560D02*
X88074713Y-45700560D01*
X87646141Y-46700560D01*
X100473284Y-46700560D02*
X100473284Y-45700560D01*
X100711380Y-45700560D01*
X100854237Y-45748180D01*
X100949475Y-45843418D01*
X100997094Y-45938656D01*
X101044713Y-46129132D01*
X101044713Y-46271989D01*
X100997094Y-46462465D01*
X100949475Y-46557703D01*
X100854237Y-46652941D01*
X100711380Y-46700560D01*
X100473284Y-46700560D01*
X101616141Y-46129132D02*
X101520903Y-46081513D01*
X101473284Y-46033894D01*
X101425665Y-45938656D01*
X101425665Y-45891037D01*
X101473284Y-45795799D01*
X101520903Y-45748180D01*
X101616141Y-45700560D01*
X101806618Y-45700560D01*
X101901856Y-45748180D01*
X101949475Y-45795799D01*
X101997094Y-45891037D01*
X101997094Y-45938656D01*
X101949475Y-46033894D01*
X101901856Y-46081513D01*
X101806618Y-46129132D01*
X101616141Y-46129132D01*
X101520903Y-46176751D01*
X101473284Y-46224370D01*
X101425665Y-46319608D01*
X101425665Y-46510084D01*
X101473284Y-46605322D01*
X101520903Y-46652941D01*
X101616141Y-46700560D01*
X101806618Y-46700560D01*
X101901856Y-46652941D01*
X101949475Y-46605322D01*
X101997094Y-46510084D01*
X101997094Y-46319608D01*
X101949475Y-46224370D01*
X101901856Y-46176751D01*
X101806618Y-46129132D01*
X79525904Y-46680380D02*
X79525904Y-45680380D01*
X79764000Y-45680380D01*
X79906857Y-45728000D01*
X80002095Y-45823238D01*
X80049714Y-45918476D01*
X80097333Y-46108952D01*
X80097333Y-46251809D01*
X80049714Y-46442285D01*
X80002095Y-46537523D01*
X79906857Y-46632761D01*
X79764000Y-46680380D01*
X79525904Y-46680380D01*
X80573523Y-46680380D02*
X80764000Y-46680380D01*
X80859238Y-46632761D01*
X80906857Y-46585142D01*
X81002095Y-46442285D01*
X81049714Y-46251809D01*
X81049714Y-45870857D01*
X81002095Y-45775619D01*
X80954476Y-45728000D01*
X80859238Y-45680380D01*
X80668761Y-45680380D01*
X80573523Y-45728000D01*
X80525904Y-45775619D01*
X80478285Y-45870857D01*
X80478285Y-46108952D01*
X80525904Y-46204190D01*
X80573523Y-46251809D01*
X80668761Y-46299428D01*
X80859238Y-46299428D01*
X80954476Y-46251809D01*
X81002095Y-46204190D01*
X81049714Y-46108952D01*
X73326666Y-138993571D02*
X72993333Y-138993571D01*
X72993333Y-139517380D02*
X72993333Y-138517380D01*
X73469523Y-138517380D01*
X74374285Y-139517380D02*
X73802857Y-139517380D01*
X74088571Y-139517380D02*
X74088571Y-138517380D01*
X73993333Y-138660238D01*
X73898095Y-138755476D01*
X73802857Y-138803095D01*
X84526666Y-82637380D02*
X84526666Y-83351666D01*
X84479047Y-83494523D01*
X84383809Y-83589761D01*
X84240952Y-83637380D01*
X84145714Y-83637380D01*
X84955238Y-82732619D02*
X85002857Y-82685000D01*
X85098095Y-82637380D01*
X85336190Y-82637380D01*
X85431428Y-82685000D01*
X85479047Y-82732619D01*
X85526666Y-82827857D01*
X85526666Y-82923095D01*
X85479047Y-83065952D01*
X84907619Y-83637380D01*
X85526666Y-83637380D01*
X84526666Y-97877380D02*
X84526666Y-98591666D01*
X84479047Y-98734523D01*
X84383809Y-98829761D01*
X84240952Y-98877380D01*
X84145714Y-98877380D01*
X85526666Y-98877380D02*
X84955238Y-98877380D01*
X85240952Y-98877380D02*
X85240952Y-97877380D01*
X85145714Y-98020238D01*
X85050476Y-98115476D01*
X84955238Y-98163095D01*
X102028666Y-141184380D02*
X102028666Y-141898666D01*
X101981047Y-142041523D01*
X101885809Y-142136761D01*
X101742952Y-142184380D01*
X101647714Y-142184380D01*
X102409619Y-141184380D02*
X103028666Y-141184380D01*
X102695333Y-141565333D01*
X102838190Y-141565333D01*
X102933428Y-141612952D01*
X102981047Y-141660571D01*
X103028666Y-141755809D01*
X103028666Y-141993904D01*
X102981047Y-142089142D01*
X102933428Y-142136761D01*
X102838190Y-142184380D01*
X102552476Y-142184380D01*
X102457238Y-142136761D01*
X102409619Y-142089142D01*
X77930476Y-108902380D02*
X77930476Y-109616666D01*
X77882857Y-109759523D01*
X77787619Y-109854761D01*
X77644761Y-109902380D01*
X77549523Y-109902380D01*
X78930476Y-109902380D02*
X78359047Y-109902380D01*
X78644761Y-109902380D02*
X78644761Y-108902380D01*
X78549523Y-109045238D01*
X78454285Y-109140476D01*
X78359047Y-109188095D01*
X79549523Y-108902380D02*
X79644761Y-108902380D01*
X79740000Y-108950000D01*
X79787619Y-108997619D01*
X79835238Y-109092857D01*
X79882857Y-109283333D01*
X79882857Y-109521428D01*
X79835238Y-109711904D01*
X79787619Y-109807142D01*
X79740000Y-109854761D01*
X79644761Y-109902380D01*
X79549523Y-109902380D01*
X79454285Y-109854761D01*
X79406666Y-109807142D01*
X79359047Y-109711904D01*
X79311428Y-109521428D01*
X79311428Y-109283333D01*
X79359047Y-109092857D01*
X79406666Y-108997619D01*
X79454285Y-108950000D01*
X79549523Y-108902380D01*
X128730476Y-98282380D02*
X128730476Y-98996666D01*
X128682857Y-99139523D01*
X128587619Y-99234761D01*
X128444761Y-99282380D01*
X128349523Y-99282380D01*
X129730476Y-99282380D02*
X129159047Y-99282380D01*
X129444761Y-99282380D02*
X129444761Y-98282380D01*
X129349523Y-98425238D01*
X129254285Y-98520476D01*
X129159047Y-98568095D01*
X130682857Y-99282380D02*
X130111428Y-99282380D01*
X130397142Y-99282380D02*
X130397142Y-98282380D01*
X130301904Y-98425238D01*
X130206666Y-98520476D01*
X130111428Y-98568095D01*
X116538476Y-131278380D02*
X116538476Y-131992666D01*
X116490857Y-132135523D01*
X116395619Y-132230761D01*
X116252761Y-132278380D01*
X116157523Y-132278380D01*
X117538476Y-132278380D02*
X116967047Y-132278380D01*
X117252761Y-132278380D02*
X117252761Y-131278380D01*
X117157523Y-131421238D01*
X117062285Y-131516476D01*
X116967047Y-131564095D01*
X118395619Y-131278380D02*
X118205142Y-131278380D01*
X118109904Y-131326000D01*
X118062285Y-131373619D01*
X117967047Y-131516476D01*
X117919428Y-131706952D01*
X117919428Y-132087904D01*
X117967047Y-132183142D01*
X118014666Y-132230761D01*
X118109904Y-132278380D01*
X118300380Y-132278380D01*
X118395619Y-132230761D01*
X118443238Y-132183142D01*
X118490857Y-132087904D01*
X118490857Y-131849809D01*
X118443238Y-131754571D01*
X118395619Y-131706952D01*
X118300380Y-131659333D01*
X118109904Y-131659333D01*
X118014666Y-131706952D01*
X117967047Y-131754571D01*
X117919428Y-131849809D01*
X116538476Y-126579380D02*
X116538476Y-127293666D01*
X116490857Y-127436523D01*
X116395619Y-127531761D01*
X116252761Y-127579380D01*
X116157523Y-127579380D01*
X117538476Y-127579380D02*
X116967047Y-127579380D01*
X117252761Y-127579380D02*
X117252761Y-126579380D01*
X117157523Y-126722238D01*
X117062285Y-126817476D01*
X116967047Y-126865095D01*
X117871809Y-126579380D02*
X118538476Y-126579380D01*
X118109904Y-127579380D01*
X129444761Y-60745619D02*
X129349523Y-60698000D01*
X129254285Y-60602761D01*
X129111428Y-60459904D01*
X129016190Y-60412285D01*
X128920952Y-60412285D01*
X128968571Y-60650380D02*
X128873333Y-60602761D01*
X128778095Y-60507523D01*
X128730476Y-60317047D01*
X128730476Y-59983714D01*
X128778095Y-59793238D01*
X128873333Y-59698000D01*
X128968571Y-59650380D01*
X129159047Y-59650380D01*
X129254285Y-59698000D01*
X129349523Y-59793238D01*
X129397142Y-59983714D01*
X129397142Y-60317047D01*
X129349523Y-60507523D01*
X129254285Y-60602761D01*
X129159047Y-60650380D01*
X128968571Y-60650380D01*
X130349523Y-60650380D02*
X129778095Y-60650380D01*
X130063809Y-60650380D02*
X130063809Y-59650380D01*
X129968571Y-59793238D01*
X129873333Y-59888476D01*
X129778095Y-59936095D01*
X122071141Y-60665799D02*
X121975903Y-60618180D01*
X121880665Y-60522941D01*
X121737808Y-60380084D01*
X121642570Y-60332465D01*
X121547332Y-60332465D01*
X121594951Y-60570560D02*
X121499713Y-60522941D01*
X121404475Y-60427703D01*
X121356856Y-60237227D01*
X121356856Y-59903894D01*
X121404475Y-59713418D01*
X121499713Y-59618180D01*
X121594951Y-59570560D01*
X121785427Y-59570560D01*
X121880665Y-59618180D01*
X121975903Y-59713418D01*
X122023522Y-59903894D01*
X122023522Y-60237227D01*
X121975903Y-60427703D01*
X121880665Y-60522941D01*
X121785427Y-60570560D01*
X121594951Y-60570560D01*
X122404475Y-59665799D02*
X122452094Y-59618180D01*
X122547332Y-59570560D01*
X122785427Y-59570560D01*
X122880665Y-59618180D01*
X122928284Y-59665799D01*
X122975903Y-59761037D01*
X122975903Y-59856275D01*
X122928284Y-59999132D01*
X122356856Y-60570560D01*
X122975903Y-60570560D01*
X115086141Y-60665799D02*
X114990903Y-60618180D01*
X114895665Y-60522941D01*
X114752808Y-60380084D01*
X114657570Y-60332465D01*
X114562332Y-60332465D01*
X114609951Y-60570560D02*
X114514713Y-60522941D01*
X114419475Y-60427703D01*
X114371856Y-60237227D01*
X114371856Y-59903894D01*
X114419475Y-59713418D01*
X114514713Y-59618180D01*
X114609951Y-59570560D01*
X114800427Y-59570560D01*
X114895665Y-59618180D01*
X114990903Y-59713418D01*
X115038522Y-59903894D01*
X115038522Y-60237227D01*
X114990903Y-60427703D01*
X114895665Y-60522941D01*
X114800427Y-60570560D01*
X114609951Y-60570560D01*
X115371856Y-59570560D02*
X115990903Y-59570560D01*
X115657570Y-59951513D01*
X115800427Y-59951513D01*
X115895665Y-59999132D01*
X115943284Y-60046751D01*
X115990903Y-60141989D01*
X115990903Y-60380084D01*
X115943284Y-60475322D01*
X115895665Y-60522941D01*
X115800427Y-60570560D01*
X115514713Y-60570560D01*
X115419475Y-60522941D01*
X115371856Y-60475322D01*
X108101141Y-60665799D02*
X108005903Y-60618180D01*
X107910665Y-60522941D01*
X107767808Y-60380084D01*
X107672570Y-60332465D01*
X107577332Y-60332465D01*
X107624951Y-60570560D02*
X107529713Y-60522941D01*
X107434475Y-60427703D01*
X107386856Y-60237227D01*
X107386856Y-59903894D01*
X107434475Y-59713418D01*
X107529713Y-59618180D01*
X107624951Y-59570560D01*
X107815427Y-59570560D01*
X107910665Y-59618180D01*
X108005903Y-59713418D01*
X108053522Y-59903894D01*
X108053522Y-60237227D01*
X108005903Y-60427703D01*
X107910665Y-60522941D01*
X107815427Y-60570560D01*
X107624951Y-60570560D01*
X108910665Y-59903894D02*
X108910665Y-60570560D01*
X108672570Y-59522941D02*
X108434475Y-60237227D01*
X109053522Y-60237227D01*
X94131141Y-60665799D02*
X94035903Y-60618180D01*
X93940665Y-60522941D01*
X93797808Y-60380084D01*
X93702570Y-60332465D01*
X93607332Y-60332465D01*
X93654951Y-60570560D02*
X93559713Y-60522941D01*
X93464475Y-60427703D01*
X93416856Y-60237227D01*
X93416856Y-59903894D01*
X93464475Y-59713418D01*
X93559713Y-59618180D01*
X93654951Y-59570560D01*
X93845427Y-59570560D01*
X93940665Y-59618180D01*
X94035903Y-59713418D01*
X94083522Y-59903894D01*
X94083522Y-60237227D01*
X94035903Y-60427703D01*
X93940665Y-60522941D01*
X93845427Y-60570560D01*
X93654951Y-60570560D01*
X94988284Y-59570560D02*
X94512094Y-59570560D01*
X94464475Y-60046751D01*
X94512094Y-59999132D01*
X94607332Y-59951513D01*
X94845427Y-59951513D01*
X94940665Y-59999132D01*
X94988284Y-60046751D01*
X95035903Y-60141989D01*
X95035903Y-60380084D01*
X94988284Y-60475322D01*
X94940665Y-60522941D01*
X94845427Y-60570560D01*
X94607332Y-60570560D01*
X94512094Y-60522941D01*
X94464475Y-60475322D01*
X87146141Y-60665799D02*
X87050903Y-60618180D01*
X86955665Y-60522941D01*
X86812808Y-60380084D01*
X86717570Y-60332465D01*
X86622332Y-60332465D01*
X86669951Y-60570560D02*
X86574713Y-60522941D01*
X86479475Y-60427703D01*
X86431856Y-60237227D01*
X86431856Y-59903894D01*
X86479475Y-59713418D01*
X86574713Y-59618180D01*
X86669951Y-59570560D01*
X86860427Y-59570560D01*
X86955665Y-59618180D01*
X87050903Y-59713418D01*
X87098522Y-59903894D01*
X87098522Y-60237227D01*
X87050903Y-60427703D01*
X86955665Y-60522941D01*
X86860427Y-60570560D01*
X86669951Y-60570560D01*
X87955665Y-59570560D02*
X87765189Y-59570560D01*
X87669951Y-59618180D01*
X87622332Y-59665799D01*
X87527094Y-59808656D01*
X87479475Y-59999132D01*
X87479475Y-60380084D01*
X87527094Y-60475322D01*
X87574713Y-60522941D01*
X87669951Y-60570560D01*
X87860427Y-60570560D01*
X87955665Y-60522941D01*
X88003284Y-60475322D01*
X88050903Y-60380084D01*
X88050903Y-60141989D01*
X88003284Y-60046751D01*
X87955665Y-59999132D01*
X87860427Y-59951513D01*
X87669951Y-59951513D01*
X87574713Y-59999132D01*
X87527094Y-60046751D01*
X87479475Y-60141989D01*
X101116141Y-60665799D02*
X101020903Y-60618180D01*
X100925665Y-60522941D01*
X100782808Y-60380084D01*
X100687570Y-60332465D01*
X100592332Y-60332465D01*
X100639951Y-60570560D02*
X100544713Y-60522941D01*
X100449475Y-60427703D01*
X100401856Y-60237227D01*
X100401856Y-59903894D01*
X100449475Y-59713418D01*
X100544713Y-59618180D01*
X100639951Y-59570560D01*
X100830427Y-59570560D01*
X100925665Y-59618180D01*
X101020903Y-59713418D01*
X101068522Y-59903894D01*
X101068522Y-60237227D01*
X101020903Y-60427703D01*
X100925665Y-60522941D01*
X100830427Y-60570560D01*
X100639951Y-60570560D01*
X101401856Y-59570560D02*
X102068522Y-59570560D01*
X101639951Y-60570560D01*
X80168761Y-60745619D02*
X80073523Y-60698000D01*
X79978285Y-60602761D01*
X79835428Y-60459904D01*
X79740190Y-60412285D01*
X79644952Y-60412285D01*
X79692571Y-60650380D02*
X79597333Y-60602761D01*
X79502095Y-60507523D01*
X79454476Y-60317047D01*
X79454476Y-59983714D01*
X79502095Y-59793238D01*
X79597333Y-59698000D01*
X79692571Y-59650380D01*
X79883047Y-59650380D01*
X79978285Y-59698000D01*
X80073523Y-59793238D01*
X80121142Y-59983714D01*
X80121142Y-60317047D01*
X80073523Y-60507523D01*
X79978285Y-60602761D01*
X79883047Y-60650380D01*
X79692571Y-60650380D01*
X80692571Y-60078952D02*
X80597333Y-60031333D01*
X80549714Y-59983714D01*
X80502095Y-59888476D01*
X80502095Y-59840857D01*
X80549714Y-59745619D01*
X80597333Y-59698000D01*
X80692571Y-59650380D01*
X80883047Y-59650380D01*
X80978285Y-59698000D01*
X81025904Y-59745619D01*
X81073523Y-59840857D01*
X81073523Y-59888476D01*
X81025904Y-59983714D01*
X80978285Y-60031333D01*
X80883047Y-60078952D01*
X80692571Y-60078952D01*
X80597333Y-60126571D01*
X80549714Y-60174190D01*
X80502095Y-60269428D01*
X80502095Y-60459904D01*
X80549714Y-60555142D01*
X80597333Y-60602761D01*
X80692571Y-60650380D01*
X80883047Y-60650380D01*
X80978285Y-60602761D01*
X81025904Y-60555142D01*
X81073523Y-60459904D01*
X81073523Y-60269428D01*
X81025904Y-60174190D01*
X80978285Y-60126571D01*
X80883047Y-60078952D01*
X133056333Y-133421380D02*
X132723000Y-132945190D01*
X132484904Y-133421380D02*
X132484904Y-132421380D01*
X132865857Y-132421380D01*
X132961095Y-132469000D01*
X133008714Y-132516619D01*
X133056333Y-132611857D01*
X133056333Y-132754714D01*
X133008714Y-132849952D01*
X132961095Y-132897571D01*
X132865857Y-132945190D01*
X132484904Y-132945190D01*
X134008714Y-133421380D02*
X133437285Y-133421380D01*
X133723000Y-133421380D02*
X133723000Y-132421380D01*
X133627761Y-132564238D01*
X133532523Y-132659476D01*
X133437285Y-132707095D01*
X137120333Y-127833380D02*
X136787000Y-127357190D01*
X136548904Y-127833380D02*
X136548904Y-126833380D01*
X136929857Y-126833380D01*
X137025095Y-126881000D01*
X137072714Y-126928619D01*
X137120333Y-127023857D01*
X137120333Y-127166714D01*
X137072714Y-127261952D01*
X137025095Y-127309571D01*
X136929857Y-127357190D01*
X136548904Y-127357190D01*
X137501285Y-126928619D02*
X137548904Y-126881000D01*
X137644142Y-126833380D01*
X137882238Y-126833380D01*
X137977476Y-126881000D01*
X138025095Y-126928619D01*
X138072714Y-127023857D01*
X138072714Y-127119095D01*
X138025095Y-127261952D01*
X137453666Y-127833380D01*
X138072714Y-127833380D01*
X131135380Y-39631857D02*
X130659190Y-39965191D01*
X131135380Y-40203286D02*
X130135380Y-40203286D01*
X130135380Y-39822333D01*
X130183000Y-39727095D01*
X130230619Y-39679476D01*
X130325857Y-39631857D01*
X130468714Y-39631857D01*
X130563952Y-39679476D01*
X130611571Y-39727095D01*
X130659190Y-39822333D01*
X130659190Y-40203286D01*
X130135380Y-39298524D02*
X130135380Y-38679476D01*
X130516333Y-39012810D01*
X130516333Y-38869952D01*
X130563952Y-38774714D01*
X130611571Y-38727095D01*
X130706809Y-38679476D01*
X130944904Y-38679476D01*
X131040142Y-38727095D01*
X131087761Y-38774714D01*
X131135380Y-38869952D01*
X131135380Y-39155667D01*
X131087761Y-39250905D01*
X131040142Y-39298524D01*
X82240380Y-138215666D02*
X81764190Y-138549000D01*
X82240380Y-138787095D02*
X81240380Y-138787095D01*
X81240380Y-138406142D01*
X81288000Y-138310904D01*
X81335619Y-138263285D01*
X81430857Y-138215666D01*
X81573714Y-138215666D01*
X81668952Y-138263285D01*
X81716571Y-138310904D01*
X81764190Y-138406142D01*
X81764190Y-138787095D01*
X81573714Y-137358523D02*
X82240380Y-137358523D01*
X81192761Y-137596619D02*
X81907047Y-137834714D01*
X81907047Y-137215666D01*
X124023380Y-39631857D02*
X123547190Y-39965191D01*
X124023380Y-40203286D02*
X123023380Y-40203286D01*
X123023380Y-39822333D01*
X123071000Y-39727095D01*
X123118619Y-39679476D01*
X123213857Y-39631857D01*
X123356714Y-39631857D01*
X123451952Y-39679476D01*
X123499571Y-39727095D01*
X123547190Y-39822333D01*
X123547190Y-40203286D01*
X123023380Y-38727095D02*
X123023380Y-39203286D01*
X123499571Y-39250905D01*
X123451952Y-39203286D01*
X123404333Y-39108048D01*
X123404333Y-38869952D01*
X123451952Y-38774714D01*
X123499571Y-38727095D01*
X123594809Y-38679476D01*
X123832904Y-38679476D01*
X123928142Y-38727095D01*
X123975761Y-38774714D01*
X124023380Y-38869952D01*
X124023380Y-39108048D01*
X123975761Y-39203286D01*
X123928142Y-39250905D01*
X128849380Y-39631857D02*
X128373190Y-39965191D01*
X128849380Y-40203286D02*
X127849380Y-40203286D01*
X127849380Y-39822333D01*
X127897000Y-39727095D01*
X127944619Y-39679476D01*
X128039857Y-39631857D01*
X128182714Y-39631857D01*
X128277952Y-39679476D01*
X128325571Y-39727095D01*
X128373190Y-39822333D01*
X128373190Y-40203286D01*
X127849380Y-38774714D02*
X127849380Y-38965191D01*
X127897000Y-39060429D01*
X127944619Y-39108048D01*
X128087476Y-39203286D01*
X128277952Y-39250905D01*
X128658904Y-39250905D01*
X128754142Y-39203286D01*
X128801761Y-39155667D01*
X128849380Y-39060429D01*
X128849380Y-38869952D01*
X128801761Y-38774714D01*
X128754142Y-38727095D01*
X128658904Y-38679476D01*
X128420809Y-38679476D01*
X128325571Y-38727095D01*
X128277952Y-38774714D01*
X128230333Y-38869952D01*
X128230333Y-39060429D01*
X128277952Y-39155667D01*
X128325571Y-39203286D01*
X128420809Y-39250905D01*
X121483380Y-39631857D02*
X121007190Y-39965191D01*
X121483380Y-40203286D02*
X120483380Y-40203286D01*
X120483380Y-39822333D01*
X120531000Y-39727095D01*
X120578619Y-39679476D01*
X120673857Y-39631857D01*
X120816714Y-39631857D01*
X120911952Y-39679476D01*
X120959571Y-39727095D01*
X121007190Y-39822333D01*
X121007190Y-40203286D01*
X120483380Y-39298524D02*
X120483380Y-38631857D01*
X121483380Y-39060429D01*
X116911380Y-39631857D02*
X116435190Y-39965191D01*
X116911380Y-40203286D02*
X115911380Y-40203286D01*
X115911380Y-39822333D01*
X115959000Y-39727095D01*
X116006619Y-39679476D01*
X116101857Y-39631857D01*
X116244714Y-39631857D01*
X116339952Y-39679476D01*
X116387571Y-39727095D01*
X116435190Y-39822333D01*
X116435190Y-40203286D01*
X116339952Y-39060429D02*
X116292333Y-39155667D01*
X116244714Y-39203286D01*
X116149476Y-39250905D01*
X116101857Y-39250905D01*
X116006619Y-39203286D01*
X115959000Y-39155667D01*
X115911380Y-39060429D01*
X115911380Y-38869952D01*
X115959000Y-38774714D01*
X116006619Y-38727095D01*
X116101857Y-38679476D01*
X116149476Y-38679476D01*
X116244714Y-38727095D01*
X116292333Y-38774714D01*
X116339952Y-38869952D01*
X116339952Y-39060429D01*
X116387571Y-39155667D01*
X116435190Y-39203286D01*
X116530428Y-39250905D01*
X116720904Y-39250905D01*
X116816142Y-39203286D01*
X116863761Y-39155667D01*
X116911380Y-39060429D01*
X116911380Y-38869952D01*
X116863761Y-38774714D01*
X116816142Y-38727095D01*
X116720904Y-38679476D01*
X116530428Y-38679476D01*
X116435190Y-38727095D01*
X116387571Y-38774714D01*
X116339952Y-38869952D01*
X68778380Y-43219666D02*
X68302190Y-43553000D01*
X68778380Y-43791095D02*
X67778380Y-43791095D01*
X67778380Y-43410142D01*
X67826000Y-43314904D01*
X67873619Y-43267285D01*
X67968857Y-43219666D01*
X68111714Y-43219666D01*
X68206952Y-43267285D01*
X68254571Y-43314904D01*
X68302190Y-43410142D01*
X68302190Y-43791095D01*
X68778380Y-42743476D02*
X68778380Y-42553000D01*
X68730761Y-42457761D01*
X68683142Y-42410142D01*
X68540285Y-42314904D01*
X68349809Y-42267285D01*
X67968857Y-42267285D01*
X67873619Y-42314904D01*
X67826000Y-42362523D01*
X67778380Y-42457761D01*
X67778380Y-42648238D01*
X67826000Y-42743476D01*
X67873619Y-42791095D01*
X67968857Y-42838714D01*
X68206952Y-42838714D01*
X68302190Y-42791095D01*
X68349809Y-42743476D01*
X68397428Y-42648238D01*
X68397428Y-42457761D01*
X68349809Y-42362523D01*
X68302190Y-42314904D01*
X68206952Y-42267285D01*
X138501380Y-43822857D02*
X138025190Y-44156190D01*
X138501380Y-44394285D02*
X137501380Y-44394285D01*
X137501380Y-44013333D01*
X137549000Y-43918095D01*
X137596619Y-43870476D01*
X137691857Y-43822857D01*
X137834714Y-43822857D01*
X137929952Y-43870476D01*
X137977571Y-43918095D01*
X138025190Y-44013333D01*
X138025190Y-44394285D01*
X138501380Y-42870476D02*
X138501380Y-43441904D01*
X138501380Y-43156190D02*
X137501380Y-43156190D01*
X137644238Y-43251428D01*
X137739476Y-43346666D01*
X137787095Y-43441904D01*
X137501380Y-42251428D02*
X137501380Y-42156190D01*
X137549000Y-42060952D01*
X137596619Y-42013333D01*
X137691857Y-41965714D01*
X137882333Y-41918095D01*
X138120428Y-41918095D01*
X138310904Y-41965714D01*
X138406142Y-42013333D01*
X138453761Y-42060952D01*
X138501380Y-42156190D01*
X138501380Y-42251428D01*
X138453761Y-42346666D01*
X138406142Y-42394285D01*
X138310904Y-42441904D01*
X138120428Y-42489523D01*
X137882333Y-42489523D01*
X137691857Y-42441904D01*
X137596619Y-42394285D01*
X137549000Y-42346666D01*
X137501380Y-42251428D01*
X109926380Y-39631857D02*
X109450190Y-39965190D01*
X109926380Y-40203285D02*
X108926380Y-40203285D01*
X108926380Y-39822333D01*
X108974000Y-39727095D01*
X109021619Y-39679476D01*
X109116857Y-39631857D01*
X109259714Y-39631857D01*
X109354952Y-39679476D01*
X109402571Y-39727095D01*
X109450190Y-39822333D01*
X109450190Y-40203285D01*
X109926380Y-38679476D02*
X109926380Y-39250904D01*
X109926380Y-38965190D02*
X108926380Y-38965190D01*
X109069238Y-39060428D01*
X109164476Y-39155666D01*
X109212095Y-39250904D01*
X109926380Y-37727095D02*
X109926380Y-38298523D01*
X109926380Y-38012809D02*
X108926380Y-38012809D01*
X109069238Y-38108047D01*
X109164476Y-38203285D01*
X109212095Y-38298523D01*
X114625380Y-39631857D02*
X114149190Y-39965190D01*
X114625380Y-40203285D02*
X113625380Y-40203285D01*
X113625380Y-39822333D01*
X113673000Y-39727095D01*
X113720619Y-39679476D01*
X113815857Y-39631857D01*
X113958714Y-39631857D01*
X114053952Y-39679476D01*
X114101571Y-39727095D01*
X114149190Y-39822333D01*
X114149190Y-40203285D01*
X114625380Y-38679476D02*
X114625380Y-39250904D01*
X114625380Y-38965190D02*
X113625380Y-38965190D01*
X113768238Y-39060428D01*
X113863476Y-39155666D01*
X113911095Y-39250904D01*
X113720619Y-38298523D02*
X113673000Y-38250904D01*
X113625380Y-38155666D01*
X113625380Y-37917571D01*
X113673000Y-37822333D01*
X113720619Y-37774714D01*
X113815857Y-37727095D01*
X113911095Y-37727095D01*
X114053952Y-37774714D01*
X114625380Y-38346142D01*
X114625380Y-37727095D01*
X107767380Y-39631857D02*
X107291190Y-39965190D01*
X107767380Y-40203285D02*
X106767380Y-40203285D01*
X106767380Y-39822333D01*
X106815000Y-39727095D01*
X106862619Y-39679476D01*
X106957857Y-39631857D01*
X107100714Y-39631857D01*
X107195952Y-39679476D01*
X107243571Y-39727095D01*
X107291190Y-39822333D01*
X107291190Y-40203285D01*
X107767380Y-38679476D02*
X107767380Y-39250904D01*
X107767380Y-38965190D02*
X106767380Y-38965190D01*
X106910238Y-39060428D01*
X107005476Y-39155666D01*
X107053095Y-39250904D01*
X106767380Y-38346142D02*
X106767380Y-37727095D01*
X107148333Y-38060428D01*
X107148333Y-37917571D01*
X107195952Y-37822333D01*
X107243571Y-37774714D01*
X107338809Y-37727095D01*
X107576904Y-37727095D01*
X107672142Y-37774714D01*
X107719761Y-37822333D01*
X107767380Y-37917571D01*
X107767380Y-38203285D01*
X107719761Y-38298523D01*
X107672142Y-38346142D01*
X95829380Y-39631857D02*
X95353190Y-39965190D01*
X95829380Y-40203285D02*
X94829380Y-40203285D01*
X94829380Y-39822333D01*
X94877000Y-39727095D01*
X94924619Y-39679476D01*
X95019857Y-39631857D01*
X95162714Y-39631857D01*
X95257952Y-39679476D01*
X95305571Y-39727095D01*
X95353190Y-39822333D01*
X95353190Y-40203285D01*
X95829380Y-38679476D02*
X95829380Y-39250904D01*
X95829380Y-38965190D02*
X94829380Y-38965190D01*
X94972238Y-39060428D01*
X95067476Y-39155666D01*
X95115095Y-39250904D01*
X95162714Y-37822333D02*
X95829380Y-37822333D01*
X94781761Y-38060428D02*
X95496047Y-38298523D01*
X95496047Y-37679476D01*
X86812380Y-39631857D02*
X86336190Y-39965190D01*
X86812380Y-40203285D02*
X85812380Y-40203285D01*
X85812380Y-39822333D01*
X85860000Y-39727095D01*
X85907619Y-39679476D01*
X86002857Y-39631857D01*
X86145714Y-39631857D01*
X86240952Y-39679476D01*
X86288571Y-39727095D01*
X86336190Y-39822333D01*
X86336190Y-40203285D01*
X86812380Y-38679476D02*
X86812380Y-39250904D01*
X86812380Y-38965190D02*
X85812380Y-38965190D01*
X85955238Y-39060428D01*
X86050476Y-39155666D01*
X86098095Y-39250904D01*
X85812380Y-37774714D02*
X85812380Y-38250904D01*
X86288571Y-38298523D01*
X86240952Y-38250904D01*
X86193333Y-38155666D01*
X86193333Y-37917571D01*
X86240952Y-37822333D01*
X86288571Y-37774714D01*
X86383809Y-37727095D01*
X86621904Y-37727095D01*
X86717142Y-37774714D01*
X86764761Y-37822333D01*
X86812380Y-37917571D01*
X86812380Y-38155666D01*
X86764761Y-38250904D01*
X86717142Y-38298523D01*
X93670380Y-39631857D02*
X93194190Y-39965190D01*
X93670380Y-40203285D02*
X92670380Y-40203285D01*
X92670380Y-39822333D01*
X92718000Y-39727095D01*
X92765619Y-39679476D01*
X92860857Y-39631857D01*
X93003714Y-39631857D01*
X93098952Y-39679476D01*
X93146571Y-39727095D01*
X93194190Y-39822333D01*
X93194190Y-40203285D01*
X93670380Y-38679476D02*
X93670380Y-39250904D01*
X93670380Y-38965190D02*
X92670380Y-38965190D01*
X92813238Y-39060428D01*
X92908476Y-39155666D01*
X92956095Y-39250904D01*
X92670380Y-37822333D02*
X92670380Y-38012809D01*
X92718000Y-38108047D01*
X92765619Y-38155666D01*
X92908476Y-38250904D01*
X93098952Y-38298523D01*
X93479904Y-38298523D01*
X93575142Y-38250904D01*
X93622761Y-38203285D01*
X93670380Y-38108047D01*
X93670380Y-37917571D01*
X93622761Y-37822333D01*
X93575142Y-37774714D01*
X93479904Y-37727095D01*
X93241809Y-37727095D01*
X93146571Y-37774714D01*
X93098952Y-37822333D01*
X93051333Y-37917571D01*
X93051333Y-38108047D01*
X93098952Y-38203285D01*
X93146571Y-38250904D01*
X93241809Y-38298523D01*
X89225380Y-39631857D02*
X88749190Y-39965190D01*
X89225380Y-40203285D02*
X88225380Y-40203285D01*
X88225380Y-39822333D01*
X88273000Y-39727095D01*
X88320619Y-39679476D01*
X88415857Y-39631857D01*
X88558714Y-39631857D01*
X88653952Y-39679476D01*
X88701571Y-39727095D01*
X88749190Y-39822333D01*
X88749190Y-40203285D01*
X89225380Y-38679476D02*
X89225380Y-39250904D01*
X89225380Y-38965190D02*
X88225380Y-38965190D01*
X88368238Y-39060428D01*
X88463476Y-39155666D01*
X88511095Y-39250904D01*
X88225380Y-38346142D02*
X88225380Y-37679476D01*
X89225380Y-38108047D01*
X103068380Y-39631857D02*
X102592190Y-39965190D01*
X103068380Y-40203285D02*
X102068380Y-40203285D01*
X102068380Y-39822333D01*
X102116000Y-39727095D01*
X102163619Y-39679476D01*
X102258857Y-39631857D01*
X102401714Y-39631857D01*
X102496952Y-39679476D01*
X102544571Y-39727095D01*
X102592190Y-39822333D01*
X102592190Y-40203285D01*
X103068380Y-38679476D02*
X103068380Y-39250904D01*
X103068380Y-38965190D02*
X102068380Y-38965190D01*
X102211238Y-39060428D01*
X102306476Y-39155666D01*
X102354095Y-39250904D01*
X102496952Y-38108047D02*
X102449333Y-38203285D01*
X102401714Y-38250904D01*
X102306476Y-38298523D01*
X102258857Y-38298523D01*
X102163619Y-38250904D01*
X102116000Y-38203285D01*
X102068380Y-38108047D01*
X102068380Y-37917571D01*
X102116000Y-37822333D01*
X102163619Y-37774714D01*
X102258857Y-37727095D01*
X102306476Y-37727095D01*
X102401714Y-37774714D01*
X102449333Y-37822333D01*
X102496952Y-37917571D01*
X102496952Y-38108047D01*
X102544571Y-38203285D01*
X102592190Y-38250904D01*
X102687428Y-38298523D01*
X102877904Y-38298523D01*
X102973142Y-38250904D01*
X103020761Y-38203285D01*
X103068380Y-38108047D01*
X103068380Y-37917571D01*
X103020761Y-37822333D01*
X102973142Y-37774714D01*
X102877904Y-37727095D01*
X102687428Y-37727095D01*
X102592190Y-37774714D01*
X102544571Y-37822333D01*
X102496952Y-37917571D01*
X79700380Y-39631857D02*
X79224190Y-39965190D01*
X79700380Y-40203285D02*
X78700380Y-40203285D01*
X78700380Y-39822333D01*
X78748000Y-39727095D01*
X78795619Y-39679476D01*
X78890857Y-39631857D01*
X79033714Y-39631857D01*
X79128952Y-39679476D01*
X79176571Y-39727095D01*
X79224190Y-39822333D01*
X79224190Y-40203285D01*
X79700380Y-38679476D02*
X79700380Y-39250904D01*
X79700380Y-38965190D02*
X78700380Y-38965190D01*
X78843238Y-39060428D01*
X78938476Y-39155666D01*
X78986095Y-39250904D01*
X79700380Y-38203285D02*
X79700380Y-38012809D01*
X79652761Y-37917571D01*
X79605142Y-37869952D01*
X79462285Y-37774714D01*
X79271809Y-37727095D01*
X78890857Y-37727095D01*
X78795619Y-37774714D01*
X78748000Y-37822333D01*
X78700380Y-37917571D01*
X78700380Y-38108047D01*
X78748000Y-38203285D01*
X78795619Y-38250904D01*
X78890857Y-38298523D01*
X79128952Y-38298523D01*
X79224190Y-38250904D01*
X79271809Y-38203285D01*
X79319428Y-38108047D01*
X79319428Y-37917571D01*
X79271809Y-37822333D01*
X79224190Y-37774714D01*
X79128952Y-37727095D01*
X100782380Y-39631857D02*
X100306190Y-39965190D01*
X100782380Y-40203285D02*
X99782380Y-40203285D01*
X99782380Y-39822333D01*
X99830000Y-39727095D01*
X99877619Y-39679476D01*
X99972857Y-39631857D01*
X100115714Y-39631857D01*
X100210952Y-39679476D01*
X100258571Y-39727095D01*
X100306190Y-39822333D01*
X100306190Y-40203285D01*
X99877619Y-39250904D02*
X99830000Y-39203285D01*
X99782380Y-39108047D01*
X99782380Y-38869952D01*
X99830000Y-38774714D01*
X99877619Y-38727095D01*
X99972857Y-38679476D01*
X100068095Y-38679476D01*
X100210952Y-38727095D01*
X100782380Y-39298523D01*
X100782380Y-38679476D01*
X99782380Y-38060428D02*
X99782380Y-37965190D01*
X99830000Y-37869952D01*
X99877619Y-37822333D01*
X99972857Y-37774714D01*
X100163333Y-37727095D01*
X100401428Y-37727095D01*
X100591904Y-37774714D01*
X100687142Y-37822333D01*
X100734761Y-37869952D01*
X100782380Y-37965190D01*
X100782380Y-38060428D01*
X100734761Y-38155666D01*
X100687142Y-38203285D01*
X100591904Y-38250904D01*
X100401428Y-38298523D01*
X100163333Y-38298523D01*
X99972857Y-38250904D01*
X99877619Y-38203285D01*
X99830000Y-38155666D01*
X99782380Y-38060428D01*
X81986380Y-39631857D02*
X81510190Y-39965190D01*
X81986380Y-40203285D02*
X80986380Y-40203285D01*
X80986380Y-39822333D01*
X81034000Y-39727095D01*
X81081619Y-39679476D01*
X81176857Y-39631857D01*
X81319714Y-39631857D01*
X81414952Y-39679476D01*
X81462571Y-39727095D01*
X81510190Y-39822333D01*
X81510190Y-40203285D01*
X81081619Y-39250904D02*
X81034000Y-39203285D01*
X80986380Y-39108047D01*
X80986380Y-38869952D01*
X81034000Y-38774714D01*
X81081619Y-38727095D01*
X81176857Y-38679476D01*
X81272095Y-38679476D01*
X81414952Y-38727095D01*
X81986380Y-39298523D01*
X81986380Y-38679476D01*
X81986380Y-37727095D02*
X81986380Y-38298523D01*
X81986380Y-38012809D02*
X80986380Y-38012809D01*
X81129238Y-38108047D01*
X81224476Y-38203285D01*
X81272095Y-38298523D01*
X132707142Y-122753380D02*
X132373809Y-122277190D01*
X132135714Y-122753380D02*
X132135714Y-121753380D01*
X132516666Y-121753380D01*
X132611904Y-121801000D01*
X132659523Y-121848619D01*
X132707142Y-121943857D01*
X132707142Y-122086714D01*
X132659523Y-122181952D01*
X132611904Y-122229571D01*
X132516666Y-122277190D01*
X132135714Y-122277190D01*
X133088095Y-121848619D02*
X133135714Y-121801000D01*
X133230952Y-121753380D01*
X133469047Y-121753380D01*
X133564285Y-121801000D01*
X133611904Y-121848619D01*
X133659523Y-121943857D01*
X133659523Y-122039095D01*
X133611904Y-122181952D01*
X133040476Y-122753380D01*
X133659523Y-122753380D01*
X134040476Y-121848619D02*
X134088095Y-121801000D01*
X134183333Y-121753380D01*
X134421428Y-121753380D01*
X134516666Y-121801000D01*
X134564285Y-121848619D01*
X134611904Y-121943857D01*
X134611904Y-122039095D01*
X134564285Y-122181952D01*
X133992857Y-122753380D01*
X134611904Y-122753380D01*
X71064380Y-44076857D02*
X70588190Y-44410190D01*
X71064380Y-44648285D02*
X70064380Y-44648285D01*
X70064380Y-44267333D01*
X70112000Y-44172095D01*
X70159619Y-44124476D01*
X70254857Y-44076857D01*
X70397714Y-44076857D01*
X70492952Y-44124476D01*
X70540571Y-44172095D01*
X70588190Y-44267333D01*
X70588190Y-44648285D01*
X70159619Y-43695904D02*
X70112000Y-43648285D01*
X70064380Y-43553047D01*
X70064380Y-43314952D01*
X70112000Y-43219714D01*
X70159619Y-43172095D01*
X70254857Y-43124476D01*
X70350095Y-43124476D01*
X70492952Y-43172095D01*
X71064380Y-43743523D01*
X71064380Y-43124476D01*
X70064380Y-42791142D02*
X70064380Y-42172095D01*
X70445333Y-42505428D01*
X70445333Y-42362571D01*
X70492952Y-42267333D01*
X70540571Y-42219714D01*
X70635809Y-42172095D01*
X70873904Y-42172095D01*
X70969142Y-42219714D01*
X71016761Y-42267333D01*
X71064380Y-42362571D01*
X71064380Y-42648285D01*
X71016761Y-42743523D01*
X70969142Y-42791142D01*
X141168380Y-43568857D02*
X140692190Y-43902190D01*
X141168380Y-44140285D02*
X140168380Y-44140285D01*
X140168380Y-43759333D01*
X140216000Y-43664095D01*
X140263619Y-43616476D01*
X140358857Y-43568857D01*
X140501714Y-43568857D01*
X140596952Y-43616476D01*
X140644571Y-43664095D01*
X140692190Y-43759333D01*
X140692190Y-44140285D01*
X140263619Y-43187904D02*
X140216000Y-43140285D01*
X140168380Y-43045047D01*
X140168380Y-42806952D01*
X140216000Y-42711714D01*
X140263619Y-42664095D01*
X140358857Y-42616476D01*
X140454095Y-42616476D01*
X140596952Y-42664095D01*
X141168380Y-43235523D01*
X141168380Y-42616476D01*
X140501714Y-41759333D02*
X141168380Y-41759333D01*
X140120761Y-41997428D02*
X140835047Y-42235523D01*
X140835047Y-41616476D01*
X140914380Y-125864857D02*
X140438190Y-126198190D01*
X140914380Y-126436285D02*
X139914380Y-126436285D01*
X139914380Y-126055333D01*
X139962000Y-125960095D01*
X140009619Y-125912476D01*
X140104857Y-125864857D01*
X140247714Y-125864857D01*
X140342952Y-125912476D01*
X140390571Y-125960095D01*
X140438190Y-126055333D01*
X140438190Y-126436285D01*
X140009619Y-125483904D02*
X139962000Y-125436285D01*
X139914380Y-125341047D01*
X139914380Y-125102952D01*
X139962000Y-125007714D01*
X140009619Y-124960095D01*
X140104857Y-124912476D01*
X140200095Y-124912476D01*
X140342952Y-124960095D01*
X140914380Y-125531523D01*
X140914380Y-124912476D01*
X139914380Y-124007714D02*
X139914380Y-124483904D01*
X140390571Y-124531523D01*
X140342952Y-124483904D01*
X140295333Y-124388666D01*
X140295333Y-124150571D01*
X140342952Y-124055333D01*
X140390571Y-124007714D01*
X140485809Y-123960095D01*
X140723904Y-123960095D01*
X140819142Y-124007714D01*
X140866761Y-124055333D01*
X140914380Y-124150571D01*
X140914380Y-124388666D01*
X140866761Y-124483904D01*
X140819142Y-124531523D01*
X129786142Y-80208380D02*
X129452809Y-79732190D01*
X129214714Y-80208380D02*
X129214714Y-79208380D01*
X129595666Y-79208380D01*
X129690904Y-79256000D01*
X129738523Y-79303619D01*
X129786142Y-79398857D01*
X129786142Y-79541714D01*
X129738523Y-79636952D01*
X129690904Y-79684571D01*
X129595666Y-79732190D01*
X129214714Y-79732190D01*
X130167095Y-79303619D02*
X130214714Y-79256000D01*
X130309952Y-79208380D01*
X130548047Y-79208380D01*
X130643285Y-79256000D01*
X130690904Y-79303619D01*
X130738523Y-79398857D01*
X130738523Y-79494095D01*
X130690904Y-79636952D01*
X130119476Y-80208380D01*
X130738523Y-80208380D01*
X131595666Y-79208380D02*
X131405190Y-79208380D01*
X131309952Y-79256000D01*
X131262333Y-79303619D01*
X131167095Y-79446476D01*
X131119476Y-79636952D01*
X131119476Y-80017904D01*
X131167095Y-80113142D01*
X131214714Y-80160761D01*
X131309952Y-80208380D01*
X131500428Y-80208380D01*
X131595666Y-80160761D01*
X131643285Y-80113142D01*
X131690904Y-80017904D01*
X131690904Y-79779809D01*
X131643285Y-79684571D01*
X131595666Y-79636952D01*
X131500428Y-79589333D01*
X131309952Y-79589333D01*
X131214714Y-79636952D01*
X131167095Y-79684571D01*
X131119476Y-79779809D01*
X129659142Y-70556380D02*
X129325809Y-70080190D01*
X129087714Y-70556380D02*
X129087714Y-69556380D01*
X129468666Y-69556380D01*
X129563904Y-69604000D01*
X129611523Y-69651619D01*
X129659142Y-69746857D01*
X129659142Y-69889714D01*
X129611523Y-69984952D01*
X129563904Y-70032571D01*
X129468666Y-70080190D01*
X129087714Y-70080190D01*
X130040095Y-69651619D02*
X130087714Y-69604000D01*
X130182952Y-69556380D01*
X130421047Y-69556380D01*
X130516285Y-69604000D01*
X130563904Y-69651619D01*
X130611523Y-69746857D01*
X130611523Y-69842095D01*
X130563904Y-69984952D01*
X129992476Y-70556380D01*
X130611523Y-70556380D01*
X130944857Y-69556380D02*
X131611523Y-69556380D01*
X131182952Y-70556380D01*
X141922666Y-121816761D02*
X142065523Y-121864380D01*
X142303619Y-121864380D01*
X142398857Y-121816761D01*
X142446476Y-121769142D01*
X142494095Y-121673904D01*
X142494095Y-121578666D01*
X142446476Y-121483428D01*
X142398857Y-121435809D01*
X142303619Y-121388190D01*
X142113142Y-121340571D01*
X142017904Y-121292952D01*
X141970285Y-121245333D01*
X141922666Y-121150095D01*
X141922666Y-121054857D01*
X141970285Y-120959619D01*
X142017904Y-120912000D01*
X142113142Y-120864380D01*
X142351238Y-120864380D01*
X142494095Y-120912000D01*
X142827428Y-120864380D02*
X143065523Y-121864380D01*
X143256000Y-121150095D01*
X143446476Y-121864380D01*
X143684571Y-120864380D01*
X144017904Y-120959619D02*
X144065523Y-120912000D01*
X144160761Y-120864380D01*
X144398857Y-120864380D01*
X144494095Y-120912000D01*
X144541714Y-120959619D01*
X144589333Y-121054857D01*
X144589333Y-121150095D01*
X144541714Y-121292952D01*
X143970285Y-121864380D01*
X144589333Y-121864380D01*
X132270666Y-75207761D02*
X132413523Y-75255380D01*
X132651619Y-75255380D01*
X132746857Y-75207761D01*
X132794476Y-75160142D01*
X132842095Y-75064904D01*
X132842095Y-74969666D01*
X132794476Y-74874428D01*
X132746857Y-74826809D01*
X132651619Y-74779190D01*
X132461142Y-74731571D01*
X132365904Y-74683952D01*
X132318285Y-74636333D01*
X132270666Y-74541095D01*
X132270666Y-74445857D01*
X132318285Y-74350619D01*
X132365904Y-74303000D01*
X132461142Y-74255380D01*
X132699238Y-74255380D01*
X132842095Y-74303000D01*
X133175428Y-74255380D02*
X133413523Y-75255380D01*
X133604000Y-74541095D01*
X133794476Y-75255380D01*
X134032571Y-74255380D01*
X134318285Y-74255380D02*
X134937333Y-74255380D01*
X134604000Y-74636333D01*
X134746857Y-74636333D01*
X134842095Y-74683952D01*
X134889714Y-74731571D01*
X134937333Y-74826809D01*
X134937333Y-75064904D01*
X134889714Y-75160142D01*
X134842095Y-75207761D01*
X134746857Y-75255380D01*
X134461142Y-75255380D01*
X134365904Y-75207761D01*
X134318285Y-75160142D01*
X132651666Y-64539761D02*
X132794523Y-64587380D01*
X133032619Y-64587380D01*
X133127857Y-64539761D01*
X133175476Y-64492142D01*
X133223095Y-64396904D01*
X133223095Y-64301666D01*
X133175476Y-64206428D01*
X133127857Y-64158809D01*
X133032619Y-64111190D01*
X132842142Y-64063571D01*
X132746904Y-64015952D01*
X132699285Y-63968333D01*
X132651666Y-63873095D01*
X132651666Y-63777857D01*
X132699285Y-63682619D01*
X132746904Y-63635000D01*
X132842142Y-63587380D01*
X133080238Y-63587380D01*
X133223095Y-63635000D01*
X133556428Y-63587380D02*
X133794523Y-64587380D01*
X133985000Y-63873095D01*
X134175476Y-64587380D01*
X134413571Y-63587380D01*
X135223095Y-63920714D02*
X135223095Y-64587380D01*
X134985000Y-63539761D02*
X134746904Y-64254047D01*
X135365952Y-64254047D01*
X124968095Y-130770380D02*
X124968095Y-131579904D01*
X125015714Y-131675142D01*
X125063333Y-131722761D01*
X125158571Y-131770380D01*
X125349047Y-131770380D01*
X125444285Y-131722761D01*
X125491904Y-131675142D01*
X125539523Y-131579904D01*
X125539523Y-130770380D01*
X126539523Y-131770380D02*
X125968095Y-131770380D01*
X126253809Y-131770380D02*
X126253809Y-130770380D01*
X126158571Y-130913238D01*
X126063333Y-131008476D01*
X125968095Y-131056095D01*
X123237666Y-118197380D02*
X123237666Y-118911666D01*
X123190047Y-119054523D01*
X123094809Y-119149761D01*
X122951952Y-119197380D01*
X122856714Y-119197380D01*
X124142428Y-118197380D02*
X123951952Y-118197380D01*
X123856714Y-118245000D01*
X123809095Y-118292619D01*
X123713857Y-118435476D01*
X123666238Y-118625952D01*
X123666238Y-119006904D01*
X123713857Y-119102142D01*
X123761476Y-119149761D01*
X123856714Y-119197380D01*
X124047190Y-119197380D01*
X124142428Y-119149761D01*
X124190047Y-119102142D01*
X124237666Y-119006904D01*
X124237666Y-118768809D01*
X124190047Y-118673571D01*
X124142428Y-118625952D01*
X124047190Y-118578333D01*
X123856714Y-118578333D01*
X123761476Y-118625952D01*
X123713857Y-118673571D01*
X123666238Y-118768809D01*
X81327666Y-144613380D02*
X81327666Y-145327666D01*
X81280047Y-145470523D01*
X81184809Y-145565761D01*
X81041952Y-145613380D01*
X80946714Y-145613380D01*
X81946714Y-145041952D02*
X81851476Y-144994333D01*
X81803857Y-144946714D01*
X81756238Y-144851476D01*
X81756238Y-144803857D01*
X81803857Y-144708619D01*
X81851476Y-144661000D01*
X81946714Y-144613380D01*
X82137190Y-144613380D01*
X82232428Y-144661000D01*
X82280047Y-144708619D01*
X82327666Y-144803857D01*
X82327666Y-144851476D01*
X82280047Y-144946714D01*
X82232428Y-144994333D01*
X82137190Y-145041952D01*
X81946714Y-145041952D01*
X81851476Y-145089571D01*
X81803857Y-145137190D01*
X81756238Y-145232428D01*
X81756238Y-145422904D01*
X81803857Y-145518142D01*
X81851476Y-145565761D01*
X81946714Y-145613380D01*
X82137190Y-145613380D01*
X82232428Y-145565761D01*
X82280047Y-145518142D01*
X82327666Y-145422904D01*
X82327666Y-145232428D01*
X82280047Y-145137190D01*
X82232428Y-145089571D01*
X82137190Y-145041952D01*
X59896476Y-29297380D02*
X59896476Y-30011666D01*
X59848857Y-30154523D01*
X59753619Y-30249761D01*
X59610761Y-30297380D01*
X59515523Y-30297380D01*
X60896476Y-30297380D02*
X60325047Y-30297380D01*
X60610761Y-30297380D02*
X60610761Y-29297380D01*
X60515523Y-29440238D01*
X60420285Y-29535476D01*
X60325047Y-29583095D01*
X61277428Y-29392619D02*
X61325047Y-29345000D01*
X61420285Y-29297380D01*
X61658380Y-29297380D01*
X61753619Y-29345000D01*
X61801238Y-29392619D01*
X61848857Y-29487857D01*
X61848857Y-29583095D01*
X61801238Y-29725952D01*
X61229809Y-30297380D01*
X61848857Y-30297380D01*
X145875476Y-29297380D02*
X145875476Y-30011666D01*
X145827857Y-30154523D01*
X145732619Y-30249761D01*
X145589761Y-30297380D01*
X145494523Y-30297380D01*
X146875476Y-30297380D02*
X146304047Y-30297380D01*
X146589761Y-30297380D02*
X146589761Y-29297380D01*
X146494523Y-29440238D01*
X146399285Y-29535476D01*
X146304047Y-29583095D01*
X147208809Y-29297380D02*
X147827857Y-29297380D01*
X147494523Y-29678333D01*
X147637380Y-29678333D01*
X147732619Y-29725952D01*
X147780238Y-29773571D01*
X147827857Y-29868809D01*
X147827857Y-30106904D01*
X147780238Y-30202142D01*
X147732619Y-30249761D01*
X147637380Y-30297380D01*
X147351666Y-30297380D01*
X147256428Y-30249761D01*
X147208809Y-30202142D01*
X78438476Y-33996380D02*
X78438476Y-34710666D01*
X78390857Y-34853523D01*
X78295619Y-34948761D01*
X78152761Y-34996380D01*
X78057523Y-34996380D01*
X79438476Y-34996380D02*
X78867047Y-34996380D01*
X79152761Y-34996380D02*
X79152761Y-33996380D01*
X79057523Y-34139238D01*
X78962285Y-34234476D01*
X78867047Y-34282095D01*
X80295619Y-34329714D02*
X80295619Y-34996380D01*
X80057523Y-33948761D02*
X79819428Y-34663047D01*
X80438476Y-34663047D01*
X62944476Y-130135380D02*
X62944476Y-130849666D01*
X62896857Y-130992523D01*
X62801619Y-131087761D01*
X62658761Y-131135380D01*
X62563523Y-131135380D01*
X63944476Y-131135380D02*
X63373047Y-131135380D01*
X63658761Y-131135380D02*
X63658761Y-130135380D01*
X63563523Y-130278238D01*
X63468285Y-130373476D01*
X63373047Y-130421095D01*
X64420666Y-131135380D02*
X64611142Y-131135380D01*
X64706380Y-131087761D01*
X64754000Y-131040142D01*
X64849238Y-130897285D01*
X64896857Y-130706809D01*
X64896857Y-130325857D01*
X64849238Y-130230619D01*
X64801619Y-130183000D01*
X64706380Y-130135380D01*
X64515904Y-130135380D01*
X64420666Y-130183000D01*
X64373047Y-130230619D01*
X64325428Y-130325857D01*
X64325428Y-130563952D01*
X64373047Y-130659190D01*
X64420666Y-130706809D01*
X64515904Y-130754428D01*
X64706380Y-130754428D01*
X64801619Y-130706809D01*
X64849238Y-130659190D01*
X64896857Y-130563952D01*
X127714476Y-34377380D02*
X127714476Y-35091666D01*
X127666857Y-35234523D01*
X127571619Y-35329761D01*
X127428761Y-35377380D01*
X127333523Y-35377380D01*
X128714476Y-35377380D02*
X128143047Y-35377380D01*
X128428761Y-35377380D02*
X128428761Y-34377380D01*
X128333523Y-34520238D01*
X128238285Y-34615476D01*
X128143047Y-34663095D01*
X129619238Y-34377380D02*
X129143047Y-34377380D01*
X129095428Y-34853571D01*
X129143047Y-34805952D01*
X129238285Y-34758333D01*
X129476380Y-34758333D01*
X129571619Y-34805952D01*
X129619238Y-34853571D01*
X129666857Y-34948809D01*
X129666857Y-35186904D01*
X129619238Y-35282142D01*
X129571619Y-35329761D01*
X129476380Y-35377380D01*
X129238285Y-35377380D01*
X129143047Y-35329761D01*
X129095428Y-35282142D01*
M02*
