G04 #@! TF.GenerationSoftware,KiCad,Pcbnew,5.1.2*
G04 #@! TF.CreationDate,2019-06-14T00:31:34-07:00*
G04 #@! TF.ProjectId,tinyfpga-raspi-romi-board,74696e79-6670-4676-912d-72617370692d,rev?*
G04 #@! TF.SameCoordinates,Original*
G04 #@! TF.FileFunction,Copper,L2,Bot*
G04 #@! TF.FilePolarity,Positive*
%FSLAX46Y46*%
G04 Gerber Fmt 4.6, Leading zero omitted, Abs format (unit mm)*
G04 Created by KiCad (PCBNEW 5.1.2) date 2019-06-14 00:31:34*
%MOMM*%
%LPD*%
G04 APERTURE LIST*
%ADD10R,1.800000X1.800000*%
%ADD11C,1.800000*%
%ADD12O,1.500000X3.000000*%
%ADD13R,1.600000X1.600000*%
%ADD14C,1.600000*%
%ADD15R,1.700000X1.700000*%
%ADD16O,1.700000X1.700000*%
%ADD17R,1.050000X1.500000*%
%ADD18O,1.050000X1.500000*%
%ADD19O,1.400000X1.400000*%
%ADD20C,1.400000*%
%ADD21C,1.400000*%
%ADD22C,2.000000*%
%ADD23R,1.000000X3.150000*%
%ADD24C,1.700000*%
%ADD25C,0.100000*%
%ADD26C,1.700000*%
%ADD27R,1.000000X2.510000*%
G04 APERTURE END LIST*
D10*
X127373380Y-56685180D03*
D11*
X129913380Y-56685180D03*
D12*
X108155000Y-120015000D03*
X109855000Y-120015000D03*
X111555000Y-120015000D03*
X113255000Y-120015000D03*
X114955000Y-120015000D03*
D13*
X126365000Y-122555000D03*
D14*
X126365000Y-120555000D03*
X119380000Y-130810000D03*
X119380000Y-128310000D03*
D11*
X122928380Y-56685180D03*
D10*
X120388380Y-56685180D03*
D11*
X115943380Y-56685180D03*
D10*
X113403380Y-56685180D03*
X106418380Y-56685180D03*
D11*
X108958380Y-56685180D03*
D10*
X92448380Y-56685180D03*
D11*
X94988380Y-56685180D03*
X88003380Y-56685180D03*
D10*
X85463380Y-56685180D03*
X99433380Y-56685180D03*
D11*
X101973380Y-56685180D03*
X81018380Y-56685180D03*
D10*
X78478380Y-56685180D03*
D15*
X87630000Y-83185000D03*
D16*
X90170000Y-83185000D03*
X92710000Y-83185000D03*
X95250000Y-83185000D03*
X97790000Y-83185000D03*
X100330000Y-83185000D03*
X102870000Y-83185000D03*
X105410000Y-83185000D03*
X107950000Y-83185000D03*
X110490000Y-83185000D03*
X113030000Y-83185000D03*
X115570000Y-83185000D03*
X118110000Y-83185000D03*
X120650000Y-83185000D03*
X120650000Y-98425000D03*
X118110000Y-98425000D03*
X115570000Y-98425000D03*
X113030000Y-98425000D03*
X110490000Y-98425000D03*
X107950000Y-98425000D03*
X105410000Y-98425000D03*
X102870000Y-98425000D03*
X100330000Y-98425000D03*
X97790000Y-98425000D03*
X95250000Y-98425000D03*
X92710000Y-98425000D03*
X90170000Y-98425000D03*
D15*
X87630000Y-98425000D03*
X102235000Y-144780000D03*
D16*
X102235000Y-147320000D03*
X104775000Y-144780000D03*
X104775000Y-147320000D03*
X107315000Y-144780000D03*
X107315000Y-147320000D03*
X109855000Y-144780000D03*
X109855000Y-147320000D03*
X112395000Y-144780000D03*
X112395000Y-147320000D03*
X114935000Y-144780000D03*
X114935000Y-147320000D03*
X117475000Y-144780000D03*
X117475000Y-147320000D03*
X120015000Y-144780000D03*
X120015000Y-147320000D03*
X122555000Y-144780000D03*
X122555000Y-147320000D03*
X125095000Y-144780000D03*
X125095000Y-147320000D03*
X127635000Y-144780000D03*
X127635000Y-147320000D03*
X130175000Y-144780000D03*
X130175000Y-147320000D03*
X132715000Y-144780000D03*
X132715000Y-147320000D03*
X135255000Y-144780000D03*
X135255000Y-147320000D03*
X137795000Y-144780000D03*
X137795000Y-147320000D03*
X140335000Y-144780000D03*
X140335000Y-147320000D03*
X142875000Y-144780000D03*
X142875000Y-147320000D03*
X145415000Y-144780000D03*
X145415000Y-147320000D03*
X147955000Y-144780000D03*
X147955000Y-147320000D03*
X150495000Y-144780000D03*
X150495000Y-147320000D03*
D15*
X78740000Y-106680000D03*
D16*
X78740000Y-104140000D03*
X78740000Y-101600000D03*
X129540000Y-106680000D03*
X129540000Y-104140000D03*
D15*
X129540000Y-101600000D03*
D16*
X92710000Y-113030000D03*
X95250000Y-113030000D03*
D15*
X97790000Y-113030000D03*
X95250000Y-118745000D03*
D16*
X92710000Y-118745000D03*
X90170000Y-118745000D03*
D17*
X129913380Y-63035180D03*
D18*
X127373380Y-63035180D03*
X128643380Y-63035180D03*
X121658380Y-63035180D03*
X120388380Y-63035180D03*
D17*
X122928380Y-63035180D03*
D18*
X114673380Y-63035180D03*
X113403380Y-63035180D03*
D17*
X115943380Y-63035180D03*
D18*
X107688380Y-63035180D03*
X106418380Y-63035180D03*
D17*
X108958380Y-63035180D03*
D18*
X93718380Y-63035180D03*
X92448380Y-63035180D03*
D17*
X94988380Y-63035180D03*
X88003380Y-63035180D03*
D18*
X85463380Y-63035180D03*
X86733380Y-63035180D03*
D17*
X101973380Y-63035180D03*
D18*
X99433380Y-63035180D03*
X100703380Y-63035180D03*
D17*
X81018380Y-63035180D03*
D18*
X78478380Y-63035180D03*
X79748380Y-63035180D03*
D19*
X151130000Y-132080000D03*
D20*
X148590000Y-132080000D03*
X148590000Y-127635000D03*
D19*
X151130000Y-127635000D03*
D20*
X127373380Y-69385180D03*
D19*
X129913380Y-69385180D03*
D20*
X124460000Y-113665000D03*
D19*
X121920000Y-113665000D03*
D20*
X120453379Y-69385180D03*
D19*
X122993379Y-69385180D03*
X129913380Y-75100180D03*
D20*
X127373380Y-75100180D03*
X120388380Y-75100180D03*
D19*
X122928380Y-75100180D03*
D20*
X113403380Y-69385180D03*
D19*
X115943380Y-69385180D03*
D20*
X120123949Y-45611051D03*
D21*
X120123949Y-45611051D02*
X120123949Y-45611051D01*
D20*
X121920000Y-43815000D03*
X87521051Y-45611051D03*
D21*
X87521051Y-45611051D02*
X87521051Y-45611051D01*
D20*
X85725000Y-43815000D03*
X106418380Y-69385180D03*
D19*
X108958380Y-69385180D03*
X115943380Y-75100180D03*
D20*
X113403380Y-75100180D03*
D19*
X108958380Y-75100180D03*
D20*
X106418380Y-75100180D03*
X92448380Y-69385180D03*
D19*
X94988380Y-69385180D03*
X88003380Y-75100180D03*
D20*
X85463380Y-75100180D03*
X92448380Y-75100180D03*
D19*
X94988380Y-75100180D03*
D20*
X85463380Y-69385180D03*
D19*
X88003380Y-69385180D03*
D20*
X99433380Y-69385180D03*
D19*
X101973380Y-69385180D03*
X81018380Y-75100180D03*
D20*
X78478380Y-75100180D03*
D19*
X101973380Y-75100180D03*
D20*
X99433380Y-75100180D03*
D19*
X81018380Y-69385180D03*
D20*
X78478380Y-69385180D03*
X148590000Y-123190000D03*
D19*
X151130000Y-123190000D03*
D20*
X118218949Y-43706051D03*
X120015000Y-41910000D03*
D21*
X120015000Y-41910000D02*
X120015000Y-41910000D01*
D20*
X87738949Y-41910000D03*
D21*
X87738949Y-41910000D02*
X87738949Y-41910000D01*
D20*
X89535000Y-43706051D03*
D19*
X87256620Y-133350000D03*
D20*
X84716620Y-133350000D03*
X58046620Y-133350000D03*
D19*
X60586620Y-133350000D03*
X73921620Y-133350000D03*
D20*
X71381620Y-133350000D03*
D22*
X89311620Y-138894820D03*
X89311620Y-143394820D03*
X82811620Y-138894820D03*
X82811620Y-143394820D03*
X56141620Y-143394820D03*
X56141620Y-138894820D03*
X62641620Y-143394820D03*
X62641620Y-138894820D03*
X75976620Y-138894820D03*
X75976620Y-143394820D03*
X69476620Y-138894820D03*
X69476620Y-143394820D03*
D15*
X142875000Y-122555000D03*
D16*
X140335000Y-122555000D03*
X102870000Y-128270000D03*
D15*
X102870000Y-130810000D03*
D23*
X95618300Y-128989060D03*
X95618300Y-123939060D03*
X93078300Y-128989060D03*
X93078300Y-123939060D03*
X90538300Y-128989060D03*
X90538300Y-123939060D03*
X87998300Y-128989060D03*
X87998300Y-123939060D03*
X85458300Y-128989060D03*
X85458300Y-123939060D03*
D16*
X77470000Y-32385000D03*
X80010000Y-32385000D03*
X77470000Y-29845000D03*
D15*
X80010000Y-29845000D03*
X130810000Y-29845000D03*
D16*
X128270000Y-29845000D03*
X130810000Y-32385000D03*
X128270000Y-32385000D03*
D24*
X120015000Y-34925000D03*
D25*
G36*
X120015000Y-36127082D02*
G01*
X118812918Y-34925000D01*
X120015000Y-33722918D01*
X121217082Y-34925000D01*
X120015000Y-36127082D01*
X120015000Y-36127082D01*
G37*
D24*
X121811051Y-36721051D03*
D26*
X121811051Y-36721051D02*
X121811051Y-36721051D01*
D24*
X123607102Y-38517102D03*
D26*
X123607102Y-38517102D02*
X123607102Y-38517102D01*
D24*
X125403154Y-40313154D03*
D26*
X125403154Y-40313154D02*
X125403154Y-40313154D01*
D15*
X104775000Y-138430000D03*
D16*
X107315000Y-138430000D03*
X109855000Y-138430000D03*
X112395000Y-138430000D03*
X114935000Y-138430000D03*
X117475000Y-138430000D03*
X120015000Y-138430000D03*
X122555000Y-138430000D03*
X125095000Y-138430000D03*
X127635000Y-138430000D03*
X130175000Y-138430000D03*
X132715000Y-138430000D03*
X135255000Y-138430000D03*
X137795000Y-138430000D03*
X140335000Y-138430000D03*
X142875000Y-138430000D03*
X145415000Y-138430000D03*
X147955000Y-138430000D03*
D15*
X113665000Y-113665000D03*
D16*
X116205000Y-113665000D03*
D27*
X95618300Y-105939400D03*
X100698300Y-105939400D03*
X105778300Y-105939400D03*
X98158300Y-109249400D03*
X103238300Y-109249400D03*
X108318300Y-109249400D03*
D23*
X80378300Y-128989060D03*
X80378300Y-123939060D03*
X77838300Y-128989060D03*
X77838300Y-123939060D03*
X75298300Y-128989060D03*
X75298300Y-123939060D03*
D24*
X88265000Y-34925000D03*
D25*
G36*
X87062918Y-34925000D02*
G01*
X88265000Y-33722918D01*
X89467082Y-34925000D01*
X88265000Y-36127082D01*
X87062918Y-34925000D01*
X87062918Y-34925000D01*
G37*
D24*
X86468949Y-36721051D03*
D26*
X86468949Y-36721051D02*
X86468949Y-36721051D01*
D24*
X84672898Y-38517102D03*
D26*
X84672898Y-38517102D02*
X84672898Y-38517102D01*
D24*
X82876846Y-40313154D03*
D26*
X82876846Y-40313154D02*
X82876846Y-40313154D01*
M02*
