M48
; DRILL file {KiCad 5.1.2} date Wed 26 Jun 2019 12:59:25 AM PDT
; FORMAT={-:-/ absolute / metric / decimal}
; #@! TF.CreationDate,2019-06-26T00:59:25-07:00
; #@! TF.GenerationSoftware,Kicad,Pcbnew,5.1.2
FMAT,2
METRIC
T1C0.400
T2C0.700
T3C0.750
T4C0.800
T5C0.900
T6C1.000
T7C1.100
T8C1.190
T9C2.500
%
G90
G05
T1
X112.522Y-112.268
X115.824Y-100.965
X115.959Y-104.656
X116.912Y-103.704
T2
X114.173Y-41.902
X114.173Y-44.442
X95.461Y-41.902
X95.461Y-44.442
X93.218Y-41.902
X93.218Y-44.442
X102.573Y-41.902
X102.573Y-44.442
X132.207Y-124.587
X134.747Y-124.587
X132.207Y-127.381
X134.747Y-127.381
X81.788Y-132.969
X81.788Y-135.509
X140.462Y-37.465
X140.462Y-40.005
X100.33Y-41.902
X100.33Y-44.442
X129.032Y-72.263
X131.572Y-72.263
X137.922Y-37.592
X137.922Y-40.132
X132.207Y-130.175
X134.747Y-130.175
X121.158Y-41.902
X121.158Y-44.442
X68.326Y-37.846
X68.326Y-40.386
X107.188Y-41.902
X107.188Y-44.442
X81.491Y-41.902
X81.491Y-44.442
X70.739Y-37.719
X70.739Y-40.259
X123.401Y-41.902
X123.401Y-44.442
X86.233Y-41.902
X86.233Y-44.442
X88.476Y-41.902
X88.476Y-44.442
X79.248Y-41.902
X79.248Y-44.442
X142.621Y-124.841
X142.621Y-127.381
X129.159Y-77.089
X131.699Y-77.089
X128.143Y-41.902
X128.143Y-44.442
X109.431Y-41.902
X109.431Y-44.442
X130.386Y-41.902
X130.386Y-44.442
X116.416Y-41.902
X116.416Y-44.442
T3
X127.881Y-56.558
X129.151Y-56.558
X130.421Y-56.558
X99.941Y-56.558
X101.211Y-56.558
X102.481Y-56.558
X113.911Y-56.558
X115.181Y-56.558
X116.451Y-56.558
X120.896Y-56.558
X122.166Y-56.558
X123.436Y-56.558
X78.986Y-56.558
X80.256Y-56.558
X81.526Y-56.558
X92.956Y-56.558
X94.226Y-56.558
X95.496Y-56.558
X85.971Y-56.558
X87.241Y-56.558
X88.511Y-56.558
X106.926Y-56.558
X108.196Y-56.558
X109.466Y-56.558
T4
X89.789Y-137.446
X89.789Y-139.446
X84.963Y-137.073
X84.963Y-139.573
T5
X99.941Y-50.208
X102.481Y-50.208
X127.881Y-50.208
X130.421Y-50.208
X78.986Y-50.208
X81.526Y-50.208
X106.926Y-50.208
X109.466Y-50.208
X85.971Y-50.208
X88.511Y-50.208
X120.896Y-50.208
X123.436Y-50.208
X113.911Y-50.208
X116.451Y-50.208
X92.956Y-50.208
X95.496Y-50.208
T6
X62.598Y-125.194
X62.598Y-127.734
X65.138Y-125.194
X65.138Y-127.734
X67.678Y-125.194
X67.678Y-127.734
X70.218Y-125.194
X70.218Y-127.734
X72.758Y-125.194
X72.758Y-127.734
X75.298Y-125.194
X75.298Y-127.734
X77.838Y-125.194
X77.838Y-127.734
X80.378Y-125.194
X80.378Y-127.734
X90.17Y-90.805
X90.17Y-93.345
X92.71Y-90.805
X92.71Y-93.345
X95.25Y-90.805
X95.25Y-93.345
X75.946Y-145.161
X78.486Y-145.161
X85.458Y-125.194
X85.458Y-127.734
X87.998Y-125.194
X87.998Y-127.734
X90.538Y-125.194
X90.538Y-127.734
X93.078Y-125.194
X93.078Y-127.734
X95.618Y-125.194
X95.618Y-127.734
X78.74Y-101.6
X78.74Y-104.14
X78.74Y-106.68
X108.839Y-127.0
X111.379Y-127.0
X113.919Y-127.0
X59.69Y-32.258
X59.69Y-34.798
X62.23Y-32.258
X62.23Y-34.798
X102.87Y-88.265
X102.87Y-90.805
X105.41Y-88.265
X105.41Y-90.805
X107.95Y-88.265
X107.95Y-90.805
X110.49Y-88.265
X110.49Y-90.805
X113.03Y-88.265
X113.03Y-90.805
X115.57Y-88.265
X115.57Y-90.805
X118.11Y-88.265
X118.11Y-90.805
X120.65Y-88.265
X120.65Y-90.805
X145.415Y-32.258
X145.415Y-34.798
X147.955Y-32.258
X147.955Y-34.798
X102.235Y-144.78
X102.235Y-147.32
X104.775Y-144.78
X104.775Y-147.32
X107.315Y-144.78
X107.315Y-147.32
X109.855Y-144.78
X109.855Y-147.32
X112.395Y-144.78
X112.395Y-147.32
X114.935Y-144.78
X114.935Y-147.32
X117.475Y-144.78
X117.475Y-147.32
X120.015Y-144.78
X120.015Y-147.32
X122.555Y-144.78
X122.555Y-147.32
X125.095Y-144.78
X125.095Y-147.32
X127.635Y-144.78
X127.635Y-147.32
X130.175Y-144.78
X130.175Y-147.32
X132.715Y-144.78
X132.715Y-147.32
X135.255Y-144.78
X135.255Y-147.32
X137.795Y-144.78
X137.795Y-147.32
X140.335Y-144.78
X140.335Y-147.32
X142.875Y-144.78
X142.875Y-147.32
X145.415Y-144.78
X145.415Y-147.32
X147.955Y-144.78
X147.955Y-147.32
X150.495Y-144.78
X150.495Y-147.32
X123.952Y-121.666
X126.492Y-121.666
X95.618Y-107.594
X98.158Y-107.594
X100.698Y-107.594
X103.238Y-107.594
X105.778Y-107.594
X108.318Y-107.594
X87.63Y-98.425
X90.17Y-98.425
X92.71Y-98.425
X95.25Y-98.425
X97.79Y-98.425
X100.33Y-98.425
X102.87Y-98.425
X105.41Y-98.425
X107.95Y-98.425
X110.49Y-98.425
X113.03Y-98.425
X115.57Y-98.425
X118.11Y-98.425
X120.65Y-98.425
X63.881Y-133.477
X63.881Y-136.017
X129.54Y-101.6
X129.54Y-104.14
X129.54Y-106.68
X68.326Y-32.766
X70.673Y-33.738
X73.019Y-34.71
X75.366Y-35.682
X132.279Y-35.809
X134.626Y-34.837
X136.972Y-33.865
X139.319Y-32.893
X87.63Y-83.185
X90.17Y-83.185
X92.71Y-83.185
X95.25Y-83.185
X97.79Y-83.185
X100.33Y-83.185
X102.87Y-83.185
X105.41Y-83.185
X107.95Y-83.185
X110.49Y-83.185
X113.03Y-83.185
X115.57Y-83.185
X118.11Y-83.185
X120.65Y-83.185
X108.839Y-131.699
X111.379Y-131.699
X113.919Y-131.699
T7
X137.129Y-72.505
X137.129Y-77.005
X143.629Y-72.505
X143.629Y-77.005
X137.129Y-61.837
X137.129Y-66.337
X143.629Y-61.837
X143.629Y-66.337
X146.947Y-122.258
X146.947Y-126.758
X153.447Y-122.258
X153.447Y-126.758
T8
X70.641Y-133.985
X72.341Y-133.985
X74.041Y-133.985
X75.741Y-133.985
X77.441Y-133.985
T9
X84.201Y-114.173
X141.605Y-52.451
X66.675Y-52.451
X149.143Y-133.4
T0
M30
