G04 #@! TF.GenerationSoftware,KiCad,Pcbnew,5.1.2*
G04 #@! TF.CreationDate,2019-06-14T00:31:34-07:00*
G04 #@! TF.ProjectId,tinyfpga-raspi-romi-board,74696e79-6670-4676-912d-72617370692d,rev?*
G04 #@! TF.SameCoordinates,Original*
G04 #@! TF.FileFunction,Paste,Top*
G04 #@! TF.FilePolarity,Positive*
%FSLAX46Y46*%
G04 Gerber Fmt 4.6, Leading zero omitted, Abs format (unit mm)*
G04 Created by KiCad (PCBNEW 5.1.2) date 2019-06-14 00:31:34*
%MOMM*%
%LPD*%
G04 APERTURE LIST*
%ADD10R,3.500000X2.300000*%
%ADD11C,0.100000*%
%ADD12C,1.300000*%
%ADD13C,0.600000*%
%ADD14R,1.000000X3.000000*%
G04 APERTURE END LIST*
D10*
X125570000Y-129540000D03*
X130970000Y-129540000D03*
D11*
G36*
X112599504Y-131751204D02*
G01*
X112623773Y-131754804D01*
X112647571Y-131760765D01*
X112670671Y-131769030D01*
X112692849Y-131779520D01*
X112713893Y-131792133D01*
X112733598Y-131806747D01*
X112751777Y-131823223D01*
X112768253Y-131841402D01*
X112782867Y-131861107D01*
X112795480Y-131882151D01*
X112805970Y-131904329D01*
X112814235Y-131927429D01*
X112820196Y-131951227D01*
X112823796Y-131975496D01*
X112825000Y-132000000D01*
X112825000Y-132800000D01*
X112823796Y-132824504D01*
X112820196Y-132848773D01*
X112814235Y-132872571D01*
X112805970Y-132895671D01*
X112795480Y-132917849D01*
X112782867Y-132938893D01*
X112768253Y-132958598D01*
X112751777Y-132976777D01*
X112733598Y-132993253D01*
X112713893Y-133007867D01*
X112692849Y-133020480D01*
X112670671Y-133030970D01*
X112647571Y-133039235D01*
X112623773Y-133045196D01*
X112599504Y-133048796D01*
X112575000Y-133050000D01*
X109675000Y-133050000D01*
X109650496Y-133048796D01*
X109626227Y-133045196D01*
X109602429Y-133039235D01*
X109579329Y-133030970D01*
X109557151Y-133020480D01*
X109536107Y-133007867D01*
X109516402Y-132993253D01*
X109498223Y-132976777D01*
X109481747Y-132958598D01*
X109467133Y-132938893D01*
X109454520Y-132917849D01*
X109444030Y-132895671D01*
X109435765Y-132872571D01*
X109429804Y-132848773D01*
X109426204Y-132824504D01*
X109425000Y-132800000D01*
X109425000Y-132000000D01*
X109426204Y-131975496D01*
X109429804Y-131951227D01*
X109435765Y-131927429D01*
X109444030Y-131904329D01*
X109454520Y-131882151D01*
X109467133Y-131861107D01*
X109481747Y-131841402D01*
X109498223Y-131823223D01*
X109516402Y-131806747D01*
X109536107Y-131792133D01*
X109557151Y-131779520D01*
X109579329Y-131769030D01*
X109602429Y-131760765D01*
X109626227Y-131754804D01*
X109650496Y-131751204D01*
X109675000Y-131750000D01*
X112575000Y-131750000D01*
X112599504Y-131751204D01*
X112599504Y-131751204D01*
G37*
D12*
X111125000Y-132400000D03*
D11*
G36*
X112599504Y-127301204D02*
G01*
X112623773Y-127304804D01*
X112647571Y-127310765D01*
X112670671Y-127319030D01*
X112692849Y-127329520D01*
X112713893Y-127342133D01*
X112733598Y-127356747D01*
X112751777Y-127373223D01*
X112768253Y-127391402D01*
X112782867Y-127411107D01*
X112795480Y-127432151D01*
X112805970Y-127454329D01*
X112814235Y-127477429D01*
X112820196Y-127501227D01*
X112823796Y-127525496D01*
X112825000Y-127550000D01*
X112825000Y-128350000D01*
X112823796Y-128374504D01*
X112820196Y-128398773D01*
X112814235Y-128422571D01*
X112805970Y-128445671D01*
X112795480Y-128467849D01*
X112782867Y-128488893D01*
X112768253Y-128508598D01*
X112751777Y-128526777D01*
X112733598Y-128543253D01*
X112713893Y-128557867D01*
X112692849Y-128570480D01*
X112670671Y-128580970D01*
X112647571Y-128589235D01*
X112623773Y-128595196D01*
X112599504Y-128598796D01*
X112575000Y-128600000D01*
X109675000Y-128600000D01*
X109650496Y-128598796D01*
X109626227Y-128595196D01*
X109602429Y-128589235D01*
X109579329Y-128580970D01*
X109557151Y-128570480D01*
X109536107Y-128557867D01*
X109516402Y-128543253D01*
X109498223Y-128526777D01*
X109481747Y-128508598D01*
X109467133Y-128488893D01*
X109454520Y-128467849D01*
X109444030Y-128445671D01*
X109435765Y-128422571D01*
X109429804Y-128398773D01*
X109426204Y-128374504D01*
X109425000Y-128350000D01*
X109425000Y-127550000D01*
X109426204Y-127525496D01*
X109429804Y-127501227D01*
X109435765Y-127477429D01*
X109444030Y-127454329D01*
X109454520Y-127432151D01*
X109467133Y-127411107D01*
X109481747Y-127391402D01*
X109498223Y-127373223D01*
X109516402Y-127356747D01*
X109536107Y-127342133D01*
X109557151Y-127329520D01*
X109579329Y-127319030D01*
X109602429Y-127310765D01*
X109626227Y-127304804D01*
X109650496Y-127301204D01*
X109675000Y-127300000D01*
X112575000Y-127300000D01*
X112599504Y-127301204D01*
X112599504Y-127301204D01*
G37*
D12*
X111125000Y-127950000D03*
D11*
G36*
X139969703Y-127335722D02*
G01*
X139984264Y-127337882D01*
X139998543Y-127341459D01*
X140012403Y-127346418D01*
X140025710Y-127352712D01*
X140038336Y-127360280D01*
X140050159Y-127369048D01*
X140061066Y-127378934D01*
X140070952Y-127389841D01*
X140079720Y-127401664D01*
X140087288Y-127414290D01*
X140093582Y-127427597D01*
X140098541Y-127441457D01*
X140102118Y-127455736D01*
X140104278Y-127470297D01*
X140105000Y-127485000D01*
X140105000Y-127785000D01*
X140104278Y-127799703D01*
X140102118Y-127814264D01*
X140098541Y-127828543D01*
X140093582Y-127842403D01*
X140087288Y-127855710D01*
X140079720Y-127868336D01*
X140070952Y-127880159D01*
X140061066Y-127891066D01*
X140050159Y-127900952D01*
X140038336Y-127909720D01*
X140025710Y-127917288D01*
X140012403Y-127923582D01*
X139998543Y-127928541D01*
X139984264Y-127932118D01*
X139969703Y-127934278D01*
X139955000Y-127935000D01*
X138305000Y-127935000D01*
X138290297Y-127934278D01*
X138275736Y-127932118D01*
X138261457Y-127928541D01*
X138247597Y-127923582D01*
X138234290Y-127917288D01*
X138221664Y-127909720D01*
X138209841Y-127900952D01*
X138198934Y-127891066D01*
X138189048Y-127880159D01*
X138180280Y-127868336D01*
X138172712Y-127855710D01*
X138166418Y-127842403D01*
X138161459Y-127828543D01*
X138157882Y-127814264D01*
X138155722Y-127799703D01*
X138155000Y-127785000D01*
X138155000Y-127485000D01*
X138155722Y-127470297D01*
X138157882Y-127455736D01*
X138161459Y-127441457D01*
X138166418Y-127427597D01*
X138172712Y-127414290D01*
X138180280Y-127401664D01*
X138189048Y-127389841D01*
X138198934Y-127378934D01*
X138209841Y-127369048D01*
X138221664Y-127360280D01*
X138234290Y-127352712D01*
X138247597Y-127346418D01*
X138261457Y-127341459D01*
X138275736Y-127337882D01*
X138290297Y-127335722D01*
X138305000Y-127335000D01*
X139955000Y-127335000D01*
X139969703Y-127335722D01*
X139969703Y-127335722D01*
G37*
D13*
X139130000Y-127635000D03*
D11*
G36*
X139969703Y-128605722D02*
G01*
X139984264Y-128607882D01*
X139998543Y-128611459D01*
X140012403Y-128616418D01*
X140025710Y-128622712D01*
X140038336Y-128630280D01*
X140050159Y-128639048D01*
X140061066Y-128648934D01*
X140070952Y-128659841D01*
X140079720Y-128671664D01*
X140087288Y-128684290D01*
X140093582Y-128697597D01*
X140098541Y-128711457D01*
X140102118Y-128725736D01*
X140104278Y-128740297D01*
X140105000Y-128755000D01*
X140105000Y-129055000D01*
X140104278Y-129069703D01*
X140102118Y-129084264D01*
X140098541Y-129098543D01*
X140093582Y-129112403D01*
X140087288Y-129125710D01*
X140079720Y-129138336D01*
X140070952Y-129150159D01*
X140061066Y-129161066D01*
X140050159Y-129170952D01*
X140038336Y-129179720D01*
X140025710Y-129187288D01*
X140012403Y-129193582D01*
X139998543Y-129198541D01*
X139984264Y-129202118D01*
X139969703Y-129204278D01*
X139955000Y-129205000D01*
X138305000Y-129205000D01*
X138290297Y-129204278D01*
X138275736Y-129202118D01*
X138261457Y-129198541D01*
X138247597Y-129193582D01*
X138234290Y-129187288D01*
X138221664Y-129179720D01*
X138209841Y-129170952D01*
X138198934Y-129161066D01*
X138189048Y-129150159D01*
X138180280Y-129138336D01*
X138172712Y-129125710D01*
X138166418Y-129112403D01*
X138161459Y-129098543D01*
X138157882Y-129084264D01*
X138155722Y-129069703D01*
X138155000Y-129055000D01*
X138155000Y-128755000D01*
X138155722Y-128740297D01*
X138157882Y-128725736D01*
X138161459Y-128711457D01*
X138166418Y-128697597D01*
X138172712Y-128684290D01*
X138180280Y-128671664D01*
X138189048Y-128659841D01*
X138198934Y-128648934D01*
X138209841Y-128639048D01*
X138221664Y-128630280D01*
X138234290Y-128622712D01*
X138247597Y-128616418D01*
X138261457Y-128611459D01*
X138275736Y-128607882D01*
X138290297Y-128605722D01*
X138305000Y-128605000D01*
X139955000Y-128605000D01*
X139969703Y-128605722D01*
X139969703Y-128605722D01*
G37*
D13*
X139130000Y-128905000D03*
D11*
G36*
X139969703Y-129875722D02*
G01*
X139984264Y-129877882D01*
X139998543Y-129881459D01*
X140012403Y-129886418D01*
X140025710Y-129892712D01*
X140038336Y-129900280D01*
X140050159Y-129909048D01*
X140061066Y-129918934D01*
X140070952Y-129929841D01*
X140079720Y-129941664D01*
X140087288Y-129954290D01*
X140093582Y-129967597D01*
X140098541Y-129981457D01*
X140102118Y-129995736D01*
X140104278Y-130010297D01*
X140105000Y-130025000D01*
X140105000Y-130325000D01*
X140104278Y-130339703D01*
X140102118Y-130354264D01*
X140098541Y-130368543D01*
X140093582Y-130382403D01*
X140087288Y-130395710D01*
X140079720Y-130408336D01*
X140070952Y-130420159D01*
X140061066Y-130431066D01*
X140050159Y-130440952D01*
X140038336Y-130449720D01*
X140025710Y-130457288D01*
X140012403Y-130463582D01*
X139998543Y-130468541D01*
X139984264Y-130472118D01*
X139969703Y-130474278D01*
X139955000Y-130475000D01*
X138305000Y-130475000D01*
X138290297Y-130474278D01*
X138275736Y-130472118D01*
X138261457Y-130468541D01*
X138247597Y-130463582D01*
X138234290Y-130457288D01*
X138221664Y-130449720D01*
X138209841Y-130440952D01*
X138198934Y-130431066D01*
X138189048Y-130420159D01*
X138180280Y-130408336D01*
X138172712Y-130395710D01*
X138166418Y-130382403D01*
X138161459Y-130368543D01*
X138157882Y-130354264D01*
X138155722Y-130339703D01*
X138155000Y-130325000D01*
X138155000Y-130025000D01*
X138155722Y-130010297D01*
X138157882Y-129995736D01*
X138161459Y-129981457D01*
X138166418Y-129967597D01*
X138172712Y-129954290D01*
X138180280Y-129941664D01*
X138189048Y-129929841D01*
X138198934Y-129918934D01*
X138209841Y-129909048D01*
X138221664Y-129900280D01*
X138234290Y-129892712D01*
X138247597Y-129886418D01*
X138261457Y-129881459D01*
X138275736Y-129877882D01*
X138290297Y-129875722D01*
X138305000Y-129875000D01*
X139955000Y-129875000D01*
X139969703Y-129875722D01*
X139969703Y-129875722D01*
G37*
D13*
X139130000Y-130175000D03*
D11*
G36*
X139969703Y-131145722D02*
G01*
X139984264Y-131147882D01*
X139998543Y-131151459D01*
X140012403Y-131156418D01*
X140025710Y-131162712D01*
X140038336Y-131170280D01*
X140050159Y-131179048D01*
X140061066Y-131188934D01*
X140070952Y-131199841D01*
X140079720Y-131211664D01*
X140087288Y-131224290D01*
X140093582Y-131237597D01*
X140098541Y-131251457D01*
X140102118Y-131265736D01*
X140104278Y-131280297D01*
X140105000Y-131295000D01*
X140105000Y-131595000D01*
X140104278Y-131609703D01*
X140102118Y-131624264D01*
X140098541Y-131638543D01*
X140093582Y-131652403D01*
X140087288Y-131665710D01*
X140079720Y-131678336D01*
X140070952Y-131690159D01*
X140061066Y-131701066D01*
X140050159Y-131710952D01*
X140038336Y-131719720D01*
X140025710Y-131727288D01*
X140012403Y-131733582D01*
X139998543Y-131738541D01*
X139984264Y-131742118D01*
X139969703Y-131744278D01*
X139955000Y-131745000D01*
X138305000Y-131745000D01*
X138290297Y-131744278D01*
X138275736Y-131742118D01*
X138261457Y-131738541D01*
X138247597Y-131733582D01*
X138234290Y-131727288D01*
X138221664Y-131719720D01*
X138209841Y-131710952D01*
X138198934Y-131701066D01*
X138189048Y-131690159D01*
X138180280Y-131678336D01*
X138172712Y-131665710D01*
X138166418Y-131652403D01*
X138161459Y-131638543D01*
X138157882Y-131624264D01*
X138155722Y-131609703D01*
X138155000Y-131595000D01*
X138155000Y-131295000D01*
X138155722Y-131280297D01*
X138157882Y-131265736D01*
X138161459Y-131251457D01*
X138166418Y-131237597D01*
X138172712Y-131224290D01*
X138180280Y-131211664D01*
X138189048Y-131199841D01*
X138198934Y-131188934D01*
X138209841Y-131179048D01*
X138221664Y-131170280D01*
X138234290Y-131162712D01*
X138247597Y-131156418D01*
X138261457Y-131151459D01*
X138275736Y-131147882D01*
X138290297Y-131145722D01*
X138305000Y-131145000D01*
X139955000Y-131145000D01*
X139969703Y-131145722D01*
X139969703Y-131145722D01*
G37*
D13*
X139130000Y-131445000D03*
D11*
G36*
X144919703Y-131145722D02*
G01*
X144934264Y-131147882D01*
X144948543Y-131151459D01*
X144962403Y-131156418D01*
X144975710Y-131162712D01*
X144988336Y-131170280D01*
X145000159Y-131179048D01*
X145011066Y-131188934D01*
X145020952Y-131199841D01*
X145029720Y-131211664D01*
X145037288Y-131224290D01*
X145043582Y-131237597D01*
X145048541Y-131251457D01*
X145052118Y-131265736D01*
X145054278Y-131280297D01*
X145055000Y-131295000D01*
X145055000Y-131595000D01*
X145054278Y-131609703D01*
X145052118Y-131624264D01*
X145048541Y-131638543D01*
X145043582Y-131652403D01*
X145037288Y-131665710D01*
X145029720Y-131678336D01*
X145020952Y-131690159D01*
X145011066Y-131701066D01*
X145000159Y-131710952D01*
X144988336Y-131719720D01*
X144975710Y-131727288D01*
X144962403Y-131733582D01*
X144948543Y-131738541D01*
X144934264Y-131742118D01*
X144919703Y-131744278D01*
X144905000Y-131745000D01*
X143255000Y-131745000D01*
X143240297Y-131744278D01*
X143225736Y-131742118D01*
X143211457Y-131738541D01*
X143197597Y-131733582D01*
X143184290Y-131727288D01*
X143171664Y-131719720D01*
X143159841Y-131710952D01*
X143148934Y-131701066D01*
X143139048Y-131690159D01*
X143130280Y-131678336D01*
X143122712Y-131665710D01*
X143116418Y-131652403D01*
X143111459Y-131638543D01*
X143107882Y-131624264D01*
X143105722Y-131609703D01*
X143105000Y-131595000D01*
X143105000Y-131295000D01*
X143105722Y-131280297D01*
X143107882Y-131265736D01*
X143111459Y-131251457D01*
X143116418Y-131237597D01*
X143122712Y-131224290D01*
X143130280Y-131211664D01*
X143139048Y-131199841D01*
X143148934Y-131188934D01*
X143159841Y-131179048D01*
X143171664Y-131170280D01*
X143184290Y-131162712D01*
X143197597Y-131156418D01*
X143211457Y-131151459D01*
X143225736Y-131147882D01*
X143240297Y-131145722D01*
X143255000Y-131145000D01*
X144905000Y-131145000D01*
X144919703Y-131145722D01*
X144919703Y-131145722D01*
G37*
D13*
X144080000Y-131445000D03*
D11*
G36*
X144919703Y-129875722D02*
G01*
X144934264Y-129877882D01*
X144948543Y-129881459D01*
X144962403Y-129886418D01*
X144975710Y-129892712D01*
X144988336Y-129900280D01*
X145000159Y-129909048D01*
X145011066Y-129918934D01*
X145020952Y-129929841D01*
X145029720Y-129941664D01*
X145037288Y-129954290D01*
X145043582Y-129967597D01*
X145048541Y-129981457D01*
X145052118Y-129995736D01*
X145054278Y-130010297D01*
X145055000Y-130025000D01*
X145055000Y-130325000D01*
X145054278Y-130339703D01*
X145052118Y-130354264D01*
X145048541Y-130368543D01*
X145043582Y-130382403D01*
X145037288Y-130395710D01*
X145029720Y-130408336D01*
X145020952Y-130420159D01*
X145011066Y-130431066D01*
X145000159Y-130440952D01*
X144988336Y-130449720D01*
X144975710Y-130457288D01*
X144962403Y-130463582D01*
X144948543Y-130468541D01*
X144934264Y-130472118D01*
X144919703Y-130474278D01*
X144905000Y-130475000D01*
X143255000Y-130475000D01*
X143240297Y-130474278D01*
X143225736Y-130472118D01*
X143211457Y-130468541D01*
X143197597Y-130463582D01*
X143184290Y-130457288D01*
X143171664Y-130449720D01*
X143159841Y-130440952D01*
X143148934Y-130431066D01*
X143139048Y-130420159D01*
X143130280Y-130408336D01*
X143122712Y-130395710D01*
X143116418Y-130382403D01*
X143111459Y-130368543D01*
X143107882Y-130354264D01*
X143105722Y-130339703D01*
X143105000Y-130325000D01*
X143105000Y-130025000D01*
X143105722Y-130010297D01*
X143107882Y-129995736D01*
X143111459Y-129981457D01*
X143116418Y-129967597D01*
X143122712Y-129954290D01*
X143130280Y-129941664D01*
X143139048Y-129929841D01*
X143148934Y-129918934D01*
X143159841Y-129909048D01*
X143171664Y-129900280D01*
X143184290Y-129892712D01*
X143197597Y-129886418D01*
X143211457Y-129881459D01*
X143225736Y-129877882D01*
X143240297Y-129875722D01*
X143255000Y-129875000D01*
X144905000Y-129875000D01*
X144919703Y-129875722D01*
X144919703Y-129875722D01*
G37*
D13*
X144080000Y-130175000D03*
D11*
G36*
X144919703Y-128605722D02*
G01*
X144934264Y-128607882D01*
X144948543Y-128611459D01*
X144962403Y-128616418D01*
X144975710Y-128622712D01*
X144988336Y-128630280D01*
X145000159Y-128639048D01*
X145011066Y-128648934D01*
X145020952Y-128659841D01*
X145029720Y-128671664D01*
X145037288Y-128684290D01*
X145043582Y-128697597D01*
X145048541Y-128711457D01*
X145052118Y-128725736D01*
X145054278Y-128740297D01*
X145055000Y-128755000D01*
X145055000Y-129055000D01*
X145054278Y-129069703D01*
X145052118Y-129084264D01*
X145048541Y-129098543D01*
X145043582Y-129112403D01*
X145037288Y-129125710D01*
X145029720Y-129138336D01*
X145020952Y-129150159D01*
X145011066Y-129161066D01*
X145000159Y-129170952D01*
X144988336Y-129179720D01*
X144975710Y-129187288D01*
X144962403Y-129193582D01*
X144948543Y-129198541D01*
X144934264Y-129202118D01*
X144919703Y-129204278D01*
X144905000Y-129205000D01*
X143255000Y-129205000D01*
X143240297Y-129204278D01*
X143225736Y-129202118D01*
X143211457Y-129198541D01*
X143197597Y-129193582D01*
X143184290Y-129187288D01*
X143171664Y-129179720D01*
X143159841Y-129170952D01*
X143148934Y-129161066D01*
X143139048Y-129150159D01*
X143130280Y-129138336D01*
X143122712Y-129125710D01*
X143116418Y-129112403D01*
X143111459Y-129098543D01*
X143107882Y-129084264D01*
X143105722Y-129069703D01*
X143105000Y-129055000D01*
X143105000Y-128755000D01*
X143105722Y-128740297D01*
X143107882Y-128725736D01*
X143111459Y-128711457D01*
X143116418Y-128697597D01*
X143122712Y-128684290D01*
X143130280Y-128671664D01*
X143139048Y-128659841D01*
X143148934Y-128648934D01*
X143159841Y-128639048D01*
X143171664Y-128630280D01*
X143184290Y-128622712D01*
X143197597Y-128616418D01*
X143211457Y-128611459D01*
X143225736Y-128607882D01*
X143240297Y-128605722D01*
X143255000Y-128605000D01*
X144905000Y-128605000D01*
X144919703Y-128605722D01*
X144919703Y-128605722D01*
G37*
D13*
X144080000Y-128905000D03*
D11*
G36*
X144919703Y-127335722D02*
G01*
X144934264Y-127337882D01*
X144948543Y-127341459D01*
X144962403Y-127346418D01*
X144975710Y-127352712D01*
X144988336Y-127360280D01*
X145000159Y-127369048D01*
X145011066Y-127378934D01*
X145020952Y-127389841D01*
X145029720Y-127401664D01*
X145037288Y-127414290D01*
X145043582Y-127427597D01*
X145048541Y-127441457D01*
X145052118Y-127455736D01*
X145054278Y-127470297D01*
X145055000Y-127485000D01*
X145055000Y-127785000D01*
X145054278Y-127799703D01*
X145052118Y-127814264D01*
X145048541Y-127828543D01*
X145043582Y-127842403D01*
X145037288Y-127855710D01*
X145029720Y-127868336D01*
X145020952Y-127880159D01*
X145011066Y-127891066D01*
X145000159Y-127900952D01*
X144988336Y-127909720D01*
X144975710Y-127917288D01*
X144962403Y-127923582D01*
X144948543Y-127928541D01*
X144934264Y-127932118D01*
X144919703Y-127934278D01*
X144905000Y-127935000D01*
X143255000Y-127935000D01*
X143240297Y-127934278D01*
X143225736Y-127932118D01*
X143211457Y-127928541D01*
X143197597Y-127923582D01*
X143184290Y-127917288D01*
X143171664Y-127909720D01*
X143159841Y-127900952D01*
X143148934Y-127891066D01*
X143139048Y-127880159D01*
X143130280Y-127868336D01*
X143122712Y-127855710D01*
X143116418Y-127842403D01*
X143111459Y-127828543D01*
X143107882Y-127814264D01*
X143105722Y-127799703D01*
X143105000Y-127785000D01*
X143105000Y-127485000D01*
X143105722Y-127470297D01*
X143107882Y-127455736D01*
X143111459Y-127441457D01*
X143116418Y-127427597D01*
X143122712Y-127414290D01*
X143130280Y-127401664D01*
X143139048Y-127389841D01*
X143148934Y-127378934D01*
X143159841Y-127369048D01*
X143171664Y-127360280D01*
X143184290Y-127352712D01*
X143197597Y-127346418D01*
X143211457Y-127341459D01*
X143225736Y-127337882D01*
X143240297Y-127335722D01*
X143255000Y-127335000D01*
X144905000Y-127335000D01*
X144919703Y-127335722D01*
X144919703Y-127335722D01*
G37*
D13*
X144080000Y-127635000D03*
D14*
X102870000Y-87015000D03*
X102870000Y-92055000D03*
X105410000Y-87015000D03*
X105410000Y-92055000D03*
X107950000Y-87015000D03*
X107950000Y-92055000D03*
X110490000Y-87015000D03*
X110490000Y-92055000D03*
X113030000Y-87015000D03*
X113030000Y-92055000D03*
X115570000Y-87015000D03*
X115570000Y-92055000D03*
X118110000Y-87015000D03*
X118110000Y-92055000D03*
X120650000Y-87015000D03*
X120650000Y-92055000D03*
X95250000Y-94595000D03*
X95250000Y-89555000D03*
X92710000Y-94595000D03*
X92710000Y-89555000D03*
X90170000Y-94595000D03*
X90170000Y-89555000D03*
M02*
