%TF.GenerationSoftware,KiCad,Pcbnew,5.1.2*%
%TF.CreationDate,2019-06-26T00:58:13-07:00*%
%TF.ProjectId,tinyfpga-raspi-romi-board,74696e79-6670-4676-912d-72617370692d,rev?*%
%TF.SameCoordinates,Original*%
%TF.FileFunction,Legend,Bot*%
%TF.FilePolarity,Positive*%
%FSLAX46Y46*%
G04 Gerber Fmt 4.6, Leading zero omitted, Abs format (unit mm)*
G04 Created by KiCad (PCBNEW 5.1.2) date 2019-06-26 00:58:13*
%MOMM*%
%LPD*%
G04 APERTURE LIST*
%ADD10C,0.120000*%
%ADD11C,0.150000*%
G04 APERTURE END LIST*
D10*
X81708300Y-129064060D02*
X81708300Y-127734060D01*
X80378300Y-129064060D02*
X81708300Y-129064060D01*
X81708300Y-126464060D02*
X81708300Y-123864060D01*
X79108300Y-126464060D02*
X81708300Y-126464060D01*
X79108300Y-129064060D02*
X79108300Y-126464060D01*
X81708300Y-123864060D02*
X61268300Y-123864060D01*
X79108300Y-129064060D02*
X61268300Y-129064060D01*
X61268300Y-129064060D02*
X61268300Y-123864060D01*
X96948300Y-129064060D02*
X96948300Y-127734060D01*
X95618300Y-129064060D02*
X96948300Y-129064060D01*
X96948300Y-126464060D02*
X96948300Y-123864060D01*
X94348300Y-126464060D02*
X96948300Y-126464060D01*
X94348300Y-129064060D02*
X94348300Y-126464060D01*
X96948300Y-123864060D02*
X84128300Y-123864060D01*
X94348300Y-129064060D02*
X84128300Y-129064060D01*
X84128300Y-129064060D02*
X84128300Y-123864060D01*
X94288300Y-106264400D02*
X94288300Y-107594400D01*
X95618300Y-106264400D02*
X94288300Y-106264400D01*
X96888300Y-106264400D02*
X96888300Y-108924400D01*
X96888300Y-108924400D02*
X109648300Y-108924400D01*
X96888300Y-106264400D02*
X109648300Y-106264400D01*
X109648300Y-106264400D02*
X109648300Y-108924400D01*
D11*
X83255919Y-126797393D02*
X82541633Y-126797393D01*
X82398776Y-126845012D01*
X82303538Y-126940250D01*
X82255919Y-127083107D01*
X82255919Y-127178345D01*
X83255919Y-126416440D02*
X83255919Y-125749774D01*
X82255919Y-126178345D01*
X97400680Y-125654536D02*
X98114966Y-125654536D01*
X98257823Y-125606917D01*
X98353061Y-125511679D01*
X98400680Y-125368821D01*
X98400680Y-125273583D01*
X97495919Y-126083107D02*
X97448300Y-126130726D01*
X97400680Y-126225964D01*
X97400680Y-126464060D01*
X97448300Y-126559298D01*
X97495919Y-126606917D01*
X97591157Y-126654536D01*
X97686395Y-126654536D01*
X97829252Y-126606917D01*
X98400680Y-126035488D01*
X98400680Y-126654536D01*
X97400680Y-127273583D02*
X97400680Y-127368821D01*
X97448300Y-127464060D01*
X97495919Y-127511679D01*
X97591157Y-127559298D01*
X97781633Y-127606917D01*
X98019728Y-127606917D01*
X98210204Y-127559298D01*
X98305442Y-127511679D01*
X98353061Y-127464060D01*
X98400680Y-127368821D01*
X98400680Y-127273583D01*
X98353061Y-127178345D01*
X98305442Y-127130726D01*
X98210204Y-127083107D01*
X98019728Y-127035488D01*
X97781633Y-127035488D01*
X97591157Y-127083107D01*
X97495919Y-127130726D01*
X97448300Y-127178345D01*
X97400680Y-127273583D01*
X92740680Y-107261066D02*
X93454966Y-107261066D01*
X93597823Y-107213447D01*
X93693061Y-107118209D01*
X93740680Y-106975352D01*
X93740680Y-106880114D01*
X93740680Y-107784876D02*
X93740680Y-107975352D01*
X93693061Y-108070590D01*
X93645442Y-108118209D01*
X93502585Y-108213447D01*
X93312109Y-108261066D01*
X92931157Y-108261066D01*
X92835919Y-108213447D01*
X92788300Y-108165828D01*
X92740680Y-108070590D01*
X92740680Y-107880114D01*
X92788300Y-107784876D01*
X92835919Y-107737257D01*
X92931157Y-107689638D01*
X93169252Y-107689638D01*
X93264490Y-107737257D01*
X93312109Y-107784876D01*
X93359728Y-107880114D01*
X93359728Y-108070590D01*
X93312109Y-108165828D01*
X93264490Y-108213447D01*
X93169252Y-108261066D01*
M02*
