%TF.GenerationSoftware,KiCad,Pcbnew,5.1.2*%
%TF.CreationDate,2019-06-26T00:58:13-07:00*%
%TF.ProjectId,tinyfpga-raspi-romi-board,74696e79-6670-4676-912d-72617370692d,rev?*%
%TF.SameCoordinates,Original*%
%TF.FileFunction,Paste,Top*%
%TF.FilePolarity,Positive*%
%FSLAX46Y46*%
G04 Gerber Fmt 4.6, Leading zero omitted, Abs format (unit mm)*
G04 Created by KiCad (PCBNEW 5.1.2) date 2019-06-26 00:58:13*
%MOMM*%
%LPD*%
G04 APERTURE LIST*
%ADD10R,2.300000X3.500000*%
%ADD11C,0.100000*%
%ADD12C,1.300000*%
%ADD13C,0.600000*%
G04 APERTURE END LIST*
D10*
X96520000Y-141290000D03*
X96520000Y-135890000D03*
D11*
G36*
X80627504Y-138890204D02*
G01*
X80651773Y-138893804D01*
X80675571Y-138899765D01*
X80698671Y-138908030D01*
X80720849Y-138918520D01*
X80741893Y-138931133D01*
X80761598Y-138945747D01*
X80779777Y-138962223D01*
X80796253Y-138980402D01*
X80810867Y-139000107D01*
X80823480Y-139021151D01*
X80833970Y-139043329D01*
X80842235Y-139066429D01*
X80848196Y-139090227D01*
X80851796Y-139114496D01*
X80853000Y-139139000D01*
X80853000Y-142039000D01*
X80851796Y-142063504D01*
X80848196Y-142087773D01*
X80842235Y-142111571D01*
X80833970Y-142134671D01*
X80823480Y-142156849D01*
X80810867Y-142177893D01*
X80796253Y-142197598D01*
X80779777Y-142215777D01*
X80761598Y-142232253D01*
X80741893Y-142246867D01*
X80720849Y-142259480D01*
X80698671Y-142269970D01*
X80675571Y-142278235D01*
X80651773Y-142284196D01*
X80627504Y-142287796D01*
X80603000Y-142289000D01*
X79803000Y-142289000D01*
X79778496Y-142287796D01*
X79754227Y-142284196D01*
X79730429Y-142278235D01*
X79707329Y-142269970D01*
X79685151Y-142259480D01*
X79664107Y-142246867D01*
X79644402Y-142232253D01*
X79626223Y-142215777D01*
X79609747Y-142197598D01*
X79595133Y-142177893D01*
X79582520Y-142156849D01*
X79572030Y-142134671D01*
X79563765Y-142111571D01*
X79557804Y-142087773D01*
X79554204Y-142063504D01*
X79553000Y-142039000D01*
X79553000Y-139139000D01*
X79554204Y-139114496D01*
X79557804Y-139090227D01*
X79563765Y-139066429D01*
X79572030Y-139043329D01*
X79582520Y-139021151D01*
X79595133Y-139000107D01*
X79609747Y-138980402D01*
X79626223Y-138962223D01*
X79644402Y-138945747D01*
X79664107Y-138931133D01*
X79685151Y-138918520D01*
X79707329Y-138908030D01*
X79730429Y-138899765D01*
X79754227Y-138893804D01*
X79778496Y-138890204D01*
X79803000Y-138889000D01*
X80603000Y-138889000D01*
X80627504Y-138890204D01*
X80627504Y-138890204D01*
G37*
D12*
X80203000Y-140589000D03*
D11*
G36*
X76177504Y-138890204D02*
G01*
X76201773Y-138893804D01*
X76225571Y-138899765D01*
X76248671Y-138908030D01*
X76270849Y-138918520D01*
X76291893Y-138931133D01*
X76311598Y-138945747D01*
X76329777Y-138962223D01*
X76346253Y-138980402D01*
X76360867Y-139000107D01*
X76373480Y-139021151D01*
X76383970Y-139043329D01*
X76392235Y-139066429D01*
X76398196Y-139090227D01*
X76401796Y-139114496D01*
X76403000Y-139139000D01*
X76403000Y-142039000D01*
X76401796Y-142063504D01*
X76398196Y-142087773D01*
X76392235Y-142111571D01*
X76383970Y-142134671D01*
X76373480Y-142156849D01*
X76360867Y-142177893D01*
X76346253Y-142197598D01*
X76329777Y-142215777D01*
X76311598Y-142232253D01*
X76291893Y-142246867D01*
X76270849Y-142259480D01*
X76248671Y-142269970D01*
X76225571Y-142278235D01*
X76201773Y-142284196D01*
X76177504Y-142287796D01*
X76153000Y-142289000D01*
X75353000Y-142289000D01*
X75328496Y-142287796D01*
X75304227Y-142284196D01*
X75280429Y-142278235D01*
X75257329Y-142269970D01*
X75235151Y-142259480D01*
X75214107Y-142246867D01*
X75194402Y-142232253D01*
X75176223Y-142215777D01*
X75159747Y-142197598D01*
X75145133Y-142177893D01*
X75132520Y-142156849D01*
X75122030Y-142134671D01*
X75113765Y-142111571D01*
X75107804Y-142087773D01*
X75104204Y-142063504D01*
X75103000Y-142039000D01*
X75103000Y-139139000D01*
X75104204Y-139114496D01*
X75107804Y-139090227D01*
X75113765Y-139066429D01*
X75122030Y-139043329D01*
X75132520Y-139021151D01*
X75145133Y-139000107D01*
X75159747Y-138980402D01*
X75176223Y-138962223D01*
X75194402Y-138945747D01*
X75214107Y-138931133D01*
X75235151Y-138918520D01*
X75257329Y-138908030D01*
X75280429Y-138899765D01*
X75304227Y-138893804D01*
X75328496Y-138890204D01*
X75353000Y-138889000D01*
X76153000Y-138889000D01*
X76177504Y-138890204D01*
X76177504Y-138890204D01*
G37*
D12*
X75753000Y-140589000D03*
D11*
G36*
X123967703Y-125176722D02*
G01*
X123982264Y-125178882D01*
X123996543Y-125182459D01*
X124010403Y-125187418D01*
X124023710Y-125193712D01*
X124036336Y-125201280D01*
X124048159Y-125210048D01*
X124059066Y-125219934D01*
X124068952Y-125230841D01*
X124077720Y-125242664D01*
X124085288Y-125255290D01*
X124091582Y-125268597D01*
X124096541Y-125282457D01*
X124100118Y-125296736D01*
X124102278Y-125311297D01*
X124103000Y-125326000D01*
X124103000Y-125626000D01*
X124102278Y-125640703D01*
X124100118Y-125655264D01*
X124096541Y-125669543D01*
X124091582Y-125683403D01*
X124085288Y-125696710D01*
X124077720Y-125709336D01*
X124068952Y-125721159D01*
X124059066Y-125732066D01*
X124048159Y-125741952D01*
X124036336Y-125750720D01*
X124023710Y-125758288D01*
X124010403Y-125764582D01*
X123996543Y-125769541D01*
X123982264Y-125773118D01*
X123967703Y-125775278D01*
X123953000Y-125776000D01*
X122303000Y-125776000D01*
X122288297Y-125775278D01*
X122273736Y-125773118D01*
X122259457Y-125769541D01*
X122245597Y-125764582D01*
X122232290Y-125758288D01*
X122219664Y-125750720D01*
X122207841Y-125741952D01*
X122196934Y-125732066D01*
X122187048Y-125721159D01*
X122178280Y-125709336D01*
X122170712Y-125696710D01*
X122164418Y-125683403D01*
X122159459Y-125669543D01*
X122155882Y-125655264D01*
X122153722Y-125640703D01*
X122153000Y-125626000D01*
X122153000Y-125326000D01*
X122153722Y-125311297D01*
X122155882Y-125296736D01*
X122159459Y-125282457D01*
X122164418Y-125268597D01*
X122170712Y-125255290D01*
X122178280Y-125242664D01*
X122187048Y-125230841D01*
X122196934Y-125219934D01*
X122207841Y-125210048D01*
X122219664Y-125201280D01*
X122232290Y-125193712D01*
X122245597Y-125187418D01*
X122259457Y-125182459D01*
X122273736Y-125178882D01*
X122288297Y-125176722D01*
X122303000Y-125176000D01*
X123953000Y-125176000D01*
X123967703Y-125176722D01*
X123967703Y-125176722D01*
G37*
D13*
X123128000Y-125476000D03*
D11*
G36*
X123967703Y-126446722D02*
G01*
X123982264Y-126448882D01*
X123996543Y-126452459D01*
X124010403Y-126457418D01*
X124023710Y-126463712D01*
X124036336Y-126471280D01*
X124048159Y-126480048D01*
X124059066Y-126489934D01*
X124068952Y-126500841D01*
X124077720Y-126512664D01*
X124085288Y-126525290D01*
X124091582Y-126538597D01*
X124096541Y-126552457D01*
X124100118Y-126566736D01*
X124102278Y-126581297D01*
X124103000Y-126596000D01*
X124103000Y-126896000D01*
X124102278Y-126910703D01*
X124100118Y-126925264D01*
X124096541Y-126939543D01*
X124091582Y-126953403D01*
X124085288Y-126966710D01*
X124077720Y-126979336D01*
X124068952Y-126991159D01*
X124059066Y-127002066D01*
X124048159Y-127011952D01*
X124036336Y-127020720D01*
X124023710Y-127028288D01*
X124010403Y-127034582D01*
X123996543Y-127039541D01*
X123982264Y-127043118D01*
X123967703Y-127045278D01*
X123953000Y-127046000D01*
X122303000Y-127046000D01*
X122288297Y-127045278D01*
X122273736Y-127043118D01*
X122259457Y-127039541D01*
X122245597Y-127034582D01*
X122232290Y-127028288D01*
X122219664Y-127020720D01*
X122207841Y-127011952D01*
X122196934Y-127002066D01*
X122187048Y-126991159D01*
X122178280Y-126979336D01*
X122170712Y-126966710D01*
X122164418Y-126953403D01*
X122159459Y-126939543D01*
X122155882Y-126925264D01*
X122153722Y-126910703D01*
X122153000Y-126896000D01*
X122153000Y-126596000D01*
X122153722Y-126581297D01*
X122155882Y-126566736D01*
X122159459Y-126552457D01*
X122164418Y-126538597D01*
X122170712Y-126525290D01*
X122178280Y-126512664D01*
X122187048Y-126500841D01*
X122196934Y-126489934D01*
X122207841Y-126480048D01*
X122219664Y-126471280D01*
X122232290Y-126463712D01*
X122245597Y-126457418D01*
X122259457Y-126452459D01*
X122273736Y-126448882D01*
X122288297Y-126446722D01*
X122303000Y-126446000D01*
X123953000Y-126446000D01*
X123967703Y-126446722D01*
X123967703Y-126446722D01*
G37*
D13*
X123128000Y-126746000D03*
D11*
G36*
X123967703Y-127716722D02*
G01*
X123982264Y-127718882D01*
X123996543Y-127722459D01*
X124010403Y-127727418D01*
X124023710Y-127733712D01*
X124036336Y-127741280D01*
X124048159Y-127750048D01*
X124059066Y-127759934D01*
X124068952Y-127770841D01*
X124077720Y-127782664D01*
X124085288Y-127795290D01*
X124091582Y-127808597D01*
X124096541Y-127822457D01*
X124100118Y-127836736D01*
X124102278Y-127851297D01*
X124103000Y-127866000D01*
X124103000Y-128166000D01*
X124102278Y-128180703D01*
X124100118Y-128195264D01*
X124096541Y-128209543D01*
X124091582Y-128223403D01*
X124085288Y-128236710D01*
X124077720Y-128249336D01*
X124068952Y-128261159D01*
X124059066Y-128272066D01*
X124048159Y-128281952D01*
X124036336Y-128290720D01*
X124023710Y-128298288D01*
X124010403Y-128304582D01*
X123996543Y-128309541D01*
X123982264Y-128313118D01*
X123967703Y-128315278D01*
X123953000Y-128316000D01*
X122303000Y-128316000D01*
X122288297Y-128315278D01*
X122273736Y-128313118D01*
X122259457Y-128309541D01*
X122245597Y-128304582D01*
X122232290Y-128298288D01*
X122219664Y-128290720D01*
X122207841Y-128281952D01*
X122196934Y-128272066D01*
X122187048Y-128261159D01*
X122178280Y-128249336D01*
X122170712Y-128236710D01*
X122164418Y-128223403D01*
X122159459Y-128209543D01*
X122155882Y-128195264D01*
X122153722Y-128180703D01*
X122153000Y-128166000D01*
X122153000Y-127866000D01*
X122153722Y-127851297D01*
X122155882Y-127836736D01*
X122159459Y-127822457D01*
X122164418Y-127808597D01*
X122170712Y-127795290D01*
X122178280Y-127782664D01*
X122187048Y-127770841D01*
X122196934Y-127759934D01*
X122207841Y-127750048D01*
X122219664Y-127741280D01*
X122232290Y-127733712D01*
X122245597Y-127727418D01*
X122259457Y-127722459D01*
X122273736Y-127718882D01*
X122288297Y-127716722D01*
X122303000Y-127716000D01*
X123953000Y-127716000D01*
X123967703Y-127716722D01*
X123967703Y-127716722D01*
G37*
D13*
X123128000Y-128016000D03*
D11*
G36*
X123967703Y-128986722D02*
G01*
X123982264Y-128988882D01*
X123996543Y-128992459D01*
X124010403Y-128997418D01*
X124023710Y-129003712D01*
X124036336Y-129011280D01*
X124048159Y-129020048D01*
X124059066Y-129029934D01*
X124068952Y-129040841D01*
X124077720Y-129052664D01*
X124085288Y-129065290D01*
X124091582Y-129078597D01*
X124096541Y-129092457D01*
X124100118Y-129106736D01*
X124102278Y-129121297D01*
X124103000Y-129136000D01*
X124103000Y-129436000D01*
X124102278Y-129450703D01*
X124100118Y-129465264D01*
X124096541Y-129479543D01*
X124091582Y-129493403D01*
X124085288Y-129506710D01*
X124077720Y-129519336D01*
X124068952Y-129531159D01*
X124059066Y-129542066D01*
X124048159Y-129551952D01*
X124036336Y-129560720D01*
X124023710Y-129568288D01*
X124010403Y-129574582D01*
X123996543Y-129579541D01*
X123982264Y-129583118D01*
X123967703Y-129585278D01*
X123953000Y-129586000D01*
X122303000Y-129586000D01*
X122288297Y-129585278D01*
X122273736Y-129583118D01*
X122259457Y-129579541D01*
X122245597Y-129574582D01*
X122232290Y-129568288D01*
X122219664Y-129560720D01*
X122207841Y-129551952D01*
X122196934Y-129542066D01*
X122187048Y-129531159D01*
X122178280Y-129519336D01*
X122170712Y-129506710D01*
X122164418Y-129493403D01*
X122159459Y-129479543D01*
X122155882Y-129465264D01*
X122153722Y-129450703D01*
X122153000Y-129436000D01*
X122153000Y-129136000D01*
X122153722Y-129121297D01*
X122155882Y-129106736D01*
X122159459Y-129092457D01*
X122164418Y-129078597D01*
X122170712Y-129065290D01*
X122178280Y-129052664D01*
X122187048Y-129040841D01*
X122196934Y-129029934D01*
X122207841Y-129020048D01*
X122219664Y-129011280D01*
X122232290Y-129003712D01*
X122245597Y-128997418D01*
X122259457Y-128992459D01*
X122273736Y-128988882D01*
X122288297Y-128986722D01*
X122303000Y-128986000D01*
X123953000Y-128986000D01*
X123967703Y-128986722D01*
X123967703Y-128986722D01*
G37*
D13*
X123128000Y-129286000D03*
D11*
G36*
X128917703Y-128986722D02*
G01*
X128932264Y-128988882D01*
X128946543Y-128992459D01*
X128960403Y-128997418D01*
X128973710Y-129003712D01*
X128986336Y-129011280D01*
X128998159Y-129020048D01*
X129009066Y-129029934D01*
X129018952Y-129040841D01*
X129027720Y-129052664D01*
X129035288Y-129065290D01*
X129041582Y-129078597D01*
X129046541Y-129092457D01*
X129050118Y-129106736D01*
X129052278Y-129121297D01*
X129053000Y-129136000D01*
X129053000Y-129436000D01*
X129052278Y-129450703D01*
X129050118Y-129465264D01*
X129046541Y-129479543D01*
X129041582Y-129493403D01*
X129035288Y-129506710D01*
X129027720Y-129519336D01*
X129018952Y-129531159D01*
X129009066Y-129542066D01*
X128998159Y-129551952D01*
X128986336Y-129560720D01*
X128973710Y-129568288D01*
X128960403Y-129574582D01*
X128946543Y-129579541D01*
X128932264Y-129583118D01*
X128917703Y-129585278D01*
X128903000Y-129586000D01*
X127253000Y-129586000D01*
X127238297Y-129585278D01*
X127223736Y-129583118D01*
X127209457Y-129579541D01*
X127195597Y-129574582D01*
X127182290Y-129568288D01*
X127169664Y-129560720D01*
X127157841Y-129551952D01*
X127146934Y-129542066D01*
X127137048Y-129531159D01*
X127128280Y-129519336D01*
X127120712Y-129506710D01*
X127114418Y-129493403D01*
X127109459Y-129479543D01*
X127105882Y-129465264D01*
X127103722Y-129450703D01*
X127103000Y-129436000D01*
X127103000Y-129136000D01*
X127103722Y-129121297D01*
X127105882Y-129106736D01*
X127109459Y-129092457D01*
X127114418Y-129078597D01*
X127120712Y-129065290D01*
X127128280Y-129052664D01*
X127137048Y-129040841D01*
X127146934Y-129029934D01*
X127157841Y-129020048D01*
X127169664Y-129011280D01*
X127182290Y-129003712D01*
X127195597Y-128997418D01*
X127209457Y-128992459D01*
X127223736Y-128988882D01*
X127238297Y-128986722D01*
X127253000Y-128986000D01*
X128903000Y-128986000D01*
X128917703Y-128986722D01*
X128917703Y-128986722D01*
G37*
D13*
X128078000Y-129286000D03*
D11*
G36*
X128917703Y-127716722D02*
G01*
X128932264Y-127718882D01*
X128946543Y-127722459D01*
X128960403Y-127727418D01*
X128973710Y-127733712D01*
X128986336Y-127741280D01*
X128998159Y-127750048D01*
X129009066Y-127759934D01*
X129018952Y-127770841D01*
X129027720Y-127782664D01*
X129035288Y-127795290D01*
X129041582Y-127808597D01*
X129046541Y-127822457D01*
X129050118Y-127836736D01*
X129052278Y-127851297D01*
X129053000Y-127866000D01*
X129053000Y-128166000D01*
X129052278Y-128180703D01*
X129050118Y-128195264D01*
X129046541Y-128209543D01*
X129041582Y-128223403D01*
X129035288Y-128236710D01*
X129027720Y-128249336D01*
X129018952Y-128261159D01*
X129009066Y-128272066D01*
X128998159Y-128281952D01*
X128986336Y-128290720D01*
X128973710Y-128298288D01*
X128960403Y-128304582D01*
X128946543Y-128309541D01*
X128932264Y-128313118D01*
X128917703Y-128315278D01*
X128903000Y-128316000D01*
X127253000Y-128316000D01*
X127238297Y-128315278D01*
X127223736Y-128313118D01*
X127209457Y-128309541D01*
X127195597Y-128304582D01*
X127182290Y-128298288D01*
X127169664Y-128290720D01*
X127157841Y-128281952D01*
X127146934Y-128272066D01*
X127137048Y-128261159D01*
X127128280Y-128249336D01*
X127120712Y-128236710D01*
X127114418Y-128223403D01*
X127109459Y-128209543D01*
X127105882Y-128195264D01*
X127103722Y-128180703D01*
X127103000Y-128166000D01*
X127103000Y-127866000D01*
X127103722Y-127851297D01*
X127105882Y-127836736D01*
X127109459Y-127822457D01*
X127114418Y-127808597D01*
X127120712Y-127795290D01*
X127128280Y-127782664D01*
X127137048Y-127770841D01*
X127146934Y-127759934D01*
X127157841Y-127750048D01*
X127169664Y-127741280D01*
X127182290Y-127733712D01*
X127195597Y-127727418D01*
X127209457Y-127722459D01*
X127223736Y-127718882D01*
X127238297Y-127716722D01*
X127253000Y-127716000D01*
X128903000Y-127716000D01*
X128917703Y-127716722D01*
X128917703Y-127716722D01*
G37*
D13*
X128078000Y-128016000D03*
D11*
G36*
X128917703Y-126446722D02*
G01*
X128932264Y-126448882D01*
X128946543Y-126452459D01*
X128960403Y-126457418D01*
X128973710Y-126463712D01*
X128986336Y-126471280D01*
X128998159Y-126480048D01*
X129009066Y-126489934D01*
X129018952Y-126500841D01*
X129027720Y-126512664D01*
X129035288Y-126525290D01*
X129041582Y-126538597D01*
X129046541Y-126552457D01*
X129050118Y-126566736D01*
X129052278Y-126581297D01*
X129053000Y-126596000D01*
X129053000Y-126896000D01*
X129052278Y-126910703D01*
X129050118Y-126925264D01*
X129046541Y-126939543D01*
X129041582Y-126953403D01*
X129035288Y-126966710D01*
X129027720Y-126979336D01*
X129018952Y-126991159D01*
X129009066Y-127002066D01*
X128998159Y-127011952D01*
X128986336Y-127020720D01*
X128973710Y-127028288D01*
X128960403Y-127034582D01*
X128946543Y-127039541D01*
X128932264Y-127043118D01*
X128917703Y-127045278D01*
X128903000Y-127046000D01*
X127253000Y-127046000D01*
X127238297Y-127045278D01*
X127223736Y-127043118D01*
X127209457Y-127039541D01*
X127195597Y-127034582D01*
X127182290Y-127028288D01*
X127169664Y-127020720D01*
X127157841Y-127011952D01*
X127146934Y-127002066D01*
X127137048Y-126991159D01*
X127128280Y-126979336D01*
X127120712Y-126966710D01*
X127114418Y-126953403D01*
X127109459Y-126939543D01*
X127105882Y-126925264D01*
X127103722Y-126910703D01*
X127103000Y-126896000D01*
X127103000Y-126596000D01*
X127103722Y-126581297D01*
X127105882Y-126566736D01*
X127109459Y-126552457D01*
X127114418Y-126538597D01*
X127120712Y-126525290D01*
X127128280Y-126512664D01*
X127137048Y-126500841D01*
X127146934Y-126489934D01*
X127157841Y-126480048D01*
X127169664Y-126471280D01*
X127182290Y-126463712D01*
X127195597Y-126457418D01*
X127209457Y-126452459D01*
X127223736Y-126448882D01*
X127238297Y-126446722D01*
X127253000Y-126446000D01*
X128903000Y-126446000D01*
X128917703Y-126446722D01*
X128917703Y-126446722D01*
G37*
D13*
X128078000Y-126746000D03*
D11*
G36*
X128917703Y-125176722D02*
G01*
X128932264Y-125178882D01*
X128946543Y-125182459D01*
X128960403Y-125187418D01*
X128973710Y-125193712D01*
X128986336Y-125201280D01*
X128998159Y-125210048D01*
X129009066Y-125219934D01*
X129018952Y-125230841D01*
X129027720Y-125242664D01*
X129035288Y-125255290D01*
X129041582Y-125268597D01*
X129046541Y-125282457D01*
X129050118Y-125296736D01*
X129052278Y-125311297D01*
X129053000Y-125326000D01*
X129053000Y-125626000D01*
X129052278Y-125640703D01*
X129050118Y-125655264D01*
X129046541Y-125669543D01*
X129041582Y-125683403D01*
X129035288Y-125696710D01*
X129027720Y-125709336D01*
X129018952Y-125721159D01*
X129009066Y-125732066D01*
X128998159Y-125741952D01*
X128986336Y-125750720D01*
X128973710Y-125758288D01*
X128960403Y-125764582D01*
X128946543Y-125769541D01*
X128932264Y-125773118D01*
X128917703Y-125775278D01*
X128903000Y-125776000D01*
X127253000Y-125776000D01*
X127238297Y-125775278D01*
X127223736Y-125773118D01*
X127209457Y-125769541D01*
X127195597Y-125764582D01*
X127182290Y-125758288D01*
X127169664Y-125750720D01*
X127157841Y-125741952D01*
X127146934Y-125732066D01*
X127137048Y-125721159D01*
X127128280Y-125709336D01*
X127120712Y-125696710D01*
X127114418Y-125683403D01*
X127109459Y-125669543D01*
X127105882Y-125655264D01*
X127103722Y-125640703D01*
X127103000Y-125626000D01*
X127103000Y-125326000D01*
X127103722Y-125311297D01*
X127105882Y-125296736D01*
X127109459Y-125282457D01*
X127114418Y-125268597D01*
X127120712Y-125255290D01*
X127128280Y-125242664D01*
X127137048Y-125230841D01*
X127146934Y-125219934D01*
X127157841Y-125210048D01*
X127169664Y-125201280D01*
X127182290Y-125193712D01*
X127195597Y-125187418D01*
X127209457Y-125182459D01*
X127223736Y-125178882D01*
X127238297Y-125176722D01*
X127253000Y-125176000D01*
X128903000Y-125176000D01*
X128917703Y-125176722D01*
X128917703Y-125176722D01*
G37*
D13*
X128078000Y-125476000D03*
M02*
